<svg width="32" height="32" viewBox="0 0 32 32" fill="none" xmlns="http://www.w3.org/2000/svg">
<g clip-path="url(#clip0_1_370)">
<path d="M3.5062 0.000198364H24.3323C24.6879 0.000198364 24.9762 0.288448 24.9762 0.644073V27.1287C24.9762 27.4843 24.6879 27.7726 24.3323 27.7726H3.5062C3.15057 27.7726 2.86232 27.4843 2.86232 27.1287V0.644073C2.86238 0.288448 3.15063 0.000198364 3.5062 0.000198364Z" fill="#7398D3"/>
<path d="M5.58725 2.14653H26.4134C26.769 2.14653 27.0573 2.43478 27.0573 2.79041V29.275C27.0573 29.6307 26.769 29.9189 26.4134 29.9189H5.58725C5.23162 29.9189 4.94337 29.6307 4.94337 29.275V2.79041C4.94337 2.43484 5.23168 2.14653 5.58725 2.14653Z" fill="#A2B9E2"/>
<path d="M7.6683 4.22762H28.4944C28.8501 4.22762 29.1383 4.51587 29.1383 4.8715V31.3561C29.1382 31.7117 28.85 32 28.4944 32H7.6683C7.31268 32 7.02443 31.7117 7.02443 31.3561V4.8715C7.02443 4.51593 7.31274 4.22762 7.6683 4.22762Z" fill="#D8E2F1"/>
<path d="M8.32532 32V4.22762H7.66838C7.31275 4.22762 7.0245 4.51587 7.0245 4.8715V31.3561C7.0245 31.7117 7.31281 32 7.66838 32L8.32532 32Z" fill="#B9CBEA"/>
<path d="M20.1624 30.0115H26.6664C26.9331 30.0115 27.1493 29.7953 27.1493 29.5287V20.553C27.1493 20.2863 26.9331 20.0702 26.6664 20.0702H20.1624C19.8957 20.0702 19.6795 20.2863 19.6795 20.553V29.5286C19.6795 29.7953 19.8957 30.0115 20.1624 30.0115Z" fill="#DD5790"/>
<path d="M9.49638 30.0115H17.8216C18.0883 30.0115 18.3044 29.7953 18.3044 29.5287V27.3173C18.3044 27.0506 18.0883 26.8344 17.8216 26.8344H9.49638C9.22969 26.8344 9.01351 27.0506 9.01351 27.3173V29.5286C9.01351 29.7953 9.22969 30.0115 9.49638 30.0115Z" fill="#5766CB"/>
<path d="M9.49638 24.4926H17.8216C18.0883 24.4926 18.3044 24.7088 18.3044 24.9755C18.3044 25.2422 18.0883 25.4583 17.8216 25.4583H9.49638C9.22969 25.4583 9.01351 25.2422 9.01351 24.9755C9.01351 24.7088 9.22969 24.4926 9.49638 24.4926Z" fill="#A2B9E2"/>
<path d="M9.49638 22.4111H17.8216C18.0883 22.4111 18.3044 22.6273 18.3044 22.894C18.3044 23.1606 18.0883 23.3768 17.8216 23.3768H9.49638C9.22969 23.3768 9.01351 23.1606 9.01351 22.894C9.01351 22.6273 9.22969 22.4111 9.49638 22.4111Z" fill="#A2B9E2"/>
<path d="M9.49638 20.0695H17.8216C18.0883 20.0695 18.3044 20.2857 18.3044 20.5523C18.3044 20.819 18.0883 21.0352 17.8216 21.0352H9.49638C9.22969 21.0352 9.01351 20.819 9.01351 20.5523C9.01351 20.2857 9.22969 20.0695 9.49638 20.0695Z" fill="#A2B9E2"/>
<path d="M9.49605 17.7287H21.7237C21.9904 17.7287 22.2065 17.9449 22.2065 18.2116C22.2065 18.4783 21.9904 18.6945 21.7237 18.6945H9.49605C9.22936 18.6945 9.01318 18.4783 9.01318 18.2116C9.01318 17.9449 9.22936 17.7287 9.49605 17.7287Z" fill="#A2B9E2"/>
<path d="M24.0649 17.7287H26.6664C26.9331 17.7287 27.1493 17.9449 27.1493 18.2116C27.1493 18.4783 26.9331 18.6945 26.6664 18.6945H24.0648C23.7981 18.6945 23.5819 18.4783 23.5819 18.2116C23.5819 17.9449 23.7982 17.7287 24.0649 17.7287Z" fill="#A2B9E2"/>
<path d="M9.49605 15.3876H21.7237C21.9904 15.3876 22.2065 15.6038 22.2065 15.8705C22.2065 16.1371 21.9904 16.3533 21.7237 16.3533H9.49605C9.22936 16.3533 9.01318 16.1371 9.01318 15.8705C9.01318 15.6038 9.22936 15.3876 9.49605 15.3876Z" fill="#A2B9E2"/>
<path d="M24.0649 15.3876H26.6664C26.9331 15.3876 27.1493 15.6038 27.1493 15.8705C27.1493 16.1371 26.9331 16.3533 26.6664 16.3533H24.0648C23.7981 16.3533 23.5819 16.1371 23.5819 15.8705C23.5819 15.6038 23.7982 15.3876 24.0649 15.3876Z" fill="#A2B9E2"/>
<path d="M9.49605 13.0455H21.7237C21.9904 13.0455 22.2065 13.2617 22.2065 13.5284C22.2065 13.7951 21.9904 14.0113 21.7237 14.0113H9.49605C9.22936 14.0113 9.01318 13.7951 9.01318 13.5284C9.01318 13.2617 9.22936 13.0455 9.49605 13.0455Z" fill="#A2B9E2"/>
<path d="M24.0649 13.0455H26.6664C26.9331 13.0455 27.1493 13.2617 27.1493 13.5284C27.1493 13.7951 26.9331 14.0113 26.6664 14.0113H24.0648C23.7981 14.0113 23.5819 13.7951 23.5819 13.5284C23.5819 13.2617 23.7982 13.0455 24.0649 13.0455Z" fill="#A2B9E2"/>
<path d="M9.49605 10.7047H21.7237C21.9904 10.7047 22.2065 10.9209 22.2065 11.1875C22.2065 11.4542 21.9904 11.6704 21.7237 11.6704H9.49605C9.22936 11.6704 9.01318 11.4542 9.01318 11.1875C9.01318 10.9209 9.22936 10.7047 9.49605 10.7047Z" fill="#A2B9E2"/>
<path d="M24.0649 10.7047H26.6664C26.9331 10.7047 27.1493 10.9209 27.1493 11.1875C27.1493 11.4542 26.9331 11.6704 26.6664 11.6704H24.0648C23.7981 11.6704 23.5819 11.4542 23.5819 11.1875C23.5819 10.9209 23.7982 10.7047 24.0649 10.7047Z" fill="#A2B9E2"/>
<path d="M9.49605 8.3625H21.7237C21.9904 8.3625 22.2065 8.57868 22.2065 8.84537C22.2065 9.11206 21.9904 9.32825 21.7237 9.32825H9.49605C9.22936 9.32825 9.01318 9.11206 9.01318 8.84537C9.01318 8.57875 9.22936 8.3625 9.49605 8.3625Z" fill="#A2B9E2"/>
<path d="M24.0649 8.3625H26.6664C26.9331 8.3625 27.1493 8.57868 27.1493 8.84537C27.1493 9.11206 26.9331 9.32825 26.6664 9.32825H24.0648C23.7981 9.32825 23.5819 9.11206 23.5819 8.84537C23.5819 8.57875 23.7982 8.3625 24.0649 8.3625Z" fill="#A2B9E2"/>
</g>
<defs>
<clipPath id="clip0_1_370">
<rect width="32" height="32" fill="white" transform="matrix(-1 0 0 -1 32 32)"/>
</clipPath>
</defs>
</svg>
