<svg width="32" height="32" viewBox="0 0 32 32" fill="none" xmlns="http://www.w3.org/2000/svg">
<g clip-path="url(#clip0_1_406)">
<path d="M18.7636 25.1406H15.9996H13.2356L11.3606 30.7656H15.9996H20.6386L18.7636 25.1406Z" fill="#CCE6FF"/>
<path d="M18.764 25.1406H16V30.7656H20.639L18.764 25.1406Z" fill="#B3CCFF"/>
<path d="M16 3.8125H0V26.375H16H32V3.8125H16Z" fill="#333E73"/>
<path d="M16 3.8125H32V26.375H16V3.8125Z" fill="#1F2859"/>
<path d="M16 5.6875H1.875V24.5H16H30.125V5.6875H16Z" fill="#66CCFF"/>
<path d="M16 5.6875H30.125V24.5H16V5.6875Z" fill="#4DA6FF"/>
<path d="M16 30.125H7.5625V32H16H24.4375V30.125H16Z" fill="#E6F7FF"/>
<path d="M16 30.125H24.4375V32H16V30.125Z" fill="#CCE6FF"/>
<path d="M7.5625 0V22.625H24.4375V0H7.5625Z" fill="#E6F7FF"/>
<path d="M16 0H24.4375V22.625H16V0Z" fill="#CCE6FF"/>
<path d="M11.3125 3.8125V11.3125H20.6875V3.8125H11.3125Z" fill="#CCE6FF"/>
<path d="M11.3125 13.1875H20.6875V15.0625H11.3125V13.1875Z" fill="#CCE6FF"/>
<path d="M11.3125 16.9375H20.6875V18.8125H11.3125V16.9375Z" fill="#CCE6FF"/>
<path d="M16 3.8125H20.6875V11.3125H16V3.8125Z" fill="#B3CCFF"/>
<path d="M16 13.1875H20.6875V15.0625H16V13.1875Z" fill="#B3CCFF"/>
<path d="M16 16.9375H20.6875V18.8125H16V16.9375Z" fill="#B3CCFF"/>
</g>
<defs>
<clipPath id="clip0_1_406">
<rect width="32" height="32" fill="white"/>
</clipPath>
</defs>
</svg>
