<svg width="209" height="162" viewBox="0 0 209 162" fill="none" xmlns="http://www.w3.org/2000/svg">
<g clip-path="url(#clip0_1_428)">
<path d="M51.5506 34.5417L41.451 140.573C40.4852 150.713 50.0069 158.682 59.8763 155.994L175.555 124.489C181.324 122.918 185.551 118.009 186.23 112.094L197.225 16.2203C198.34 6.50295 189.706 -1.52385 180.043 0.245656L63.468 21.5935C57.0342 22.7718 52.1679 28.0586 51.5506 34.5417Z" fill="#FAA280"/>
<path d="M108.996 68.0122L108.555 68.0089L107.914 151.425C107.87 157.048 112.457 161.683 118.105 161.726L154.005 162C159.653 162.043 164.311 157.477 164.354 151.854L164.994 68.4872L164.406 68.4827C163.838 68.4786 163.846 67.6006 164.413 67.6047L165.001 67.6092L165.055 60.5193C165.098 54.8966 160.512 50.2607 154.864 50.2177L118.964 49.9444C113.315 49.9014 108.658 54.467 108.615 60.0897L108.561 67.1309L109.002 67.1342C109.571 67.1387 109.563 68.0163 108.996 68.0122Z" fill="black"/>
<path d="M108.359 131.802C109.168 131.808 109.824 132.472 109.818 133.276L109.719 146.152C109.713 146.957 109.046 147.61 108.238 147.604C107.43 147.598 106.773 146.934 106.779 146.129L106.878 133.254C106.884 132.449 107.551 131.796 108.359 131.802Z" fill="black"/>
<path d="M164.03 130.276C164.838 130.282 165.495 130.946 165.488 131.75L165.405 142.675C165.398 143.48 164.732 144.133 163.924 144.127C163.115 144.121 162.459 143.457 162.465 142.653L162.549 131.728C162.555 130.923 163.221 130.27 164.03 130.276Z" fill="black"/>
<path d="M163.069 120.673L164.746 120.686C165.093 120.689 165.375 120.974 165.372 121.319L165.332 126.535C165.329 126.881 165.043 127.161 164.696 127.159L163.019 127.146C162.672 127.143 162.39 126.859 162.393 126.513L162.433 121.297C162.436 120.951 162.722 120.671 163.069 120.673Z" fill="black"/>
<path d="M162.934 112.869L164.611 112.881C164.958 112.884 165.24 113.169 165.237 113.515L165.197 118.73C165.194 119.076 164.908 119.357 164.561 119.354L162.884 119.341C162.537 119.339 162.255 119.054 162.258 118.708L162.298 113.492C162.3 113.146 162.586 112.866 162.934 112.869Z" fill="black"/>
<path d="M116.333 51.6736L157.622 51.9878C161.03 52.0136 163.797 54.8104 163.771 58.2029L163.034 154.141C163.008 157.533 160.198 160.288 156.79 160.262L115.502 159.948C112.094 159.922 109.327 157.125 109.353 153.733L110.09 57.7946C110.116 54.4021 112.925 51.6478 116.333 51.6736Z" fill="black"/>
<path d="M117.103 53.0125L156.736 53.3144C160.037 53.3394 162.718 56.0487 162.692 59.3344L161.973 152.994C161.947 156.28 159.226 158.948 155.925 158.923L116.292 158.621C112.991 158.596 110.31 155.887 110.336 152.601L111.056 58.9408C111.081 55.6555 113.803 52.9875 117.103 53.0125Z" fill="#FF8B53"/>
<path d="M123.96 154.748L148.064 154.932C149.357 154.942 150.407 156.003 150.398 157.291C150.388 158.579 149.321 159.624 148.028 159.614L123.923 159.43C122.63 159.421 121.58 158.359 121.59 157.071C121.6 155.784 122.666 154.738 123.96 154.748Z" fill="black"/>
<path d="M126.395 156.521C126.88 156.525 127.274 156.923 127.27 157.406C127.267 157.889 126.867 158.281 126.382 158.277C125.897 158.273 125.503 157.875 125.507 157.392C125.511 156.91 125.91 156.518 126.395 156.521Z" fill="white"/>
<path d="M131.876 157.344L140.107 157.407C140.377 157.409 140.595 157.63 140.593 157.898C140.591 158.166 140.369 158.384 140.1 158.382L131.869 158.319C131.599 158.317 131.381 158.096 131.383 157.828C131.385 157.56 131.607 157.342 131.876 157.344Z" fill="white"/>
<path d="M148.88 58.3934C149.718 58.3934 150.398 57.7172 150.398 56.8829C150.398 56.0487 149.718 55.3724 148.88 55.3724C148.042 55.3724 147.363 56.0487 147.363 56.8829C147.363 57.7172 148.042 58.3934 148.88 58.3934Z" fill="white"/>
<path d="M155.18 58.3934C156.018 58.3934 156.697 57.7172 156.697 56.8829C156.697 56.0487 156.018 55.3724 155.18 55.3724C154.342 55.3724 153.663 56.0487 153.663 56.8829C153.663 57.7172 154.342 58.3934 155.18 58.3934Z" fill="white"/>
<path d="M110.816 66.0724C110.815 66.1313 110.811 71.7209 110.811 71.7802V141.826C110.811 147.531 116.517 152.199 123.492 152.199H142.229C149.203 152.199 154.91 147.531 154.91 141.826V71.7802C154.91 71.7209 154.906 66.1313 154.904 66.0724H110.816Z" fill="#DC5C3C"/>
<path d="M132.763 148.176H64.9251C60.9923 148.176 57.8037 145.002 57.8037 141.087V37.6906H132.762V148.176H132.763Z" fill="#F9F8D7"/>
<path d="M132.763 148.176H64.9251C60.9923 148.176 57.8037 145.002 57.8037 141.087V37.6906H132.762V148.176H132.763Z" fill="#FBFBF9"/>
<path d="M142.277 109.513H126.389V148.176H142.277V109.513Z" fill="#FBFBF9"/>
<path d="M132.763 62.1624V138.704C132.763 143.914 137.044 148.175 142.277 148.175C147.51 148.175 151.792 143.914 151.792 138.704V62.1624H132.763Z" fill="#F76540"/>
<path opacity="0.49" d="M136.863 140.681C137.659 138.216 137.323 131.439 137.323 127.466C137.323 119.066 137.323 110.667 137.323 102.268C137.323 89.0466 137.323 75.8254 137.323 62.6046C137.323 62.5834 137.323 62.1624 137.323 62.1624C137.318 62.1624 132.763 62.1624 132.763 62.1624V138.704C132.763 140.802 133.459 142.744 134.631 144.319C134.626 144.314 136.651 141.198 136.789 140.865C136.814 140.805 136.843 140.744 136.863 140.681Z" fill="#383E3F"/>
<path d="M81.4223 87.3822H63.4709V129.613H81.4223V87.3822Z" fill="#F76540"/>
<path d="M126.389 52.6705H63.4709V81.7518H126.389V52.6705Z" fill="#F76540" fill-opacity="0.38"/>
<path d="M126.389 52.6705H63.4709V81.7518H126.389V52.6705Z" fill="#F76540" fill-opacity="0.38"/>
<path d="M110.759 87.3822H87.166V97.491H110.759V87.3822Z" fill="#F76540" fill-opacity="0.38"/>
<path d="M125.507 94.2685H87.166V98.3607H125.507V94.2685Z" fill="#F76540" fill-opacity="0.38"/>
<path d="M113.016 102.275H87.166V105.972H113.016V102.275Z" fill="#F76540" fill-opacity="0.38"/>
<path d="M104.475 107.941H87.166V111.361H104.475V107.941Z" fill="#F76540" fill-opacity="0.38"/>
<path d="M125.859 113.778H87.166V117.475H125.859V113.778Z" fill="#F76540"/>
<path d="M125.683 119.229H86.9905V122.926H125.683V119.229Z" fill="#F76540"/>
<path d="M64.6226 49.9438L126.39 81.752" stroke="white" stroke-miterlimit="10" stroke-linecap="round" stroke-linejoin="round" stroke-dasharray="5 5"/>
<path d="M126.321 52.6705L63.4709 81.7518" stroke="white" stroke-miterlimit="10" stroke-linecap="round" stroke-linejoin="round" stroke-dasharray="5 5"/>
<path d="M125.683 125.424H86.9905V129.12H125.683V125.424Z" fill="#F76540"/>
<path d="M126.389 133.519H63.4709V135.666H126.389V133.519Z" fill="#F76540" fill-opacity="0.38"/>
<g opacity="0.49">
<g opacity="0.49">
<g opacity="0.49">
<path opacity="0.49" d="M121.454 41.5943V36.2776L116.914 36.42C115.869 36.4527 115.027 37.1929 115.042 38.0647L115.224 48.3295C115.24 49.2014 116.108 49.8879 117.152 49.8552L125.386 49.597C126.431 49.5643 127.273 48.8241 127.258 47.9523L127.145 41.5947H121.454V41.5943Z" fill="#DC5C3C"/>
<path opacity="0.49" d="M57.9358 64.9531L102.571 55.0046L102.184 33.2079L62.791 29.0425V55.5741H57.9358V64.9531Z" fill="#DC5C3C"/>
<path opacity="0.28" d="M57.9358 64.9535L102.571 55.005L102.444 47.904H62.791V55.5745H57.9358V64.9535Z" fill="#DC5C3C"/>
<path opacity="0.49" d="M121.153 42.6382L121.2 45.2722C121.203 45.424 121.202 45.5749 121.195 45.7243C121.157 47.137 120.812 48.497 120.213 49.7583C119.806 50.6183 119.28 51.4329 118.651 52.1861C116.159 55.1863 112.066 57.2234 107.431 57.3682C99.7441 57.6092 93.3637 52.5601 93.2498 46.1486L93.203 43.5145C93.0891 37.103 99.2837 31.6591 106.971 31.4181C110.814 31.2974 114.332 32.4998 116.901 34.5336C118.06 35.4501 119.026 36.5351 119.743 37.7462C120.182 38.4859 120.527 39.2706 120.765 40.093C121.005 40.9088 121.137 41.761 121.153 42.6382Z" fill="#DC5C3C"/>
<path opacity="0.49" d="M106.899 81.6786L106.381 54.1991C106.365 53.38 105.497 52.7348 104.453 52.7655L94.2778 53.0654C93.2327 53.096 92.3905 53.7916 92.4057 54.6107L92.9166 81.6786H106.899Z" fill="#DC5C3C"/>
<path opacity="0.49" d="M107.615 57.362L91.2821 57.8738L90.8218 31.9154L107.154 31.4032L107.615 57.362Z" fill="#DC5C3C"/>
<path opacity="0.49" d="M91.842 73.9785L91.4992 73.9892C90.454 74.0219 89.5864 73.3354 89.5708 72.4639L89.4372 64.9338C89.4216 64.0619 90.2642 63.3218 91.3094 63.2891L91.6521 63.2785C92.6973 63.2457 93.5649 63.9322 93.5801 64.8041L93.7137 72.3342C93.7293 73.2057 92.8872 73.9454 91.842 73.9785Z" fill="#DC5C3C"/>
<path opacity="0.49" d="M85.4054 37.4079L74.0051 37.7654C73.2213 37.79 72.5707 37.2753 72.5587 36.6215C72.5472 35.9677 73.179 35.4125 73.9627 35.388L85.3631 35.0304C86.1469 35.0058 86.7979 35.5205 86.8094 36.1743C86.8209 36.8281 86.1892 37.3833 85.4054 37.4079Z" fill="#DC5C3C"/>
<path opacity="0.49" d="M85.5051 43.0493L74.1048 43.4068C73.321 43.4314 72.6704 42.9167 72.6588 42.2625C72.6473 41.6087 73.279 41.0535 74.0628 41.0289L85.4632 40.6714C86.247 40.6468 86.8976 41.1615 86.9095 41.8153C86.9206 42.4699 86.2889 43.0247 85.5051 43.0493Z" fill="#DC5C3C"/>
<path opacity="0.49" d="M85.6182 49.4277L74.2178 49.7853C73.434 49.8099 72.7834 49.2952 72.7719 48.6414C72.7604 47.9876 73.3921 47.4324 74.1759 47.4078L85.5762 47.0503C86.36 47.0257 87.0106 47.5404 87.0226 48.1942C87.0337 48.8484 86.4019 49.4032 85.6182 49.4277Z" fill="#DC5C3C"/>
<path opacity="0.49" d="M120.766 40.0929L113.023 40.3355C112.239 40.3601 111.588 39.8454 111.577 39.1916C111.571 38.8651 111.726 38.5615 111.98 38.3386C112.236 38.1152 112.588 37.9708 112.981 37.9581L119.743 37.7461C120.183 38.4854 120.528 39.2706 120.766 40.0929Z" fill="#DC5C3C"/>
<path opacity="0.49" d="M121.165 43.3463L121.199 45.2721C121.202 45.4239 121.201 45.5749 121.195 45.7242L113.123 45.9774C112.339 46.002 111.688 45.4873 111.676 44.8331C111.671 44.5054 111.825 44.2047 112.08 43.98C112.336 43.7567 112.688 43.6122 113.08 43.6L121.165 43.3463Z" fill="#DC5C3C"/>
<path opacity="0.49" d="M120.214 49.7585C119.806 50.6185 119.28 51.4331 118.652 52.1863L113.236 52.3561C112.453 52.3807 111.802 51.866 111.79 51.2118C111.784 50.8857 111.939 50.5821 112.193 50.3587C112.449 50.1354 112.802 49.9909 113.194 49.9782L120.214 49.7585Z" fill="#DC5C3C"/>
<path opacity="0.49" d="M101.987 38.0115C102.01 39.288 100.788 40.362 99.2575 40.4099C97.7273 40.4577 96.4684 39.4619 96.4454 38.1854C96.4228 36.9089 97.6451 35.8349 99.1753 35.787C100.706 35.7388 101.965 36.735 101.987 38.0115Z" fill="#DC5C3C"/>
<path opacity="0.49" d="M102.12 45.5022C102.142 46.7787 100.92 47.8527 99.39 47.9005C97.8595 47.9484 96.6006 46.9526 96.5779 45.6757C96.5553 44.3992 97.7777 43.3252 99.3078 43.2773C100.838 43.2295 102.097 44.2253 102.12 45.5022Z" fill="#DC5C3C"/>
<path opacity="0.49" d="M102.135 52.8385C102.158 54.115 100.935 55.1889 99.4052 55.2368C97.8751 55.2851 96.6162 54.2889 96.5936 53.0124C96.571 51.7359 97.7929 50.6619 99.3234 50.614C100.854 50.5657 102.113 51.562 102.135 52.8385Z" fill="#DC5C3C"/>
</g>
</g>
</g>
<path d="M63.4709 87.3822L81.4219 129.614" stroke="white" stroke-miterlimit="10" stroke-linecap="round" stroke-linejoin="round" stroke-dasharray="5 5"/>
<path d="M63.4709 129.614L81.4219 87.3822" stroke="white" stroke-miterlimit="10" stroke-linecap="round" stroke-linejoin="round" stroke-dasharray="5 5"/>
<path d="M121.47 44.2665L113.798 44.5513C112.824 44.5873 112.016 43.8308 112.001 42.8697L111.831 31.5547C111.817 30.5936 112.602 29.7778 113.576 29.7418L121.248 29.4571C122.222 29.4211 123.03 30.1776 123.045 31.1386L123.215 42.4536C123.229 43.4147 122.444 44.2305 121.47 44.2665Z" fill="black"/>
<path d="M51.6339 39.9406C51.6894 43.6412 48.6944 46.7543 44.9444 46.8934C41.1944 47.0325 38.1095 44.1453 38.054 40.4447C37.9985 36.7436 40.9935 33.6309 44.7435 33.4918C48.4934 33.3523 51.5784 36.2396 51.6339 39.9406Z" fill="black"/>
<path d="M51.3362 20.1336L99.8484 26.2019L100.209 50.2291L51.9782 62.9459L51.3362 20.1336Z" fill="#FBFBF9"/>
<path opacity="0.28" d="M51.6709 42.4012L51.9787 62.9459L100.209 50.2292L100.092 42.4012H51.6709Z" fill="#F76540" fill-opacity="0.38"/>
<path d="M51.9785 62.946C48.7348 63.0663 46.0415 60.5456 45.9934 57.3446L45.4279 19.6195C45.3798 16.4185 47.9946 13.701 51.2382 13.5807C54.4819 13.4604 57.1752 15.9811 57.2233 19.1822L57.7888 56.9072C57.8369 60.1083 55.2221 62.8258 51.9785 62.946Z" fill="#F76540"/>
<path d="M117.525 36.5977L117.569 39.5009C117.571 39.6682 117.571 39.8343 117.565 39.9992C117.529 41.5564 117.208 43.0558 116.65 44.4461C116.27 45.394 115.78 46.2921 115.195 47.1226C112.872 50.4301 109.058 52.675 104.74 52.8354C97.5762 53.1013 91.6306 47.535 91.525 40.4672L91.4814 37.564C91.3754 30.4962 97.1475 24.4955 104.311 24.2299C107.892 24.097 111.17 25.4221 113.564 27.6642C114.643 28.6744 115.544 29.8707 116.212 31.2053C116.622 32.0207 116.943 32.8856 117.165 33.7922C117.387 34.6915 117.511 35.6309 117.525 36.5977Z" fill="#F76540"/>
<path d="M104.243 81.6783L103.759 49.4426C103.745 48.4815 102.936 47.7246 101.963 47.761L92.4818 48.1129C91.5081 48.1489 90.7231 48.9647 90.7375 49.9258L91.2134 81.6787H104.243V81.6783Z" fill="black"/>
<path d="M104.909 52.8281L89.6903 53.3927L89.2612 24.7774L104.48 24.2132L104.909 52.8281Z" fill="#F76540"/>
<path d="M90.2127 71.144L89.8933 71.1558C88.9196 71.1919 88.1112 70.4354 88.0964 69.4743L87.9719 61.1734C87.9575 60.2123 88.7425 59.3965 89.7162 59.3605L90.0355 59.3486C91.0092 59.3126 91.818 60.0691 91.8324 61.0302L91.957 69.3307C91.9713 70.2922 91.1863 71.108 90.2127 71.144Z" fill="#FAC367"/>
<path d="M84.2141 30.8317L73.591 31.2257C72.8606 31.2527 72.2544 30.6852 72.2433 29.9648C72.2326 29.2439 72.8212 28.6322 73.5515 28.6052L84.1747 28.2112C84.905 28.1842 85.5117 28.7517 85.5224 29.4726C85.5335 30.1926 84.9445 30.8047 84.2141 30.8317Z" fill="#F76540" fill-opacity="0.38"/>
<path d="M84.3079 37.0502L73.6847 37.4442C72.9544 37.4712 72.3482 36.9037 72.3371 36.1828C72.3264 35.4619 72.9149 34.8503 73.6453 34.8233L84.2684 34.4293C84.9988 34.4023 85.6054 34.9697 85.6161 35.6906C85.6272 36.4115 85.0383 37.0232 84.3079 37.0502Z" fill="#F76540" fill-opacity="0.38"/>
<path d="M84.4124 44.0821L73.7892 44.4761C73.0589 44.5031 72.4522 43.9356 72.4415 43.2147C72.4309 42.4938 73.0194 41.8822 73.7498 41.8548L84.3729 41.4608C85.1033 41.4338 85.7095 42.0012 85.7206 42.7217C85.7313 43.443 85.1427 44.0551 84.4124 44.0821Z" fill="#F76540" fill-opacity="0.38"/>
<path d="M117.165 33.7922L109.95 34.0597C109.219 34.0867 108.613 33.5193 108.602 32.7988C108.597 32.4392 108.741 32.1045 108.978 31.8582C109.216 31.6119 109.545 31.4523 109.911 31.4388L116.212 31.2052C116.622 32.0202 116.943 32.8855 117.165 33.7922Z" fill="black"/>
<path d="M117.536 37.3782L117.568 39.5012C117.57 39.6685 117.57 39.8347 117.564 39.9995L110.042 40.2786C109.312 40.3056 108.706 39.7381 108.694 39.0172C108.689 38.6559 108.833 38.3245 109.07 38.0766C109.309 37.8303 109.637 37.6707 110.003 37.6572L117.536 37.3782Z" fill="black"/>
<path d="M116.649 44.4456C116.269 45.3935 115.779 46.2916 115.194 47.1221L110.148 47.3095C109.418 47.3365 108.811 46.769 108.8 46.0482C108.795 45.6885 108.939 45.3538 109.176 45.1076C109.414 44.8613 109.743 44.7017 110.108 44.6882L116.649 44.4456Z" fill="black"/>
<path d="M99.6668 31.4965C99.6877 32.9039 98.5489 34.0875 97.1231 34.1403C95.6973 34.1931 94.5239 33.0954 94.503 31.688C94.482 30.2806 95.6209 29.0969 97.0467 29.0442C98.4728 28.991 99.6458 30.0891 99.6668 31.4965Z" fill="white"/>
<path d="M99.7893 39.7545C99.8103 41.1619 98.6714 42.3455 97.2457 42.3983C95.8195 42.4511 94.6465 41.3534 94.6255 39.9459C94.6046 38.5385 95.7435 37.3549 97.1692 37.3021C98.5954 37.2493 99.7684 38.3475 99.7893 39.7545Z" fill="white"/>
<path d="M99.8045 47.8404C99.8255 49.2479 98.6866 50.4315 97.2608 50.4843C95.835 50.5375 94.6616 49.4393 94.6407 48.0319C94.6193 46.6245 95.7582 45.4409 97.1844 45.3881C98.6101 45.3353 99.7835 46.4334 99.8045 47.8404Z" fill="white"/>
<path d="M199.025 123.307H174.95C172.081 123.307 169.754 120.992 169.754 118.135V113.117C169.754 110.26 172.081 107.945 174.95 107.945H199.025C201.895 107.945 204.221 110.26 204.221 113.117V118.135C204.221 120.992 201.894 123.307 199.025 123.307Z" fill="#9A523F"/>
<path d="M197.633 113.293H184.036C183.53 113.293 183.115 112.881 183.115 112.377C183.115 111.873 183.53 111.46 184.036 111.46H197.633C198.139 111.46 198.554 111.873 198.554 112.377C198.554 112.881 198.139 113.293 197.633 113.293Z" fill="white"/>
<path d="M197.633 116.544H184.036C183.53 116.544 183.115 116.132 183.115 115.628C183.115 115.124 183.53 114.711 184.036 114.711H197.633C198.139 114.711 198.554 115.124 198.554 115.628C198.554 116.132 198.139 116.544 197.633 116.544Z" fill="white"/>
<path d="M197.633 119.796H184.036C183.53 119.796 183.115 119.384 183.115 118.88C183.115 118.376 183.53 117.963 184.036 117.963H197.633C198.139 117.963 198.554 118.376 198.554 118.88C198.554 119.384 198.139 119.796 197.633 119.796Z" fill="white"/>
<path d="M186.093 78.3239H148.18C143.661 78.3239 139.998 81.9705 139.998 86.469V94.3718C139.998 98.8702 143.661 102.517 148.18 102.517H150.552L146.898 109.02L156.332 102.517H186.093C190.612 102.517 194.275 98.8702 194.275 94.3718V86.469C194.275 81.9705 190.612 78.3239 186.093 78.3239Z" fill="#F76540"/>
<path d="M152.924 96.4186C156.252 96.4186 158.95 93.7332 158.95 90.4207C158.95 87.1081 156.252 84.4227 152.924 84.4227C149.597 84.4227 146.899 87.1081 146.899 90.4207C146.899 93.7332 149.597 96.4186 152.924 96.4186Z" fill="white"/>
<path d="M184.816 86.7431H163.404C162.607 86.7431 161.954 86.0938 161.954 85.3001C161.954 84.5063 162.607 83.8571 163.404 83.8571H184.816C185.613 83.8571 186.266 84.5063 186.266 85.3001C186.266 86.0938 185.614 86.7431 184.816 86.7431Z" fill="white"/>
<path d="M184.816 91.8639H163.404C162.607 91.8639 161.954 91.2146 161.954 90.4208C161.954 89.6271 162.607 88.9778 163.404 88.9778H184.816C185.613 88.9778 186.266 89.6271 186.266 90.4208C186.266 91.2146 185.614 91.8639 184.816 91.8639Z" fill="white"/>
<path d="M184.816 96.9836H163.404C162.607 96.9836 161.954 96.3343 161.954 95.5406C161.954 94.7468 162.607 94.0975 163.404 94.0975H184.816C185.613 94.0975 186.266 94.7468 186.266 95.5406C186.266 96.3339 185.614 96.9836 184.816 96.9836Z" fill="white"/>
<path d="M176.664 118.321C178.213 118.321 179.47 117.07 179.47 115.528C179.47 113.985 178.213 112.735 176.664 112.735C175.114 112.735 173.858 113.985 173.858 115.528C173.858 117.07 175.114 118.321 176.664 118.321Z" fill="white"/>
<path d="M180.872 122.925C180.872 122.925 176.913 135.905 165.489 135.666C165.489 135.666 177.761 140.204 185.42 122.925H180.872Z" fill="#9A523F"/>
<path d="M13.9389 67.2083C21.6352 67.2083 27.8743 60.9976 27.8743 53.3362C27.8743 45.6749 21.6352 39.4641 13.9389 39.4641C6.24253 39.4641 0.00341797 45.6749 0.00341797 53.3362C0.00341797 60.9976 6.24253 67.2083 13.9389 67.2083Z" fill="#9A523F"/>
<path d="M24.9055 36.8106C28.1633 36.8106 30.8042 34.1817 30.8042 30.9387C30.8042 27.6957 28.1633 25.0668 24.9055 25.0668C21.6478 25.0668 19.0068 27.6957 19.0068 30.9387C19.0068 34.1817 21.6478 36.8106 24.9055 36.8106Z" fill="#9A523F"/>
<path d="M25.9153 35.702L28.7611 37.69L27.8996 33.9763L25.9153 35.702Z" fill="#9A523F"/>
<path d="M33.2002 82.3318C37.1113 82.3318 40.2818 79.1757 40.2818 75.2825C40.2818 71.3892 37.1113 68.2331 33.2002 68.2331C29.2892 68.2331 26.1187 71.3892 26.1187 75.2825C26.1187 79.1757 29.2892 82.3318 33.2002 82.3318Z" fill="#9A523F"/>
<path d="M38.0554 71.9972L38.9777 67.9455L35.2261 70.5893L38.0554 71.9972Z" fill="#9A523F"/>
<path d="M26.8878 54.9342L32.0853 52.8202L26.2639 50.7435L26.8878 54.9342Z" fill="#9A523F"/>
<path d="M6.18039 56.1291C7.44904 56.1291 8.47748 55.1054 8.47748 53.8425C8.47748 52.5796 7.44904 51.5558 6.18039 51.5558C4.91174 51.5558 3.8833 52.5796 3.8833 53.8425C3.8833 55.1054 4.91174 56.1291 6.18039 56.1291Z" fill="white"/>
<path d="M14.1726 56.1291C15.4412 56.1291 16.4697 55.1054 16.4697 53.8425C16.4697 52.5796 15.4412 51.5558 14.1726 51.5558C12.9039 51.5558 11.8755 52.5796 11.8755 53.8425C11.8755 55.1054 12.9039 56.1291 14.1726 56.1291Z" fill="white"/>
<path d="M21.6794 56.1291C22.9481 56.1291 23.9765 55.1054 23.9765 53.8425C23.9765 52.5796 22.9481 51.5558 21.6794 51.5558C20.4108 51.5558 19.3823 52.5796 19.3823 53.8425C19.3823 55.1054 20.4108 56.1291 21.6794 56.1291Z" fill="white"/>
<path d="M190.884 58.3931C197.188 58.3931 202.298 53.3059 202.298 47.0306C202.298 40.7552 197.188 35.6681 190.884 35.6681C184.58 35.6681 179.469 40.7552 179.469 47.0306C179.469 53.3059 184.58 58.3931 190.884 58.3931Z" fill="#E16F45"/>
<path opacity="0.56" d="M190.884 58.3931C197.188 58.3931 202.298 53.3059 202.298 47.0306C202.298 40.7552 197.188 35.6681 190.884 35.6681C184.58 35.6681 179.469 40.7552 179.469 47.0306C179.469 53.3059 184.58 58.3931 190.884 58.3931Z" fill="#ED7E3D"/>
<path d="M194.694 28.5191C196.826 28.5191 198.554 26.7991 198.554 24.6773C198.554 22.5556 196.826 20.8356 194.694 20.8356C192.563 20.8356 190.835 22.5556 190.835 24.6773C190.835 26.7991 192.563 28.5191 194.694 28.5191Z" fill="#E16F45"/>
<path d="M41.687 138.216C45.51 138.216 48.6091 135.131 48.6091 131.325C48.6091 127.52 45.51 124.435 41.687 124.435C37.864 124.435 34.7649 127.52 34.7649 131.325C34.7649 135.131 37.864 138.216 41.687 138.216Z" fill="#F76540"/>
<path d="M33.7072 112.728C34.976 112.728 36.0047 111.705 36.0047 110.441C36.0047 109.178 34.976 108.154 33.7072 108.154C32.4383 108.154 31.4097 109.178 31.4097 110.441C31.4097 111.705 32.4383 112.728 33.7072 112.728Z" fill="#E87741"/>
<path d="M206.61 71.9694C207.93 71.9694 209 70.9043 209 69.5903C209 68.2764 207.93 67.2112 206.61 67.2112C205.29 67.2112 204.22 68.2764 204.22 69.5903C204.22 70.9043 205.29 71.9694 206.61 71.9694Z" fill="#E87741"/>
<path d="M160.707 36.9135C164.242 36.9135 167.107 34.0615 167.107 30.5433C167.107 27.0251 164.242 24.1731 160.707 24.1731C157.173 24.1731 154.308 27.0251 154.308 30.5433C154.308 34.0615 157.173 36.9135 160.707 36.9135Z" fill="#E87741"/>
<path d="M137.323 53.0526H132.763V62.1632H137.323V53.0526Z" fill="#DC5C3C"/>
</g>
<defs>
<clipPath id="clip0_1_428">
<rect width="209" height="162" fill="white"/>
</clipPath>
</defs>
</svg>
