<svg width="32" height="32" viewBox="0 0 32 32" fill="none" xmlns="http://www.w3.org/2000/svg">
<path d="M19.4599 2.06989H5.32789C3.56151 2.06989 2.12964 3.50176 2.12964 5.26813V26.7316C2.12964 28.498 3.56151 29.9299 5.32789 29.9299H19.4599C21.2263 29.9299 22.6581 28.498 22.6581 26.7316V5.26813C22.6581 3.50176 21.2263 2.06989 19.4599 2.06989Z" fill="#F16C7A"/>
<path d="M19.4599 1.88239H5.32789C3.46101 1.88239 1.94214 3.40126 1.94214 5.26814V7.83263C1.94214 7.93626 2.02601 8.02014 2.12964 8.02014C2.23326 8.02014 2.31714 7.93626 2.31714 7.83263V5.26814C2.31714 3.60801 3.66776 2.25739 5.32789 2.25739H19.4599C21.12 2.25739 22.4706 3.60801 22.4706 5.26814V26.7316C22.4706 28.3918 21.12 29.7424 19.4599 29.7424H5.32789C3.66776 29.7424 2.31714 28.3918 2.31714 26.7316V9.66713C2.31714 9.56351 2.23326 9.47963 2.12964 9.47963C2.02601 9.47963 1.94214 9.56351 1.94214 9.66713V26.7316C1.94214 28.5986 3.46101 30.1174 5.32789 30.1174H19.4599C21.3268 30.1174 22.8456 28.5985 22.8456 26.7316V5.26814C22.8456 3.40114 21.3268 1.88239 19.4599 1.88239Z" fill="#3A312A"/>
<path d="M27.7956 3.27972C27.6739 4.72522 26.1675 4.95347 26.1675 4.95347C27.4607 5.01435 27.7831 6.71085 27.7831 6.71085C27.8107 5.50122 29.4482 4.9356 29.4482 4.9356C28.2217 4.8621 27.7956 3.27972 27.7956 3.27972Z" fill="#D7E057"/>
<path d="M29.4594 4.74804C28.3839 4.68379 27.9804 3.24504 27.9765 3.23054C27.9527 3.14279 27.8706 3.08567 27.7785 3.09279C27.6879 3.10104 27.6162 3.17304 27.6086 3.26367C27.5012 4.54054 26.1946 4.75904 26.1394 4.76767C26.044 4.78204 25.9752 4.86642 25.9802 4.96267C25.9852 5.05892 26.0624 5.13567 26.1587 5.14029C27.2871 5.19342 27.596 6.73017 27.5989 6.74567C27.6161 6.83454 27.6939 6.89779 27.783 6.89779C27.7882 6.89779 27.7935 6.89754 27.7987 6.89717C27.8944 6.88917 27.9684 6.81054 27.9706 6.71479C27.9947 5.65117 29.4945 5.11767 29.5096 5.11242C29.5941 5.08304 29.6461 4.99817 29.6339 4.90954C29.6215 4.82104 29.5486 4.75342 29.4594 4.74804ZM27.7635 6.04129C27.594 5.64992 27.2999 5.17792 26.8151 4.93179C27.1815 4.75617 27.6162 4.44267 27.8404 3.89767C28.0342 4.28154 28.3652 4.75767 28.8821 4.98792C28.5062 5.19292 28.0169 5.53867 27.7635 6.04129Z" fill="#3A312A"/>
<path d="M25.0827 5.40225C24.9965 6.42463 23.9312 6.58613 23.9312 6.58613C24.8459 6.62913 25.0739 7.82913 25.0739 7.82913C25.0934 6.9735 26.2517 6.5735 26.2517 6.5735C25.384 6.5215 25.0827 5.40225 25.0827 5.40225Z" fill="#D7E057"/>
<path d="M26.2628 6.38641C25.5419 6.34329 25.2662 5.36329 25.2634 5.35341C25.2398 5.26566 25.1557 5.20829 25.0658 5.21566C24.975 5.22391 24.9033 5.29604 24.8957 5.38666C24.8234 6.24554 23.9399 6.39504 23.903 6.40091C23.8077 6.41529 23.7389 6.49966 23.7439 6.59604C23.7489 6.69229 23.826 6.76904 23.9224 6.77366C24.6768 6.80916 24.8878 7.85416 24.8897 7.86441C24.9067 7.95353 24.9845 8.01691 25.0738 8.01691C25.0789 8.01691 25.0842 8.01678 25.0893 8.01628C25.185 8.00841 25.2592 7.92953 25.2614 7.83366C25.2777 7.11991 26.3029 6.75441 26.313 6.75091C26.3975 6.72166 26.4497 6.63679 26.4375 6.54816C26.425 6.45941 26.3519 6.39179 26.2628 6.38641ZM25.0647 7.23578C24.9492 7.00004 24.7722 6.74241 24.5088 6.57579C24.7407 6.44566 24.9709 6.24704 25.1175 5.96116C25.2498 6.19541 25.4494 6.45554 25.7352 6.61416C25.5039 6.75179 25.2367 6.95679 25.0647 7.23578Z" fill="#3A312A"/>
<path d="M25.0827 2.06989C24.9965 3.09226 23.9312 3.25376 23.9312 3.25376C24.8459 3.29676 25.0739 4.49676 25.0739 4.49676C25.0934 3.64113 26.2517 3.24114 26.2517 3.24114C25.384 3.18914 25.0827 2.06989 25.0827 2.06989Z" fill="#D7E057"/>
<path d="M26.2628 3.054C25.5419 3.01087 25.2662 2.03087 25.2634 2.02087C25.2398 1.93312 25.1557 1.87587 25.0658 1.88312C24.975 1.89125 24.9033 1.9635 24.8957 2.05412C24.8234 2.913 23.9399 3.0625 23.903 3.06837C23.8077 3.08275 23.7389 3.16712 23.7439 3.26337C23.7489 3.35962 23.826 3.43637 23.9224 3.441C24.6768 3.4765 24.8878 4.5215 24.8897 4.53175C24.9067 4.62087 24.9845 4.68425 25.0738 4.68425C25.0789 4.68425 25.0842 4.684 25.0893 4.68362C25.185 4.67562 25.2592 4.59687 25.2614 4.501C25.2777 3.78737 26.3029 3.42175 26.3129 3.41825C26.3975 3.389 26.4497 3.30412 26.4375 3.2155C26.425 3.127 26.3519 3.05937 26.2628 3.054ZM25.0647 3.90337C24.9492 3.66762 24.7722 3.41 24.5088 3.24337C24.7407 3.11325 24.9709 2.91462 25.1175 2.62887C25.2498 2.863 25.4494 3.12312 25.7352 3.28187C25.5039 3.41925 25.2367 3.62437 25.0647 3.90337Z" fill="#3A312A"/>
<path d="M27.1135 11.3247L18.3176 27.002L20.3904 28.165L29.1863 12.4877L27.1135 11.3247Z" fill="#8AC6DD"/>
<path d="M29.2791 12.3246L27.2063 11.1616C27.1629 11.1374 27.1119 11.1313 27.0637 11.1446C27.0158 11.158 26.9753 11.19 26.9509 11.2334L18.1546 26.9108C18.1303 26.9541 18.1242 27.0054 18.1376 27.0533C18.1511 27.1011 18.1829 27.1416 18.2263 27.166L20.2992 28.329C20.3282 28.3453 20.3597 28.353 20.3908 28.353C20.4563 28.353 20.5201 28.3185 20.5546 28.2571L29.3508 12.5799C29.4016 12.4896 29.3693 12.3753 29.2791 12.3246ZM20.3193 27.9101L18.5734 26.9306L27.1863 11.5804L28.9321 12.5599L20.3193 27.9101Z" fill="#3A312A"/>
<path d="M24.8835 15.3002L20.5476 23.0283L22.6204 24.1913L26.9563 16.4631L24.8835 15.3002Z" fill="#D7E057"/>
<path d="M27.0494 16.2993L24.9767 15.1363C24.9333 15.112 24.8823 15.1058 24.834 15.1193C24.7862 15.1326 24.7457 15.1646 24.7213 15.208L20.385 22.9361C20.3344 23.0264 20.3667 23.1408 20.4568 23.1914L22.5295 24.3544C22.5579 24.3703 22.5894 24.3784 22.6213 24.3784C22.6383 24.3784 22.6553 24.3761 22.672 24.3714C22.7199 24.3579 22.7604 24.326 22.7848 24.2826L27.1209 16.5545C27.1718 16.4641 27.1395 16.3499 27.0494 16.2993ZM22.5497 23.9356L20.8039 22.9561L24.9567 15.555L26.7024 16.5345L22.5497 23.9356Z" fill="#3A312A"/>
<path d="M29.1519 10.1238C28.5795 9.80268 27.8551 10.0063 27.534 10.5787L27.1152 11.3251L29.1881 12.4881L29.6069 11.7417C29.9279 11.1693 29.7242 10.4449 29.1519 10.1238Z" fill="#F16C7A"/>
<path d="M29.2427 9.96103C28.5811 9.5899 27.7406 9.82603 27.3695 10.4877L26.9507 11.234C26.9001 11.3244 26.9323 11.4387 27.0225 11.4893L29.0952 12.6523C29.1236 12.6682 29.1551 12.6763 29.187 12.6763C29.204 12.6763 29.221 12.674 29.2377 12.6693C29.2856 12.6559 29.3261 12.6239 29.3505 12.5805L29.7692 11.8342C30.1406 11.1725 29.9043 10.3322 29.2427 9.96103ZM29.4422 11.6507L29.1153 12.2335L27.3696 11.254L27.6966 10.6712C27.9665 10.1899 28.578 10.0179 29.0591 10.288C29.2922 10.4188 29.4606 10.6327 29.5328 10.89C29.6053 11.1474 29.5731 11.4175 29.4422 11.6507Z" fill="#3A312A"/>
<path d="M18.3188 27.0027L18.2221 29.0306C18.2097 29.2887 18.4973 29.4501 18.7112 29.3051L20.3916 28.1657L18.3188 27.0027Z" fill="#87796F"/>
<path d="M20.4825 28.0014L18.4097 26.8384C18.3528 26.8067 18.2838 26.8064 18.227 26.8379C18.1702 26.8694 18.1337 26.928 18.1307 26.993L18.034 29.0209C18.0249 29.2117 18.1227 29.3883 18.2893 29.4817C18.3662 29.5249 18.4505 29.5463 18.5348 29.5463C18.6328 29.5463 18.7305 29.5172 18.8157 29.4595L20.496 28.3202C20.5499 28.2837 20.5809 28.2219 20.5782 28.157C20.5753 28.092 20.5392 28.0332 20.4825 28.0014ZM18.6052 29.1492C18.5467 29.1887 18.4929 29.1662 18.4727 29.1547C18.4523 29.1433 18.4052 29.109 18.4084 29.0388L18.4907 27.3139L20.0344 28.18L18.6052 29.1492Z" fill="#3A312A"/>
<path d="M29.2799 12.325C29.1897 12.2744 29.0753 12.3064 29.0245 12.3968C28.9739 12.487 29.0062 12.6014 29.0963 12.652C29.6494 12.9624 29.8469 13.6649 29.5365 14.2179L25.8492 20.7897C25.7985 20.8799 25.8308 20.9943 25.9209 21.0449C25.9499 21.0612 25.9814 21.0689 26.0125 21.0689C26.078 21.0689 26.1418 21.0344 26.1763 20.973L29.8637 14.4013C30.2752 13.668 30.0134 12.7365 29.2799 12.325Z" fill="#3A312A"/>
<path d="M12.4266 8.42916C9.10312 8.41166 6.42562 11.03 6.37237 14.3532C6.34512 16.0543 7.02375 17.5964 8.13412 18.7073C8.468 19.0413 8.7445 19.4219 8.95637 19.8334L9.35287 20.9637C9.40612 21.231 9.43437 21.5047 9.43437 21.7822V21.8158H15.354V21.7867C15.354 20.6514 15.7919 19.5507 16.6039 18.7573C17.7224 17.6642 18.417 16.1395 18.417 14.4519C18.417 11.1364 15.738 8.44666 12.4266 8.42916Z" fill="#FCE8CB"/>
<path d="M12.4267 8.24216C12.4152 8.24216 12.4037 8.24216 12.392 8.24216C8.9628 8.24216 6.23893 10.9189 6.18393 14.3507C6.1568 16.0467 6.80193 17.6412 8.00055 18.8403C8.31555 19.1554 8.57868 19.5147 8.7828 19.9083L9.17055 21.0137C9.22055 21.2694 9.24605 21.528 9.24605 21.7827V21.8163C9.24605 21.9199 9.32993 22.0038 9.43355 22.0038H15.3532C15.4568 22.0038 15.5407 21.9199 15.5407 21.8163V21.7872C15.5407 20.6883 15.9755 19.633 16.734 18.8918C17.9395 17.7137 18.6035 16.137 18.6035 14.4523C18.6037 11.046 15.8328 8.26003 12.4267 8.24216ZM16.4719 18.6237C15.6784 19.3992 15.2084 20.4869 15.1684 21.6288H9.6183C9.6098 21.3955 9.58218 21.1604 9.53593 20.9277C9.53418 20.919 9.53193 20.9105 9.52893 20.9022L9.13243 19.7718C9.12955 19.7637 9.12618 19.7558 9.12218 19.748C8.89943 19.3154 8.6113 18.9208 8.2658 18.5752C7.13955 17.4484 6.5333 15.9503 6.55893 14.3567C6.61068 11.1319 9.1698 8.61716 12.3923 8.61716C12.4029 8.61716 12.4142 8.61716 12.4248 8.61716C15.625 8.63391 18.2287 11.2517 18.2287 14.4523C18.2287 16.0353 17.6048 17.5167 16.4719 18.6237Z" fill="#3A312A"/>
<path d="M15.1715 21.8159H9.61678C9.2899 21.8159 9.0249 22.0809 9.0249 22.4078C9.0249 22.7347 9.2899 22.9997 9.61678 22.9997H15.1715C15.4984 22.9997 15.7634 22.7347 15.7634 22.4078C15.7634 22.0809 15.4984 21.8159 15.1715 21.8159Z" fill="#87796F"/>
<path d="M15.1715 21.6284H9.61678C9.18703 21.6284 8.8374 21.9781 8.8374 22.4078C8.8374 22.8376 9.18703 23.1872 9.61678 23.1872H15.1715C15.6013 23.1872 15.9509 22.8376 15.9509 22.4078C15.9509 21.9781 15.6013 21.6284 15.1715 21.6284ZM15.1715 22.8122H9.61678C9.39378 22.8122 9.2124 22.6308 9.2124 22.4078C9.2124 22.1848 9.39378 22.0034 9.61678 22.0034H15.1715C15.3945 22.0034 15.5759 22.1848 15.5759 22.4078C15.5759 22.6308 15.3945 22.8122 15.1715 22.8122Z" fill="#3A312A"/>
<path d="M15.1715 23.0004H9.61678C9.2899 23.0004 9.0249 23.2654 9.0249 23.5922C9.0249 23.9191 9.2899 24.1841 9.61678 24.1841H15.1715C15.4984 24.1841 15.7634 23.9191 15.7634 23.5922C15.7634 23.2654 15.4984 23.0004 15.1715 23.0004Z" fill="#87796F"/>
<path d="M15.1715 22.8129H9.61678C9.18703 22.8129 8.8374 23.1625 8.8374 23.5922C8.8374 24.022 9.18703 24.3716 9.61678 24.3716H15.1715C15.6013 24.3716 15.9509 24.022 15.9509 23.5922C15.9509 23.1625 15.6013 22.8129 15.1715 22.8129ZM15.1715 23.9966H9.61678C9.39378 23.9966 9.2124 23.8152 9.2124 23.5922C9.2124 23.3692 9.39378 23.1879 9.61678 23.1879H15.1715C15.3945 23.1879 15.5759 23.3692 15.5759 23.5922C15.5759 23.8152 15.3945 23.9966 15.1715 23.9966Z" fill="#3A312A"/>
<path d="M9.68213 24.1835C9.68213 24.8299 10.2061 25.354 10.8526 25.354H13.935C14.5814 25.354 15.1055 24.83 15.1055 24.1835H9.68213Z" fill="#87796F"/>
<path d="M15.1054 23.996H9.68213C9.5785 23.996 9.49463 24.0799 9.49463 24.1835C9.49463 24.9323 10.1039 25.5415 10.8526 25.5415H11.6733C11.7769 25.5415 11.8608 25.4577 11.8608 25.354C11.8608 25.2504 11.7769 25.1665 11.6733 25.1665H10.8526C10.3748 25.1665 9.97538 24.8237 9.88763 24.371H14.9001C14.8124 24.8237 14.413 25.1665 13.9351 25.1665H13.4461C13.3425 25.1665 13.2586 25.2504 13.2586 25.354C13.2586 25.4577 13.3425 25.5415 13.4461 25.5415H13.9351C14.6839 25.5415 15.2931 24.9323 15.2931 24.1835C15.2929 24.0799 15.209 23.996 15.1054 23.996Z" fill="#3A312A"/>
<path d="M12.3938 6.45779C12.2902 6.45779 12.2063 6.54167 12.2063 6.64529V7.63004C12.2063 7.73367 12.2902 7.81754 12.3938 7.81754C12.4974 7.81754 12.5813 7.73367 12.5813 7.63004V6.64529C12.5813 6.54167 12.4973 6.45779 12.3938 6.45779Z" fill="#3A312A"/>
<path d="M14.9349 6.86894C14.8361 6.83632 14.7304 6.88957 14.6979 6.98782L14.3878 7.92244C14.3551 8.02081 14.4084 8.12681 14.5066 8.15944C14.5263 8.16594 14.5461 8.16906 14.5658 8.16906C14.6444 8.16906 14.7176 8.11931 14.7438 8.04056L15.054 7.10594C15.0864 7.00769 15.0333 6.90157 14.9349 6.86894Z" fill="#3A312A"/>
<path d="M17.2179 8.05913C17.1349 7.99713 17.0174 8.01425 16.9554 8.09725L16.3665 8.88637C16.3047 8.96937 16.3218 9.08687 16.4047 9.14875C16.4383 9.17387 16.4777 9.186 16.5167 9.186C16.5738 9.186 16.6302 9.16 16.667 9.11062L17.2559 8.3215C17.3179 8.2385 17.3008 8.121 17.2179 8.05913Z" fill="#3A312A"/>
<path d="M19.009 9.90823C18.9495 9.82323 18.8327 9.80248 18.7479 9.86173L17.9404 10.4252C17.8554 10.4845 17.8346 10.6014 17.8939 10.6862C17.9304 10.7385 17.9886 10.7665 18.0479 10.7665C18.085 10.7665 18.1224 10.7556 18.155 10.7327L18.9625 10.1692C19.0475 10.11 19.0682 9.99311 19.009 9.90823Z" fill="#3A312A"/>
<path d="M20.1263 12.2276C20.0969 12.1284 19.9926 12.0723 19.8931 12.1013L18.9493 12.3818C18.85 12.4113 18.7935 12.5156 18.823 12.6149C18.8471 12.6964 18.9218 12.749 19.0026 12.749C19.0204 12.749 19.0384 12.7464 19.0563 12.7413L20 12.4608C20.0993 12.4313 20.1558 12.3269 20.1263 12.2276Z" fill="#3A312A"/>
<path d="M20.2757 14.5875L19.2916 14.5562C19.1877 14.5532 19.1015 14.6341 19.0982 14.7376C19.095 14.8411 19.1761 14.9277 19.2796 14.931L20.2637 14.9622C20.2659 14.9622 20.2677 14.9623 20.2699 14.9623C20.3707 14.9623 20.454 14.8822 20.4571 14.7808C20.4605 14.6773 20.3792 14.5907 20.2757 14.5875Z" fill="#3A312A"/>
<path d="M19.8535 17.0664L18.9293 16.7268C18.8319 16.6906 18.7243 16.7408 18.6885 16.838C18.6529 16.9353 18.7026 17.043 18.7999 17.0786L19.724 17.4183C19.7454 17.4261 19.7673 17.4299 19.7888 17.4299C19.865 17.4299 19.9369 17.3829 19.9648 17.307C20.0005 17.2098 19.9506 17.102 19.8535 17.0664Z" fill="#3A312A"/>
<path d="M18.674 19.2871L17.9039 18.6736C17.8229 18.6091 17.7049 18.6225 17.6405 18.7035C17.5759 18.7845 17.5893 18.9025 17.6703 18.967L18.4404 19.5805C18.4749 19.608 18.5163 19.6213 18.5572 19.6213C18.6123 19.6213 18.6669 19.5972 18.7039 19.5507C18.7684 19.4696 18.755 19.3516 18.674 19.2871Z" fill="#3A312A"/>
<path d="M10.4003 7.92255L10.0901 6.98793C10.0575 6.88968 9.95133 6.8363 9.85308 6.86905C9.75483 6.90168 9.70158 7.0078 9.73421 7.10605L10.0443 8.04068C10.0705 8.1193 10.1437 8.16918 10.2223 8.16918C10.2418 8.16918 10.2618 8.16605 10.2815 8.15955C10.3797 8.12693 10.433 8.02093 10.4003 7.92255Z" fill="#3A312A"/>
<path d="M8.42104 8.88653L7.83216 8.09741C7.77029 8.01428 7.65266 7.99728 7.56978 8.05928C7.48678 8.12128 7.46966 8.23866 7.53166 8.32166L8.12054 9.11078C8.15729 9.16016 8.21379 9.18616 8.27091 9.18616C8.30991 9.18616 8.34929 9.17403 8.38291 9.14891C8.46591 9.08703 8.48304 8.96953 8.42104 8.88653Z" fill="#3A312A"/>
<path d="M6.84701 10.4256L6.03963 9.8621C5.95488 9.80285 5.83788 9.8236 5.77863 9.9086C5.71938 9.99347 5.74013 10.1103 5.82513 10.1696L6.63251 10.7331C6.66513 10.756 6.70251 10.7668 6.73963 10.7668C6.79888 10.7668 6.85713 10.7388 6.89351 10.6866C6.95276 10.6017 6.93201 10.4848 6.84701 10.4256Z" fill="#3A312A"/>
<path d="M5.83838 12.3813L4.8945 12.1008C4.79538 12.0711 4.69088 12.128 4.66138 12.2272C4.63188 12.3265 4.6885 12.4308 4.78775 12.4603L5.73163 12.7408C5.7495 12.7461 5.76738 12.7486 5.78513 12.7486C5.866 12.7486 5.94063 12.6958 5.96488 12.6145C5.99425 12.5152 5.93763 12.4108 5.83838 12.3813Z" fill="#3A312A"/>
<path d="M5.49653 14.5558L4.5124 14.5871C4.4089 14.5903 4.32765 14.677 4.3309 14.7805C4.33403 14.8818 4.4174 14.962 4.51816 14.962C4.52016 14.962 4.52216 14.9618 4.52416 14.9618L5.50828 14.9306C5.61178 14.9273 5.69303 14.8407 5.68978 14.7372C5.68666 14.6338 5.60153 14.5535 5.49653 14.5558Z" fill="#3A312A"/>
<path d="M6.09873 16.8387C6.06298 16.7415 5.95548 16.6915 5.85811 16.7275L4.93386 17.0671C4.83673 17.1029 4.78686 17.2106 4.82261 17.3077C4.85048 17.3836 4.92223 17.4306 4.99861 17.4306C5.02011 17.4306 5.04198 17.4269 5.06336 17.419L5.98761 17.0794C6.08461 17.0437 6.13448 16.936 6.09873 16.8387Z" fill="#3A312A"/>
<path d="M7.14852 18.7043C7.08402 18.6233 6.96602 18.61 6.88502 18.6744L6.11489 19.2879C6.03389 19.3525 6.02052 19.4704 6.08502 19.5514C6.12202 19.5979 6.17664 19.622 6.23177 19.622C6.27277 19.622 6.31402 19.6086 6.34852 19.5811L7.11864 18.9676C7.19964 18.9033 7.21302 18.7853 7.14852 18.7043Z" fill="#3A312A"/>
<path d="M19.4596 2.25739H17.5846C19.2446 2.25739 20.5959 3.60739 20.5959 5.26864V19.2186L18.5096 22.9361L16.2796 26.9111C16.2734 26.9224 16.2684 26.9336 16.2646 26.9461C16.2646 26.9474 16.2646 26.9486 16.2634 26.9499C16.2596 26.9624 16.2584 26.9761 16.2571 26.9886C16.2571 26.9899 16.2559 26.9924 16.2559 26.9936L16.1596 29.0211C16.1496 29.2124 16.2484 29.3886 16.4146 29.4824C16.4921 29.5261 16.5759 29.5474 16.6596 29.5474C16.7584 29.5474 16.8559 29.5174 16.9409 29.4599L18.0496 28.7086L18.1309 26.9936C18.1309 26.9924 18.1321 26.9899 18.1321 26.9886C18.1334 26.9761 18.1346 26.9624 18.1384 26.9499C18.1396 26.9486 18.1396 26.9474 18.1396 26.9461C18.1434 26.9336 18.1484 26.9224 18.1546 26.9111L20.3846 22.9361L22.4709 19.2186V5.26864C22.471 3.60739 21.1196 2.25739 19.4596 2.25739Z" fill="#D34E5C"/>
<path d="M20.5542 28.2575C20.5517 28.2625 20.548 28.2663 20.5442 28.27C20.5392 28.2788 20.5342 28.2863 20.5267 28.2938C20.5217 28.2988 20.5155 28.3038 20.5092 28.3088C20.5055 28.3125 20.5017 28.3175 20.4955 28.3213L19.7317 28.8388C19.1855 29.3963 18.4242 29.7425 17.5842 29.7425H19.4592C21.1192 29.7425 22.4705 28.3925 22.4705 26.7313V24.8425L20.5542 28.2575Z" fill="#D34E5C"/>
</svg>
