<svg width="30" height="30" viewBox="0 0 30 30" fill="none" xmlns="http://www.w3.org/2000/svg">
<path d="M17.2876 23.7501C17.1008 23.7507 16.9163 23.7095 16.7476 23.6295C16.5789 23.5494 16.4302 23.4326 16.3126 23.2876L10.2751 15.7876C10.0912 15.5639 9.99072 15.2834 9.99072 14.9938C9.99072 14.7043 10.0912 14.4237 10.2751 14.2001L16.5251 6.70007C16.7373 6.4448 17.0421 6.28427 17.3727 6.25379C17.7032 6.22332 18.0323 6.3254 18.2876 6.53757C18.5429 6.74974 18.7034 7.05463 18.7339 7.38517C18.7643 7.7157 18.6623 8.0448 18.4501 8.30007L12.8626 15.0001L18.2626 21.7001C18.4154 21.8836 18.5125 22.107 18.5424 22.3439C18.5722 22.5808 18.5336 22.8214 18.431 23.037C18.3284 23.2527 18.1662 23.4345 17.9636 23.5608C17.761 23.6872 17.5264 23.7529 17.2876 23.7501Z" fill="#013551"/>
</svg>
