<svg width="20" height="21" viewBox="0 0 20 21" fill="none" xmlns="http://www.w3.org/2000/svg">
<path d="M13.85 2.61644C13.7532 2.51458 13.6383 2.43377 13.5117 2.37863C13.3852 2.32349 13.2495 2.2951 13.1125 2.2951C12.9755 2.2951 12.8398 2.32349 12.7133 2.37863C12.5867 2.43377 12.4718 2.51458 12.375 2.61644L5.45 9.88768C5.37275 9.96863 5.31146 10.0648 5.26964 10.1706C5.22782 10.2765 5.2063 10.39 5.2063 10.5046C5.2063 10.6192 5.22782 10.7326 5.26964 10.8385C5.31146 10.9443 5.37275 11.0405 5.45 11.1214L12.375 18.3927C12.7833 18.8214 13.4417 18.8214 13.85 18.3927C14.2583 17.9639 14.2583 17.2727 13.85 16.8439L7.81667 10.5002L13.8583 4.15644C14.2583 3.73644 14.2583 3.03644 13.85 2.61644Z" fill="#F17720"/>
</svg>
