<svg width="267" height="62" viewBox="0 0 267 62" fill="none" xmlns="http://www.w3.org/2000/svg">
<path d="M5.95659 4.02504C8.6217 1.60956 12.1379 0.14743 15.7374 0.00240537C17.3969 0.00478281 19.0587 0.0095377 20.7205 2.79215e-05C26.6118 -0.0118593 32.2535 3.77303 34.5929 9.15795C35.7911 11.8112 36.1834 14.8139 35.7935 17.6954C35.4369 20.2059 34.4455 22.6024 32.9834 24.6732C30.6725 27.8138 27.1705 30.0771 23.3214 30.7665C20.7443 31.2753 18.103 30.8569 15.5068 31.1137C12.4874 31.5107 10.1504 34.3161 10.0387 37.3164C10.0149 40.8945 10.041 44.4725 10.0268 48.0482C7.01931 48.053 4.01184 48.0506 1.00437 48.0506C1.0115 43.9947 1.0329 39.9387 0.992484 35.8852C1.33721 32.0884 3.1512 28.4414 5.98512 25.8928C8.26747 23.8292 11.1584 22.4526 14.2087 22.0199C16.1297 21.7679 18.072 21.9129 20.0073 21.882C22.1684 21.97 24.3961 20.9548 25.6038 19.1337C26.7093 17.6145 27.0992 15.5628 26.5191 13.7607C26.0246 11.9443 24.6433 10.4061 22.9149 9.67623C21.0343 8.81322 18.9232 9.27444 16.9309 9.15557C14.1065 8.91069 11.3082 10.8293 10.4214 13.5015C9.95545 15.054 10.0244 16.7063 10.022 18.3111C7.0098 18.3111 3.99995 18.3111 0.987729 18.3111C0.990106 16.9583 0.987729 15.608 0.985352 14.2576C1.23736 10.3704 3.10365 6.6545 5.95659 4.02504Z" fill="url(#paint0_linear_1_187)"/>
<path d="M0.989926 52.7958C4.03543 52.8196 7.08094 52.7577 10.1264 52.8267C7.10472 55.9031 4.03543 58.9343 0.987549 61.9846C0.989926 58.9225 0.985171 55.8579 0.989926 52.7958Z" fill="#FA3D66"/>
<path d="M191.982 13.2273C193.908 12.5877 196.25 13.6671 196.951 15.5833C197.324 16.7649 197.274 18.1462 196.601 19.2161C195.7 20.5593 193.962 21.313 192.37 20.9611C191.007 20.6639 189.731 19.6702 189.348 18.2936C189.11 17.3973 189.122 16.4226 189.431 15.5453C189.838 14.416 190.867 13.6005 191.982 13.2273Z" fill="#FFC954"/>
<path d="M205.964 24.3416C208.981 22.7202 212.575 22.5133 215.901 23.0625C219.097 23.5951 222.125 25.4851 223.687 28.369C225.24 31.2195 225.254 34.6074 224.798 37.7409C218.89 37.7718 212.984 37.7409 207.079 37.7551C207.461 40.0541 209.668 41.5733 211.867 41.8515C214.606 42.2128 217.663 41.9085 219.872 40.0922C221.182 41.559 222.504 43.0164 223.816 44.4809C221.006 47.2625 216.881 48.1255 213.051 48.0328C209.437 48.0067 205.609 46.9321 203.12 44.1742C200.243 41.1121 199.554 36.5854 200.196 32.5628C200.731 29.1298 202.897 25.9892 205.964 24.3416ZM211.258 28.9372C209.325 29.2914 207.633 30.725 207.088 32.6294C210.897 32.6365 214.705 32.6365 218.514 32.6294C218.421 31.6594 217.998 30.6989 217.197 30.1093C215.519 28.8611 213.277 28.5806 211.258 28.9372Z" fill="#FFC954"/>
<path d="M158.146 23.4226C160.78 23.4226 163.415 23.4202 166.049 23.4226C168.265 28.9597 170.388 34.5324 172.33 40.1717C174.27 34.53 176.391 28.9573 178.616 23.4203C181.25 23.4345 183.887 23.3989 186.521 23.4393C183.052 31.4988 179.634 39.5821 176.182 47.6488C173.616 47.6535 171.049 47.6464 168.481 47.6535C165.031 39.5774 161.589 31.5012 158.146 23.4226Z" fill="#FFC954"/>
<path d="M189.666 23.3782C192.01 23.3782 194.355 23.3663 196.701 23.3853C196.689 31.4235 196.701 39.4616 196.694 47.4997C194.352 47.4997 192.01 47.4974 189.669 47.5021C189.664 39.4616 189.669 31.4187 189.666 23.3782Z" fill="#FFC954"/>
<path d="M226.698 23.4213C229.315 23.419 231.933 23.4213 234.55 23.4213C235.482 26.1602 236.412 28.899 237.344 31.6402C238.176 33.9724 238.758 36.3832 239.469 38.7535C241.003 33.6444 242.562 28.54 244.081 23.4237C245.924 23.4166 247.766 23.419 249.609 23.4237C251.145 28.5352 252.688 33.6444 254.231 38.7559C254.939 36.3713 255.531 33.9534 256.366 31.6093C257.293 28.88 258.218 26.1507 259.147 23.4213C261.765 23.419 264.382 23.4213 267 23.4213C264.028 31.4975 261.056 39.5761 258.08 47.6499C255.755 47.6475 253.432 47.6499 251.109 47.6475C249.68 43.6415 248.256 39.6331 246.825 35.6271C245.41 39.6331 244.003 43.6439 242.588 47.6499C240.249 47.6499 237.91 47.6475 235.57 47.6499C232.608 39.5761 229.655 31.4975 226.698 23.4213Z" fill="#FFC954"/>
<path d="M46.9176 13.3849C52.6115 13.3896 58.3031 13.3777 63.9947 13.3896C66.9975 13.4134 70.1095 14.1123 72.5298 15.9691C74.0371 17.1008 75.0689 18.8173 75.3946 20.6717C75.7583 22.6997 75.6228 24.9226 74.5173 26.7104C73.7209 28.0252 72.437 28.9571 71.0724 29.618C72.9577 30.2885 74.6172 31.6341 75.5301 33.4315C77.6817 37.3447 76.5572 42.8818 72.7842 45.39C70.352 47.009 67.3517 47.4417 64.4893 47.4964C58.6312 47.5083 52.7756 47.4988 46.9176 47.5012C46.9176 36.1299 46.9152 24.7562 46.9176 13.3849ZM54.3851 19.9751C54.3827 22.1957 54.3804 24.4162 54.3851 26.6367C57.345 26.6415 60.3049 26.6343 63.2649 26.6415C64.5344 26.6439 65.9133 26.5773 66.9856 25.8141C68.2551 24.875 68.3574 22.9113 67.5704 21.6298C66.8144 20.434 65.3237 19.9918 63.9805 19.9799C60.7804 19.968 57.5828 19.9775 54.3851 19.9751ZM54.3851 32.9845C54.3827 35.6116 54.3804 38.2387 54.3851 40.8657C57.5875 40.8634 60.79 40.8752 63.99 40.861C65.5139 40.8324 67.2851 40.5115 68.1838 39.1421C69.1181 37.573 68.9327 35.255 67.4539 34.0734C66.3627 33.1771 64.8934 32.9845 63.5288 32.9821C60.4809 32.9845 57.433 32.9821 54.3851 32.9845Z" fill="#013551"/>
<path d="M142.403 17.6264C144.742 17.3673 147.079 17.1058 149.421 16.8466C149.423 19.0885 149.421 21.3281 149.423 23.5677C151.451 23.5748 153.482 23.5677 155.512 23.57C155.514 25.5219 155.517 27.4738 155.512 29.4257C153.467 29.4257 151.423 29.4233 149.378 29.4281C149.385 32.5354 149.364 35.6427 149.388 38.75C149.381 39.8817 149.863 41.2059 151.057 41.5459C152.374 41.8787 153.788 41.6362 155.034 41.1298C155.569 43.0746 156.102 45.0217 156.639 46.9665C154.188 47.8865 151.499 48.3002 148.898 47.8937C146.837 47.5585 144.804 46.4577 143.729 44.6152C142.698 42.8511 142.436 40.759 142.405 38.7476C142.393 35.6403 142.405 32.533 142.4 29.4281C140.972 29.4233 139.543 29.4257 138.116 29.4257C138.112 27.4738 138.114 25.5243 138.116 23.5724C139.543 23.5677 140.972 23.5748 142.4 23.5677C142.403 21.5872 142.398 19.6068 142.403 17.6264Z" fill="#013551"/>
<path d="M85.77 24.4095C88.7584 22.7525 92.3436 22.5195 95.6673 23.0354C98.8578 23.5299 101.906 25.3558 103.52 28.2039C105.16 31.083 105.203 34.5589 104.711 37.7541C98.8079 37.7589 92.9071 37.747 87.0062 37.7589C87.3914 40.0626 89.6072 41.5842 91.8134 41.8576C94.5499 42.2142 97.593 41.9004 99.8017 40.0983C101.109 41.5652 102.431 43.0178 103.741 44.4847C100.874 47.321 96.6468 48.1602 92.7454 48.0271C89.1554 47.9676 85.3729 46.836 82.9432 44.0639C80.1449 40.9922 79.4888 36.525 80.1259 32.5452C80.6585 29.1668 82.7696 26.0714 85.77 24.4095ZM91.0431 28.9695C89.1673 29.357 87.5507 30.7763 87.0134 32.6308C90.8244 32.6379 94.6331 32.6403 98.4418 32.6284C98.3443 31.6013 97.8617 30.5933 96.9891 30.0084C95.2774 28.8292 93.0473 28.5701 91.0431 28.9695Z" fill="#013551"/>
<path d="M110.911 27.2188C113.165 24.4182 116.75 22.8776 120.316 22.8895C123.164 22.7777 126.376 23.6455 128.014 26.1585C128.081 25.2479 128.166 24.3373 128.245 23.4244C130.439 23.4173 132.634 23.422 134.83 23.422C134.83 31.4483 134.833 39.4745 134.828 47.5008C132.714 47.4984 130.601 47.5032 128.49 47.5008C128.361 46.5023 128.226 45.5085 128.112 44.51C126.74 46.6045 124.253 47.584 121.869 47.943C118.31 48.3567 114.484 47.3653 111.871 44.8333C109.596 42.7316 108.453 39.6433 108.305 36.5931C108.091 33.3074 108.759 29.8055 110.911 27.2188ZM119.479 29.3965C117.537 29.9933 115.937 31.6409 115.497 33.6379C115.057 35.6492 115.276 37.9553 116.631 39.5886C119.042 42.5414 124.215 42.5676 126.583 39.5411C129.029 36.75 128.19 31.9071 125.08 29.9576C123.414 28.9662 121.312 28.8664 119.479 29.3965Z" fill="#013551"/>
<path d="M23.3215 30.7667C27.1706 30.0772 30.6725 27.8139 32.9834 24.6733C35.727 26.6275 37.8691 29.4424 38.8842 32.6662C40.1704 36.6461 39.752 41.1418 37.7264 44.8031C35.1683 49.5794 29.9498 52.7842 24.5245 52.846C19.7244 52.8436 14.9243 52.8793 10.1267 52.827C7.08115 52.758 4.03565 52.8199 0.990138 52.7961C0.990138 51.2127 0.975874 49.6317 1.0044 48.0507C4.01187 48.0507 7.01934 48.0531 10.0268 48.0483C10.0411 44.4726 10.0149 40.8946 10.0387 37.3165C10.1504 34.3162 12.4875 31.5108 15.5068 31.1138C18.103 30.857 20.7443 31.2754 23.3215 30.7667ZM22.2445 31.2612C18.9684 32.2074 16.9285 36.0161 18.015 39.2637C18.9494 42.6087 22.884 44.6771 26.1649 43.4931C29.3863 42.5089 31.3644 38.7406 30.3017 35.5311C29.3792 32.2122 25.5182 30.1319 22.2445 31.2612Z" fill="#013551"/>
<defs>
<linearGradient id="paint0_linear_1_187" x1="18.4621" y1="0" x2="18.4621" y2="48.0512" gradientUnits="userSpaceOnUse">
<stop stop-color="#FECB56"/>
<stop offset="1" stop-color="#FB5663"/>
</linearGradient>
</defs>
</svg>
