<svg width="46" height="46" viewBox="0 0 46 46" fill="none" xmlns="http://www.w3.org/2000/svg">
<g clip-path="url(#clip0_1_1015)">
<path d="M22.6685 0.0746102H11.8162C11.0227 0.0746102 10.3794 0.717891 10.3794 1.51139V7.74313C10.3794 8.53663 11.0227 9.17991 11.8162 9.17991H11.8864C12.1867 9.17991 12.4302 9.4233 12.4302 9.72365V11.5426C12.4302 11.8278 12.7617 11.9846 12.9822 11.8037L16.0301 9.30327C16.1273 9.22349 16.2492 9.17991 16.3749 9.17991H22.6685C23.462 9.17991 24.1053 8.53663 24.1053 7.74313V1.51139C24.1053 0.717891 23.462 0.0746102 22.6685 0.0746102Z" fill="#80CDA5"/>
<path d="M22.9031 4.67176H33.7554C34.5489 4.67176 35.1922 5.31504 35.1922 6.10854V12.5872C35.1922 13.3807 34.5489 14.024 33.7554 14.024H33.6851C33.3849 14.024 33.1414 14.2673 33.1414 14.5677V16.3867C33.1414 16.6718 32.8099 16.8286 32.5894 16.6478L29.5415 14.1473C29.4442 14.0675 29.3223 14.024 29.1966 14.024H22.9031C22.1096 14.024 21.4663 13.3807 21.4663 12.5872V6.10854C21.4663 5.31504 22.1096 4.67176 22.9031 4.67176Z" fill="#50B57F"/>
<path d="M20.8002 2.27934H13.1473C12.7639 2.27934 12.4531 2.59011 12.4531 2.97347C12.4531 3.35684 12.7639 3.66761 13.1473 3.66761H20.8002C21.1836 3.66761 21.4944 3.35684 21.4944 2.97347C21.4944 2.59011 21.1836 2.27934 20.8002 2.27934Z" fill="#3FA16C"/>
<path d="M18.1461 5.28322H13.1473C12.7639 5.28322 12.4531 5.59399 12.4531 5.97735C12.4531 6.36072 12.7639 6.67149 13.1473 6.67149H18.1461C18.5294 6.67149 18.8402 6.36072 18.8402 5.97735C18.8402 5.59399 18.5294 5.28322 18.1461 5.28322Z" fill="#3FA16C"/>
<path d="M32.0205 7.09232H24.3675C23.9841 7.09232 23.6733 7.40309 23.6733 7.78645C23.6733 8.16981 23.9841 8.48058 24.3675 8.48058H32.0205C32.4039 8.48058 32.7147 8.16981 32.7147 7.78645C32.7147 7.40309 32.4039 7.09232 32.0205 7.09232Z" fill="#3FA16C"/>
<path d="M29.3664 10.0971H24.3675C23.9841 10.0971 23.6733 10.4079 23.6733 10.7912C23.6733 11.1746 23.9841 11.4853 24.3675 11.4853H29.3663C29.7497 11.4853 30.0604 11.1746 30.0604 10.7912C30.0604 10.4079 29.7497 10.0971 29.3664 10.0971Z" fill="#3FA16C"/>
<path d="M35.6957 27.8931H10.0059C9.04233 27.8931 8.26123 27.112 8.26123 26.1484V25.3193H37.4404V26.1484C37.4404 27.1119 36.6593 27.8931 35.6957 27.8931Z" fill="#0E6837"/>
<path d="M9.12623 35.0966C9.04609 34.7218 8.67737 34.4827 8.30218 34.5631C7.92735 34.6434 7.68846 35.0123 7.76869 35.3872L9.90598 45.3767C9.9757 45.7027 10.2636 45.9258 10.5841 45.9258C10.6322 45.9258 10.6811 45.9207 10.73 45.9102C11.1049 45.83 11.3438 45.4611 11.2635 45.0862L9.12623 35.0966Z" fill="#DAD8DB"/>
<path d="M2.98149 34.5624C2.60666 34.4821 2.23768 34.7212 2.15744 35.0959L0.0201517 45.0856C-0.0600788 45.4605 0.178816 45.8294 0.553644 45.9096C0.602609 45.9201 0.651484 45.9252 0.69955 45.9252C1.01993 45.9252 1.30788 45.702 1.37769 45.3761L3.51498 35.3865C3.59521 35.0116 3.35632 34.6427 2.98149 34.5624Z" fill="#DAD8DB"/>
<path d="M27.5757 27.8933H18.127C18.508 29.0226 19.2819 29.9699 20.2858 30.5737C20.9444 30.9696 21.3604 31.6687 21.3604 32.4371V45.2312H24.2218V32.5137C24.2218 31.7268 24.6556 31.0139 25.3373 30.6209C26.3801 30.0199 27.1846 29.0522 27.5757 27.8933Z" fill="#DAD8DB"/>
<path d="M26.0149 44.537H19.6871C19.3037 44.537 18.9929 44.8478 18.9929 45.2312C18.9929 45.6145 19.3037 45.9253 19.6871 45.9253H26.0149C26.3983 45.9253 26.7091 45.6145 26.7091 45.2312C26.7091 44.8478 26.3983 44.537 26.0149 44.537Z" fill="#C7C5C9"/>
<path d="M10.2487 35.241H1.08982C0.489305 35.241 0.00244141 34.7542 0.00244141 34.1537V32.6671H11.3361V34.1537C11.3361 34.7543 10.8492 35.241 10.2487 35.241Z" fill="#0E6837"/>
<path d="M1.28369 27.8932V20.0283C1.28369 18.7579 1.78807 17.5395 2.68597 16.6409C3.97784 15.348 6.17128 15.6603 6.9549 17.3114L8.80936 20.5371L8.43669 27.8932" fill="#50B57F"/>
<path d="M14.6789 45.2312H13.2029C12.9241 45.2312 12.6884 45.0251 12.6511 44.7488L11.0224 32.6651H4.09005C2.54016 32.6651 1.28369 31.4086 1.28369 29.8587V27.8935H11.8962C13.7404 27.8935 15.2355 29.3886 15.2355 31.2328V44.6743C15.2356 44.9819 14.9863 45.2312 14.6789 45.2312Z" fill="#046832"/>
<path d="M5.04628 21.8673L8.26124 25.3192H16.1636C16.1636 23.8833 15.1253 22.6581 13.7089 22.4225L9.48968 21.7208L6.95456 17.3114C5.94471 16.8867 4.83775 16.8646 4.22654 17.4091C3.33763 18.201 3.35056 20.3222 5.04628 21.8673Z" fill="#409F6C"/>
<path d="M6.38656 12.138V13.4041C6.38656 14.7665 5.28337 15.8697 3.92188 15.8697C3.09721 15.8697 2.36794 15.4652 1.91998 14.8442C1.81262 14.6961 1.72188 14.5351 1.64973 14.3639C1.52575 14.0696 1.4563 13.7447 1.4563 13.4041V12.138C1.4563 10.7765 2.56048 9.67244 3.92188 9.67244C4.60218 9.67244 5.21851 9.94826 5.66467 10.3943C5.9201 10.6498 6.12 10.9617 6.24308 11.3097C6.33661 11.5679 6.38656 11.8474 6.38656 12.138Z" fill="#F7D4AD"/>
<path d="M6.24317 11.3097L6.18855 11.2995L3.93671 12.2714C3.81362 12.3241 3.71919 12.4297 3.68128 12.5592L3.58964 12.8684C3.58964 12.8684 3.41283 14.3335 2.1162 14.7861C2.04864 14.8093 1.98296 14.8287 1.91998 14.8444C1.81262 14.6964 1.72188 14.5353 1.64973 14.3641C1.52575 14.0698 1.4563 13.7449 1.4563 13.4043V12.1382C1.4563 10.7767 2.56048 9.67266 3.92188 9.67266C4.60218 9.67266 5.21851 9.94848 5.66467 10.3946C5.92019 10.6498 6.12009 10.9616 6.24317 11.3097Z" fill="#342E2E"/>
<path d="M43.3694 11.1508C44.1398 11.1508 44.7643 10.5263 44.7643 9.75596C44.7643 8.98562 44.1398 8.36114 43.3694 8.36114C42.5991 8.36114 41.9746 8.98562 41.9746 9.75596C41.9746 10.5263 42.5991 11.1508 43.3694 11.1508Z" fill="#633C3E"/>
<path d="M45.982 45.0862L43.8447 35.0966C43.7645 34.7218 43.3957 34.4827 43.0207 34.5631C42.6459 34.6434 42.407 35.0123 42.4872 35.3872L44.6245 45.3767C44.6942 45.7027 44.9821 45.9258 45.3026 45.9258C45.3507 45.9258 45.3996 45.9207 45.4485 45.9102C45.8234 45.83 46.0622 45.4611 45.982 45.0862Z" fill="#DAD8DB"/>
<path d="M37.7001 34.5624C37.325 34.4821 36.9564 34.7212 36.8761 35.0959L34.7389 45.0856C34.6587 45.4605 34.8976 45.8294 35.2724 45.9096C35.3214 45.9201 35.3702 45.9252 35.4183 45.9252C35.7387 45.9252 36.0266 45.702 36.0964 45.3761L38.2337 35.3866C38.314 35.0116 38.0751 34.6427 37.7001 34.5624Z" fill="#DAD8DB"/>
<path d="M35.7536 35.241H44.9125C45.513 35.241 45.9999 34.7542 45.9999 34.1537V32.6671H34.6663V34.1537C34.6663 34.7543 35.1531 35.241 35.7536 35.241Z" fill="#0E6837"/>
<path d="M0 32.6672V33.7728H10.1476V35.2412H10.2462C10.8467 35.2412 11.3336 34.7543 11.3336 34.1538V32.6672H0Z" fill="#0A502A"/>
<path d="M34.6643 32.6672V33.7728H44.8119V35.2412H44.9105C45.5111 35.2412 45.9979 34.7543 45.9979 34.1538V32.6672H34.6643Z" fill="#0A502A"/>
<path d="M44.7185 27.8932V20.0283C44.7185 18.7579 44.2142 17.5395 43.3163 16.6409C42.0244 15.348 39.831 15.6603 39.0473 17.3114L37.1929 20.5371L37.5655 27.8932" fill="#50B57F"/>
<path d="M31.3236 45.2312H32.7996C33.0783 45.2312 33.3141 45.0251 33.3514 44.7488L34.9801 32.6651H41.9124C43.4623 32.6651 44.7188 31.4086 44.7188 29.8587V27.8935H34.1062C32.2619 27.8935 30.7668 29.3886 30.7668 31.2328V44.6743C30.7668 44.9819 31.0162 45.2312 31.3236 45.2312Z" fill="#046832"/>
<path d="M40.956 21.8674L37.741 25.3193H29.8386C29.8386 23.8834 30.8769 22.6582 32.2933 22.4226L36.5126 21.7209L39.2211 17.0098C39.4871 16.9391 40.6826 16.649 41.4356 17.2785C42.3743 18.0634 42.4444 20.1265 40.956 21.8674Z" fill="#3FA26C"/>
<path d="M43.9779 12.1108V13.3769C43.9779 13.8517 43.8436 14.295 43.6114 14.6708C43.1783 15.3733 42.4008 15.8425 41.5132 15.8425C40.1517 15.8425 39.0476 14.7384 39.0476 13.377V12.1109C39.0476 11.898 39.0745 11.6916 39.1253 11.4945V11.4936C39.2374 11.0604 39.4631 10.6736 39.7695 10.3672C40.2166 9.92112 40.8329 9.6453 41.5132 9.6453C42.8746 9.64512 43.9779 10.7484 43.9779 12.1108Z" fill="#F7D4AD"/>
<path d="M43.978 12.1108V13.3769C43.978 13.8517 43.8437 14.295 43.6115 14.6708C43.3875 14.6254 43.1478 14.5403 42.9127 14.3941C42.0389 13.8517 41.2763 12.8688 41.2763 12.8688L41.1838 12.5596C41.1459 12.4301 41.0524 12.3245 40.9284 12.2718L39.1255 11.4944V11.4935C39.2375 11.0603 39.4633 10.6735 39.7697 10.3671C40.2167 9.92101 40.8331 9.64519 41.5134 9.64519C42.8747 9.6451 43.978 10.7484 43.978 12.1108Z" fill="#342E2E"/>
</g>
<defs>
<clipPath id="clip0_1_1015">
<rect width="46" height="46" fill="white"/>
</clipPath>
</defs>
</svg>
