<svg width="45" height="45" viewBox="0 0 45 45" fill="none" xmlns="http://www.w3.org/2000/svg">
<g clip-path="url(#clip0_1_936)">
<path d="M21.0329 40.986L17.9343 28.8733L18.4039 28.6856L21.5025 40.8921L21.0329 40.986Z" fill="#ADB3BA"/>
<path d="M9.38971 40.9858L8.92017 40.8918L10.7982 27.8402L11.2676 27.9341L9.38971 40.9858Z" fill="#ADB3BA"/>
<path d="M23.5679 40.986L20.3755 28.8733L20.8449 28.6856L24.0375 40.8921L23.5679 40.986Z" fill="#ADB3BA"/>
<path d="M11.9249 40.9858L11.4553 40.8918L13.2394 27.8402L13.7088 27.9341L11.9249 40.9858Z" fill="#ADB3BA"/>
<path d="M8.82647 27.4646C8.82647 27.5585 10.5166 28.873 13.4274 29.4364C16.3383 29.9998 23.5683 28.873 24.8828 27.934C26.1973 26.995 24.8828 22.1125 23.85 21.2674C22.8171 20.4223 21.9721 20.7979 20.8453 19.0139C19.8125 17.2298 13.0519 15.9153 10.9862 17.0421C8.9204 18.1688 6.10341 22.3002 8.82647 27.4646Z" fill="#111796"/>
<path d="M12.676 37.9809C12.676 37.9809 12.77 36.8542 12.77 36.0091C12.77 35.1641 15.0235 34.4129 15.0235 34.4129C15.0235 34.4129 15.2112 37.7932 15.3991 38.4505C15.5869 39.1078 15.5869 39.1078 15.5869 39.1078C15.5869 39.1078 13.2394 40.1405 12.676 37.9809Z" fill="#E8EAE9"/>
<path d="M12.6761 37.605C12.6761 37.605 12.8638 38.3561 13.6151 38.6378C14.3662 38.8256 15.2113 37.9805 15.3052 37.7928C15.3052 37.7928 15.493 39.1073 16.1503 39.5768C16.8076 40.0463 17.7465 41.173 17.7465 41.173C17.7465 41.173 17.0892 41.9242 15.9624 41.8303C14.8357 41.7364 13.2394 40.7036 12.9577 40.2341C12.6761 39.7646 12.2066 39.2951 12.6761 37.605Z" fill="#5160EF"/>
<path d="M22.0657 40.7978L21.8779 41.0795V41.4551L23.0047 41.7368V41.549C23.0047 41.549 23.5681 41.4551 24.0375 41.8307C24.507 42.2063 24.9765 42.5818 25.6337 42.5818C26.1971 42.5818 26.9483 42.4879 27.0422 42.1124C27.23 41.8306 23.6619 40.7978 22.0657 40.7978Z" fill="#434ADA"/>
<path d="M21.9718 41.0791C21.9718 41.0791 21.6901 39.6706 22.2535 39.0133C22.2535 39.0133 22.1596 39.295 22.4412 39.3889C22.629 39.4828 23.0985 39.2011 23.8497 38.8255C24.6008 38.4499 25.2581 38.8255 25.2581 38.8255C25.2581 38.8255 26.0093 40.1401 26.291 40.4217C26.6666 40.7034 28.3567 41.4546 28.8262 41.4546C29.2956 41.4546 28.9201 42.7691 27.7933 42.6753C26.6666 42.5814 25.0704 42.2997 24.4131 41.7363C23.6619 41.1729 21.9718 41.0791 21.9718 41.0791Z" fill="#5160EF"/>
<path d="M43.5681 43.7089H28.0751C27.6057 43.7089 27.2301 43.5211 26.9484 43.1455C26.6667 42.8638 26.5728 42.3943 26.5728 41.9248L28.5446 28.9671L37.6526 29.1548L44.7888 41.3615C45.0705 41.831 45.0705 42.3943 44.7888 42.8639C44.601 43.4272 44.1315 43.7089 43.5681 43.7089ZM28.9202 29.4366L27.0423 42.0187C27.0423 42.3004 27.0423 42.676 27.324 42.8638C27.5117 43.1455 27.7934 43.2394 28.1691 43.2394H43.662C44.0376 43.2394 44.4132 43.0517 44.601 42.676C44.7888 42.3004 44.7888 41.9249 44.601 41.6432L37.5588 29.6244L28.9202 29.4366Z" fill="#CED6E0"/>
<path d="M9.57744 18.5443C10.1997 18.5443 10.7042 17.7876 10.7042 16.8542C10.7042 15.9208 10.1997 15.1641 9.57744 15.1641C8.95515 15.1641 8.45068 15.9208 8.45068 16.8542C8.45068 17.7876 8.95515 18.5443 9.57744 18.5443Z" fill="#5160EF"/>
<path d="M9.2019 26.6191C9.2019 26.6191 10.7043 28.6849 11.6432 28.8727C11.6432 28.8727 11.0798 30.375 11.6432 32.4407C12.2066 34.5065 12.7699 36.5721 12.7699 36.5721C12.7699 36.5721 13.5211 36.4782 14.0845 36.3844C14.6479 36.2904 15.5868 35.821 15.5868 35.1637C15.5868 34.5064 15.5868 32.8162 15.5868 31.6895C15.5868 30.5627 15.4929 29.9054 15.6808 29.436C15.8685 29.0603 15.5868 28.6848 16.4319 28.497C17.277 28.3092 20.1878 28.3092 20.1878 28.3092L24.3192 28.8726C24.3192 28.8726 23.4742 34.2247 23.3802 34.7881C23.3802 34.7881 23.7559 34.6941 24.4131 35.0698C25.0703 35.4454 26.1032 35.7271 26.1032 35.7271C26.1032 35.7271 27.6056 32.6285 27.8873 31.6895C28.169 30.7505 29.2957 27.8397 29.4835 26.9007C29.7652 25.9617 29.7652 24.3655 28.075 23.7082C26.3849 23.0509 24.7887 23.0509 24.7887 23.0509L11.2677 22.2999L9.2019 26.6191Z" fill="#2A3F4F"/>
<path d="M13.5212 9.53018C13.5212 9.53018 13.8029 10.3753 13.8968 10.6569C13.9907 10.9386 14.3662 12.9105 14.3662 12.9105L16.6198 13.3799L17.2771 11.8775C17.2771 11.8775 17.6527 11.6898 17.7465 10.8447C17.8405 9.99964 17.8405 9.24849 17.8405 8.59119C17.8405 7.93388 17.6527 6.90105 17.6527 6.90105C17.6527 6.90105 17.4648 5.96205 17.1831 5.58652C16.9015 5.21099 13.2395 6.05598 13.0517 6.80721C12.864 7.55844 13.4273 9.24849 13.5212 9.53018Z" fill="#FFD15C"/>
<path d="M14.1784 12.0655C14.0844 11.5021 13.9906 10.9387 13.8967 10.7509C13.8028 10.5632 13.7089 10.0936 13.615 9.81194C13.7089 9.9997 13.7089 10.1876 13.8028 10.4692C13.8967 10.9387 14.0844 11.502 14.1784 12.0655Z" fill="#FFD15C"/>
<path d="M16.6198 13.3796L17.1832 12.065C17.1832 12.065 16.5259 12.5345 15.6808 12.2528C14.8357 11.9711 13.8967 10.8444 13.8967 10.8444C13.8967 10.8444 14.9297 12.7223 16.6198 13.3796Z" fill="#F7B64C"/>
<path d="M15.6809 12.6289H15.9626L17.8405 12.4412L20.7513 22.582C20.7513 22.582 18.6856 24.6478 16.8077 24.7416C14.9298 24.8354 11.8312 23.7087 11.2678 23.427C10.7983 23.1453 13.5213 12.3471 13.5213 12.3471L15.6809 12.6289Z" fill="#8AD7F8"/>
<path d="M15.9623 13.7549L16.244 14.0366C16.244 14.0366 16.4317 14.6939 16.5256 14.8817C16.5256 15.0695 18.1219 25.9615 18.1219 25.9615L17.183 27.2761L15.9623 26.2432C15.9623 26.2432 15.0233 16.6658 15.2111 15.8207C15.3051 14.9756 15.5867 14.1305 15.5867 14.1305L15.9623 13.7549Z" fill="#E8EAE9"/>
<path d="M15.3051 12.8162L15.6807 12.7222H15.9624L16.6197 13.0039C16.6197 13.0039 16.2441 13.7551 16.3381 14.1307C16.0564 14.0368 15.8686 14.0368 15.5869 14.2246C15.5869 14.2246 15.3991 13.3795 15.1175 13.1918C14.7418 13.0039 15.3051 12.8162 15.3051 12.8162Z" fill="#E8EAE9"/>
<path d="M13.3333 9.34234C13.3333 9.34234 12.7699 9.43627 11.9248 9.62403C11.0798 9.81179 9.29569 9.99965 9.29569 9.99965C9.29569 9.99965 9.76514 10.7508 9.67131 11.8776C9.67131 13.0982 10.3286 14.1311 10.3286 14.8822C10.3286 15.6334 9.10793 22.4879 8.35678 23.9902C7.60564 25.4926 7.1361 26.1498 7.04217 27.4644C6.85441 28.779 6.47879 30.7508 7.04217 31.1264C7.60555 31.502 8.35669 29.718 9.38962 28.2156C10.4225 26.7132 13.3333 21.0794 13.615 19.4832C13.8967 17.793 13.3333 9.34234 13.3333 9.34234Z" fill="#5160EF"/>
<path d="M10.9858 19.9529L11.5492 20.2346C11.5492 20.2346 12.2065 20.4224 11.9248 18.1689C11.9248 18.1689 11.3615 18.3566 11.1737 18.5445C10.9858 18.7322 10.9858 19.9529 10.9858 19.9529Z" fill="#ADB3BA"/>
<path d="M14.2722 12.9101V14.4125C14.2722 15.4453 13.5211 19.4829 13.5211 19.4829C13.5211 19.4829 13.615 17.3233 13.3333 16.666C13.1456 16.0087 12.0188 13.3796 12.0188 13.3796L12.7699 12.9102L12.2066 12.5346L13.2394 9.43597C13.2394 9.43597 13.3333 9.43597 13.3333 9.52989V9.62382C13.3333 9.62382 13.615 10.4689 13.7089 10.7506C13.8967 10.9383 14.2722 12.5346 14.2722 12.9101Z" fill="#434ADA"/>
<path d="M14.2722 14.3185V14.4125C14.2722 15.4453 13.5211 19.4829 13.5211 19.4829C13.5211 19.4829 13.615 17.3233 13.3333 16.666C13.1456 16.0087 12.0188 13.3796 12.0188 13.3796L12.7699 12.9102L12.2066 12.5346L13.2394 9.43597C13.3333 9.52989 13.4272 9.62373 13.4272 9.81158C13.5211 9.99935 13.5211 10.1872 13.6149 10.4689C13.8027 11.0323 13.8966 11.5017 13.9905 12.0651C14.2722 12.8162 14.2722 13.5674 14.2722 14.3185Z" fill="#434ADA"/>
<path d="M11.3616 18.45C11.3616 18.45 12.1128 18.544 12.1128 18.45C12.1128 18.2623 12.2067 18.1684 12.3945 17.9806C12.5822 17.8867 12.7701 17.8867 12.9578 17.8867C13.2395 17.8867 13.8029 17.8867 13.8968 18.0744C14.0846 18.2622 13.8968 18.5439 13.6152 18.45C13.3335 18.45 13.1457 18.45 13.0518 18.544C12.9578 18.6379 12.9578 18.6379 12.9578 18.6379C12.9578 18.6379 13.6152 18.8257 13.8968 18.7318C14.1785 18.6379 14.7419 18.6379 15.0236 18.6379C15.3053 18.7318 15.587 18.8257 15.4931 19.0135C15.4931 19.0135 15.6808 19.1074 15.587 19.2952C15.4931 19.483 15.0236 19.6708 14.4602 19.6708C13.8029 19.6708 12.864 19.8586 12.3006 19.7647C11.7372 19.7647 10.8922 19.577 10.141 19.483C9.38989 19.483 9.38989 19.483 9.38989 19.483L11.3616 18.45Z" fill="#FFD15C"/>
<path d="M13.8968 9.06058C14.0846 9.53003 14.0846 9.99958 13.8968 10.0934C13.6151 10.1873 13.3334 9.90565 13.0517 9.43611C12.8639 8.96665 12.8639 8.49711 13.0517 8.40328C13.3334 8.30944 13.6151 8.59113 13.8968 9.06058Z" fill="#FFD15C"/>
<path d="M24.6947 17.7933C24.6947 18.4506 24.507 18.92 24.507 18.92L23.0985 19.1078C23.0985 19.1078 23.0046 17.2299 21.3145 16.8543C21.2205 16.197 21.1267 15.6336 21.1267 15.2581C21.1267 13.7557 22.3474 10.6571 22.3474 10.6571C22.3474 10.6571 22.9108 11.0327 22.8168 11.6899C22.7229 12.3473 23.1925 12.6289 23.1925 13.0045C23.1925 13.38 23.0985 13.4739 23.1925 13.8495C23.3802 14.1313 24.7887 17.1361 24.6947 17.7933Z" fill="#434ADA"/>
<path d="M24.6948 23.0508C24.6948 23.0508 23.0046 23.2386 22.3473 23.3325C21.5962 23.4265 21.2205 23.4264 20.9389 23.1448C20.5632 22.8631 18.967 19.5767 18.967 19.5767C18.967 19.5767 18.4036 16.9476 18.3097 14.5063C18.3097 12.9101 17.9341 11.126 17.7463 10.0932C17.7463 9.81148 17.7463 9.52979 17.7463 9.2481C18.122 9.34202 19.1548 9.62371 19.9059 9.81148C20.8449 10.0932 22.4411 10.4688 22.4411 10.4688C22.4411 10.4688 21.2205 13.5674 21.2205 15.0698C21.2205 16.5721 22.1595 21.7364 22.535 22.112C23.0046 22.6752 24.6948 23.0508 24.6948 23.0508Z" fill="#5160EF"/>
<path d="M21.2207 18.92C21.2207 18.92 20.5634 18.8261 20.8451 16.7604C20.8451 16.7604 21.2207 16.5726 21.6902 16.8543C22.1596 17.136 22.5352 17.9811 22.3475 18.3567C22.1596 18.7322 21.4085 18.92 21.2207 18.92Z" fill="#CED6E0"/>
<path d="M20.0938 22.0185C19.9999 21.9246 18.7793 20.3284 18.2159 18.2626C17.8403 16.8542 17.5586 13.8495 17.3708 11.8777C17.4648 11.6899 17.5586 11.5021 17.6525 11.0326C17.6525 10.657 17.7465 10.3753 17.7465 9.99979L19.061 12.3472L18.7793 12.9106L19.6244 13.0045C19.6244 13.0045 19.1549 16.7604 19.2488 17.7933C19.3426 18.7322 20.0938 21.8308 20.0938 22.0185Z" fill="#434ADA"/>
<path d="M21.2207 16.6658L20.845 16.7597C20.845 16.7597 20.3756 16.7597 20.0939 16.6658C19.8122 16.5719 19.2488 16.2902 18.9671 16.478C18.6854 16.572 18.1221 17.6048 18.1221 17.6048L20.3756 18.8255C20.3756 18.8255 20.6573 18.7316 20.7512 18.6377C20.8451 18.5438 21.3146 18.8255 21.9719 18.6377C22.723 18.5438 22.723 18.5438 22.723 18.5438C22.723 18.5438 22.3474 17.6048 22.1597 17.2293C21.9718 16.8537 21.5024 16.7597 21.2207 16.6658Z" fill="#FFD15C"/>
<path d="M32.1128 5.86794L32.8639 6.43132V6.61908L31.2677 10.7506C31.2677 10.7506 30.7983 10.1872 30.4226 10.0933C30.047 9.99937 29.3898 10.6567 28.9203 10.5627C28.4508 10.4688 28.263 10.2811 28.1691 10.0933C28.0752 9.8116 27.324 9.8116 27.6997 9.43599C27.6997 9.43599 27.418 9.52991 27.418 9.24822C27.418 8.96653 27.1363 8.87261 27.1363 8.87261C27.1363 8.87261 26.2912 9.06037 26.3851 8.59092C26.4791 8.12146 26.6668 7.55808 26.6668 7.55808C26.6668 7.55808 26.5729 7.46415 26.3851 7.37032C26.1974 7.27639 25.4461 6.33748 25.5401 5.49241C25.634 4.64734 28.9204 3.70834 30.2349 3.80227C31.4555 3.99003 32.1128 5.86794 32.1128 5.86794Z" fill="#FFD15C"/>
<path d="M28.5446 34.225C28.5446 34.225 29.4836 36.4785 30.3287 36.9479C31.1737 37.4174 31.4554 37.8869 31.4554 37.8869L27.7935 39.4831C27.7935 39.4831 27.7935 38.1686 27.324 37.2296C26.8545 36.1968 25.7278 35.1639 25.7278 35.1639L28.5446 34.225Z" fill="#E8EAE9"/>
<path d="M27.9814 40.4225C27.9814 40.4225 26.8547 41.0798 26.1035 41.2675C25.3524 41.4553 24.5073 41.737 24.5073 42.3004C24.5073 42.8637 25.4463 43.1454 26.3852 43.1454C27.3242 43.1454 28.9204 42.8637 29.3899 42.3004C29.8594 41.737 30.6106 41.1736 30.6106 41.1736L30.9862 41.5492C30.9862 41.5492 32.8641 40.6102 33.052 40.0468C33.3337 39.4835 33.1459 39.4835 33.1459 39.4835L32.6764 38.8261L27.9814 40.4225Z" fill="#5160EF"/>
<path d="M27.6056 38.8259C27.6056 38.8259 28.169 38.2625 29.2018 38.2625C30.2347 38.2625 31.1737 37.5114 31.1737 37.5114C31.1737 37.5114 31.9248 37.6991 32.676 38.732C32.676 38.732 31.4553 39.2954 30.7042 39.8588C29.9531 40.5161 29.5774 40.7978 28.9201 40.9856C28.169 41.2673 24.9765 41.3612 24.507 42.3001C24.507 42.3001 24.4131 41.9245 25.2582 41.5489C26.1032 41.0795 27.0422 40.7978 27.23 40.3283C27.5117 39.671 27.6056 38.8259 27.6056 38.8259Z" fill="#434ADA"/>
<path d="M24.9763 25.2111C24.9763 25.2111 21.2204 25.6806 20.4693 26.244C19.7181 26.8074 19.6242 27.9341 19.812 28.5914C19.9997 29.1548 26.1031 36.291 26.6665 36.5727C26.6665 36.5727 27.1359 35.9154 27.8871 35.4459C28.6383 34.9765 28.8261 34.3192 28.8261 34.3192C28.8261 34.3192 26.2909 31.3145 25.5398 30.2816C24.7887 29.2486 24.507 29.1548 24.507 29.1548L28.2629 27.183L24.9763 25.2111Z" fill="#5160EF"/>
<path d="M41.3144 42.5816H26.8544C26.4788 42.5816 26.1032 42.3938 25.8216 42.1121C25.5399 41.8304 25.4459 41.361 25.5399 40.9853L27.3239 28.8727L35.8686 29.0604L42.5351 40.422C42.8168 40.8914 42.8168 41.361 42.5351 41.8304C42.2534 42.2999 41.784 42.5816 41.3144 42.5816ZM27.6995 29.3421L25.9154 41.0793C25.9154 41.361 25.9154 41.6427 26.1032 41.8304C26.2909 42.0182 26.5726 42.206 26.8543 42.206H41.3144C41.69 42.206 41.9717 42.0183 42.1595 41.7366C42.3473 41.4549 42.3473 41.0793 42.1595 40.7037L35.5867 29.5301L27.6995 29.3421Z" fill="#ADB3BA"/>
<path d="M17.8403 36.1964C17.8403 36.1964 18.0281 36.7598 19.1549 36.9476C20.1877 37.1353 21.5023 37.8866 21.5023 37.8866C21.5023 37.8866 24.2253 32.7222 24.507 31.6894C24.7887 30.6566 24.9764 29.1542 24.9764 29.1542C24.9764 29.1542 28.075 28.7786 31.1736 28.9664C34.2722 29.1542 38.6853 27.3702 39.1549 26.3373C39.6243 25.3045 39.906 23.0509 39.906 23.0509L30.1408 23.8021C30.1408 23.8021 29.7652 24.4594 28.9201 24.5532C27.9811 24.6471 24.2253 24.741 23.3802 25.1166C22.5351 25.3983 21.6901 25.4922 21.3145 27.0884C20.9389 28.6847 19.2488 32.9101 17.8403 36.1964Z" fill="#434ADA"/>
<path d="M32.8639 6.61902C32.8639 6.61902 31.1737 8.21523 30.7981 10.7504L32.3005 11.9711L34.0845 7.93354L32.8639 6.61902Z" fill="#CED6E0"/>
<path d="M39.8121 20.8915L38.6853 26.2436C38.6853 26.2436 30.0469 25.6802 29.4835 24.6474C28.9201 23.6145 29.6713 19.2013 29.953 18.1685C30.2346 17.2295 31.1736 14.8821 31.737 12.3469C32.3004 9.8117 34.0845 7.74595 34.0845 7.74595L34.6479 7.83987C34.6479 7.83987 36.2441 8.68494 36.8074 9.06056C37.3708 9.43617 38.6853 11.0324 38.967 11.7835C39.0609 12.6286 39.8121 20.8915 39.8121 20.8915Z" fill="#5160EF"/>
<path d="M33.6149 7.08849C33.6149 7.08849 32.9575 7.46411 32.3942 9.43594C31.7369 11.4078 31.2674 13.7552 30.9857 14.6003C30.704 15.4454 29.9529 18.1683 29.9529 18.1683C29.9529 18.1683 31.2674 14.882 31.643 13.5674C31.9247 12.2528 32.582 9.15425 34.6477 7.83964L33.6149 7.08849Z" fill="#434ADA"/>
<path d="M26.197 29.3426C26.197 29.3426 27.4177 28.3098 28.2628 27.1831C29.1078 26.0563 31.6431 22.7699 33.9905 21.8309C36.338 20.8919 42.7229 19.5774 42.7229 19.5774C42.7229 19.5774 41.6901 23.7088 41.5022 25.399C41.3145 27.0891 40.1877 30 36.8074 30.2816C33.427 30.4694 26.197 29.3426 26.197 29.3426Z" fill="#111796"/>
<path d="M32.8638 6.4318C32.5821 6.71349 31.4554 6.90125 31.1737 6.52572C30.892 6.05627 29.953 5.77458 29.5775 6.15011C29.2019 6.61956 29.4836 7.27687 29.4836 7.27687L29.0141 7.46463C29.0141 7.46463 28.9202 7.18294 28.7324 6.99518C28.5447 6.71349 27.8873 6.61956 27.8873 6.24403C27.8873 5.86842 27.5117 5.2112 26.9484 5.11727C26.385 5.02335 25.6338 5.39896 25.6338 5.39896C25.6338 5.39896 24.9765 5.2112 25.1644 4.64782C25.3521 4.08444 26.6668 1.92484 28.3569 1.36146C30.047 0.985845 31.9249 2.20653 32.3945 3.23937C32.77 4.27211 32.8638 6.4318 32.8638 6.4318Z" fill="#161A85"/>
<path d="M29.7651 10.2811C30.0468 10.1871 30.2346 9.99938 30.4224 10.0933C30.5164 10.0933 30.6102 10.1872 30.7041 10.1872C30.9858 8.96654 30.7981 7.55809 30.7981 7.55809C30.7981 8.68476 29.7651 10.2811 29.7651 10.2811Z" fill="#F7B64C"/>
<path d="M20.845 16.7601C20.845 16.7601 21.5961 16.6662 21.8778 17.0418C22.1595 17.4174 22.1595 18.638 21.2205 18.9197H23.1923C23.1923 18.9197 23.3801 17.793 22.8167 17.2296C22.2534 16.6662 21.69 16.5724 20.845 16.7601Z" fill="#F3F3F3"/>
<path d="M23.3803 14.6002V17.6988C23.1925 17.7928 23.0047 17.8866 22.9109 18.0744C22.6292 17.605 22.2535 16.9477 21.4085 16.7599C21.3145 16.1026 21.2207 15.6332 21.2207 15.2575C21.2207 15.0698 21.2207 14.8819 21.2207 14.6942H23.3803V14.6002Z" fill="#434ADA"/>
<path d="M26.573 19.7648C26.573 19.7648 26.1974 19.6709 25.7279 19.6709C25.2585 19.6709 24.8829 19.8586 24.5073 19.6709C24.2256 19.4831 24.1316 19.3892 23.85 19.4831C23.6622 19.577 23.5683 19.6709 23.4743 19.6709C23.3804 19.6709 23.2866 19.7648 23.2866 19.6709C23.1926 19.5769 23.0049 19.4831 23.0049 19.3892C23.0049 19.3892 22.8171 19.2014 22.911 19.1075C22.911 19.1075 22.817 18.9197 22.817 18.8258C22.817 18.8258 22.4414 18.7319 22.6293 18.3563C22.817 17.9807 23.2866 17.7929 23.4743 17.6052C23.756 17.4174 23.9438 17.3235 24.1316 17.4174C24.4133 17.5113 25.2584 17.9808 25.4462 17.9808C25.6339 18.0747 28.1691 18.0747 28.1691 18.0747L28.0752 19.7649H26.573V19.7648Z" fill="#FFD15C"/>
<path d="M27.6996 17.793H26.7606C26.7606 17.793 26.385 19.2954 26.5729 20.2343L28.263 20.516L27.6996 17.793Z" fill="#F3F3F3"/>
<path d="M32.4881 14.6007C32.4881 14.6007 32.0187 11.8777 32.6759 10.5631C33.3331 9.24848 35.305 9.24857 36.1501 10.0936C36.9952 10.9387 37.6525 12.9105 37.5586 14.1312C37.4646 15.3519 36.7135 16.5725 36.7135 17.5115C36.7135 18.4505 36.4318 18.826 36.0562 19.2017C35.7745 19.5773 35.2111 20.3284 34.8355 20.5162C34.4599 20.6101 27.4176 21.0796 27.5116 20.9856C27.6055 20.8917 27.2299 18.5443 27.3238 17.7931C27.3238 17.7931 29.6712 17.6992 30.0468 17.6992C30.4224 17.7931 30.6102 17.6992 30.8918 17.5114C31.1735 17.4175 31.1735 17.3237 31.3613 17.4175C31.5491 17.5114 31.9247 17.5114 32.1124 17.4175C32.3002 17.3236 32.4881 17.0419 32.4881 17.0419C32.4881 17.0419 32.2064 15.8212 32.3941 15.5395C32.582 15.2579 32.4881 14.6007 32.4881 14.6007Z" fill="#434ADA"/>
<path d="M17.4648 12.7223L16.9014 14.1308L15.9624 12.6284C16.9952 12.3467 17.4648 11.7833 17.4648 11.7833C17.4648 12.0651 17.4648 12.3468 17.4648 12.7223Z" fill="white"/>
<path d="M15.6808 12.6287C15.6808 12.6287 15.3052 12.9104 15.1174 13.286C14.9297 13.6616 14.7418 13.9433 14.7418 13.9433L14.2723 13.0043C14.1784 12.1592 14.0846 11.4081 13.8967 10.563C13.8968 10.7507 14.8357 12.347 15.6808 12.6287Z" fill="white"/>
<path d="M13.4272 9.34202H13.6149C13.6149 9.34202 13.2393 8.77864 13.4272 8.40302C13.615 8.02741 13.0516 6.90065 13.7089 7.0885C14.3662 7.27626 15.9624 6.71288 16.4318 6.24343C16.9013 5.77397 17.0891 5.77397 17.2769 5.96174C17.4647 6.1495 17.6525 6.90073 17.6525 6.90073C17.6525 6.90073 17.4648 6.14959 17.2769 5.68005C17.0891 5.21059 17.4647 4.74105 15.8685 4.2716C14.2723 3.80214 12.8638 4.45936 12.3943 5.68005C11.9247 6.90073 12.4882 8.12133 12.8637 8.49695C13.1455 8.77864 13.4272 9.34202 13.4272 9.34202Z" fill="#161A85"/>
<path d="M10.1408 18.0745L11.831 18.1684C11.831 18.1684 11.2676 18.4501 11.2676 19.2952C11.2676 20.1403 11.4553 20.1403 11.4553 20.1403L8.63843 19.6708C8.73235 19.7647 9.95304 18.0745 10.1408 18.0745Z" fill="#F3F3F3"/>
<path d="M11.3615 18.0749C10.3287 18.5443 9.95306 18.92 9.76529 20.0467L4.97656 19.765C4.97656 19.765 5.07049 17.7932 5.16433 17.2298C5.25816 16.6664 5.63378 15.7274 6.19716 15.1641C6.66662 14.6007 7.69954 13.1922 7.79338 12.9105C7.8873 12.6288 8.16899 12.3472 8.26283 12.1594C8.35676 11.9716 8.54452 11.3143 8.63845 10.7509C8.73237 10.0936 9.29575 9.99979 9.29575 9.99979C9.29575 9.99979 9.76521 10.7509 9.67137 11.8777C9.67137 13.0984 10.3287 14.1312 10.3287 14.8824C10.3287 15.0701 10.2347 15.4457 10.2347 16.0091L9.4836 17.6993L9.76529 17.7932L11.3615 18.0749Z" fill="#434ADA"/>
<path d="M14.7419 21.2666H13.2395V40.4215H14.7419V21.2666Z" fill="#CED6E0"/>
<path d="M27.4179 21.0791H0.657306C0.28169 21.0791 0 20.7975 0 20.4218C0 20.0462 0.28169 19.7645 0.657306 19.7645H27.4179C27.7935 19.7645 28.0752 20.0462 28.0752 20.4218C28.0751 20.7975 27.7934 21.0791 27.4179 21.0791Z" fill="#CED6E0"/>
<path d="M27.4178 21.0794C18.6854 21.7368 9.76524 21.6428 0.657227 21.0794H27.4178Z" fill="#ADB3BA"/>
<path d="M21.8779 41.6425H6.10327C6.10327 40.9852 6.66665 40.4218 7.32396 40.4218H20.6573C21.3145 40.4219 21.8779 40.9853 21.8779 41.6425Z" fill="#CED6E0"/>
<path d="M20.3758 40.7042L18.4979 41.3615L17.1833 39.6713C17.1833 39.6713 17.9345 38.9202 18.3101 38.1689C18.4979 37.7933 18.7796 37.3239 18.9674 36.9483H19.0613C19.9064 37.136 20.9392 37.6056 21.2209 37.8873C20.9392 38.3567 20.2819 39.7652 20.3758 40.7042Z" fill="#E8EAE9"/>
<path d="M12.77 42.0182H12.1127C12.1127 42.0182 11.831 42.3938 11.9249 42.4876C12.0189 42.5816 13.9907 43.3327 15.3052 43.6144C16.5259 43.8961 18.2161 43.4266 18.4977 43.145V43.6144H20.3756C20.6573 43.6144 20.8451 43.4266 20.8451 43.145V42.4876L20.1878 42.0182H12.77Z" fill="#5160EF"/>
<path d="M17.2769 39.4829C17.2769 39.4829 17.7464 39.4829 18.028 39.9523C18.3097 40.4218 18.7792 40.7035 19.1548 40.7974C19.5304 40.8913 20.3755 40.5157 20.4693 40.234C20.4693 40.234 20.8449 41.8302 20.751 42.4875C20.751 42.4875 19.2486 42.4875 18.2158 42.957C17.089 43.3326 16.7134 43.6143 15.4928 43.3326C14.2721 43.0509 12.3003 42.2998 12.1125 42.0181C12.1125 42.0181 12.9576 41.9242 13.8027 41.8303C14.6478 41.7365 15.4928 40.7975 16.0562 40.3279C16.6196 39.7646 17.2769 39.4829 17.2769 39.4829Z" fill="#434ADA"/>
<path d="M20.7512 14.6002H11.831C11.5493 14.6002 11.3616 14.788 11.3616 15.0697L12.0189 19.7645H20.4696L21.1268 15.0697C21.2207 14.8819 20.939 14.6002 20.7512 14.6002Z" fill="#CED6E0"/>
<path d="M16.3379 17.511C16.5971 17.511 16.8073 17.3848 16.8073 17.2293C16.8073 17.0737 16.5971 16.9476 16.3379 16.9476C16.0786 16.9476 15.8684 17.0737 15.8684 17.2293C15.8684 17.3848 16.0786 17.511 16.3379 17.511Z" fill="#ADB3BA"/>
</g>
<defs>
<clipPath id="clip0_1_936">
<rect width="45" height="45" fill="white"/>
</clipPath>
</defs>
</svg>
