<svg width="44" height="44" viewBox="0 0 44 44" fill="none" xmlns="http://www.w3.org/2000/svg">
<g clip-path="url(#clip0_1_897)">
<path d="M11.7379 12.8261L13.2027 17.953H11.7379C11.7379 19.9752 10.098 21.615 8.07585 21.615C6.05367 21.615 4.41382 19.9752 4.41382 17.953V12.8261C4.41382 11.6125 5.39745 10.6289 6.61105 10.6289H9.54073C10.7542 10.6289 11.7379 11.6125 11.7379 12.8261Z" fill="#F2BB80"/>
<path d="M28.5835 0.374728H15.4001C14.1865 0.374728 13.2029 1.35836 13.2029 2.57196V6.96643C13.2029 8.18004 14.1865 9.16367 15.4001 9.16367V11.3609L19.0622 9.16367H28.5835C29.7971 9.16367 30.7808 8.18004 30.7808 6.96643V2.57196C30.7808 1.35836 29.7972 0.374728 28.5835 0.374728Z" fill="#FF6A00"/>
<path d="M40.3021 31.1367H31.5132V24.545C31.5132 22.927 32.8249 21.6153 34.4429 21.6153H37.3725C38.9905 21.6153 40.3022 22.927 40.3022 24.545V31.1367H40.3021Z" fill="#EA6303"/>
<path d="M3.6814 31.1367H12.4703V24.545C12.4703 22.927 11.1586 21.6153 9.54067 21.6153H6.61107C4.99314 21.6153 3.6814 22.927 3.6814 24.545C3.6814 24.545 3.6814 31.1367 3.6814 31.1367Z" fill="#FF6A00"/>
<path d="M8.8113 16.4877C9.21581 16.4877 9.54374 16.1598 9.54374 15.7552C9.54374 15.3507 9.21581 15.0228 8.8113 15.0228C8.40678 15.0228 8.07886 15.3507 8.07886 15.7552C8.07886 16.1598 8.40678 16.4877 8.8113 16.4877Z" fill="#6B402A"/>
<path d="M3.6814 31.136C3.6814 33.1582 5.32125 34.798 7.34343 34.798H12.4703V43.587H17.5973L16.1325 41.3897V34.0656C16.1325 32.4476 14.8207 31.1359 13.2028 31.1359H3.6814V31.136Z" fill="#A04300"/>
<path d="M9.77518 42.1595L5.87871 40.8632V37.7284H4.41391V40.8632L0.517441 42.1595C0.12342 42.2891 -0.0919382 42.714 0.0377407 43.108C0.16742 43.502 0.592206 43.7174 0.986227 43.5877L5.14635 42.1595L9.30648 43.5877C9.38408 43.598 9.46323 43.598 9.54083 43.5877C9.85579 43.5885 10.1355 43.3878 10.2367 43.0897C10.367 42.7067 10.162 42.2907 9.77887 42.161C9.7781 42.1602 9.77664 42.1595 9.77518 42.1595Z" fill="#CED6E0"/>
<path d="M8.81123 21.6145H7.34644V28.9387H8.81123V21.6145Z" fill="#A04300"/>
<path d="M9.54073 13.5586H6.61106L4.41382 16.4882V12.8262C4.41382 11.6126 5.39745 10.629 6.61106 10.629H12.4703C12.4703 12.2468 11.1594 13.5586 9.54073 13.5586Z" fill="#6B402A"/>
<path d="M32.2456 12.8258L30.7808 17.9527H32.2456C32.2456 19.9749 33.8854 21.6148 35.9076 21.6148C37.9298 21.6148 39.5696 19.9749 39.5696 17.9527V12.8258H32.2456Z" fill="#F2BB80"/>
<path d="M39.5697 12.8261C39.5697 11.6125 38.5861 10.6289 37.3725 10.6289H31.8794C31.2729 10.6289 30.7808 11.121 30.7808 11.7275C30.7808 12.3339 31.2729 12.8261 31.8794 12.8261H36.64L39.5697 16.4881V12.8261Z" fill="#6B402A"/>
<path d="M28.5863 2.5724H15.4028V4.03719H28.5863V2.5724Z" fill="#A04300"/>
<path d="M18.3325 5.5022H15.4028V6.967H18.3325V5.5022Z" fill="#A04300"/>
<path d="M28.5863 5.5022H19.7974V6.967H28.5863V5.5022Z" fill="#A04300"/>
<path d="M26.3863 9.16401C27.5999 9.16401 28.5835 10.1476 28.5835 11.3613V12.826C28.5835 14.0396 27.5999 15.0233 26.3863 15.0233H24.9215V17.2205L21.2595 15.0233H19.0622C17.8486 15.0233 16.865 14.0396 16.865 12.826V11.3613C16.865 10.1476 17.8486 9.16401 19.0622 9.16401C19.0622 9.16401 26.3863 9.16401 26.3863 9.16401Z" fill="#EA6303"/>
<path d="M31.5162 27.4742H12.4734V29.6714H31.5162V27.4742Z" fill="#6B402A"/>
<path d="M43.4661 42.1595L39.5697 40.8632V37.7284H38.1049V40.8632L34.2084 42.1595C33.8239 42.2891 33.6173 42.7052 33.747 43.0897C33.8766 43.4742 34.2926 43.6808 34.6772 43.5511L38.8373 42.1595L42.9974 43.5877C43.075 43.598 43.1542 43.598 43.2318 43.5877C43.5599 43.6046 43.8595 43.401 43.9642 43.0897C44.0887 42.7045 43.8778 42.2921 43.4925 42.1676C43.4844 42.1647 43.4757 42.1617 43.4661 42.1595Z" fill="#CED6E0"/>
<path d="M36.643 21.6145H35.1782V28.9387H36.643V21.6145Z" fill="#FF6A00"/>
<path d="M3.68155 34.7984H8.07602C8.88537 34.7984 9.54081 35.4539 9.54081 36.2632C9.54081 37.0725 8.88529 37.728 8.07602 37.728H2.94919C1.73559 37.728 0.751953 36.7443 0.751953 35.5307V25.277C0.751953 24.4676 1.40748 23.8122 2.21675 23.8122C3.0261 23.8122 3.68155 24.4677 3.68155 25.277V34.7984Z" fill="#6B402A"/>
<path d="M40.3021 34.7984H35.9077C35.0983 34.7984 34.4429 35.4539 34.4429 36.2632C34.4429 37.0725 35.0984 37.728 35.9077 37.728H41.0346C42.2482 37.728 43.2318 36.7443 43.2318 35.5307V25.277C43.2318 24.4676 42.5763 23.8122 41.767 23.8122C40.9577 23.8122 40.3022 24.4677 40.3022 25.277V34.7984H40.3021Z" fill="#6B402A"/>
<path d="M19.0622 27.4745H12.4705V26.0097H18.5568L20.5709 20.6264L21.9479 21.1391L19.7506 26.9984C19.6437 27.2855 19.3691 27.4752 19.0622 27.4745Z" fill="#CED6E0"/>
<path d="M40.3021 31.136C40.3021 33.1582 38.6622 34.798 36.6401 34.798H31.5131V43.587H26.3862L27.851 41.3897V34.0656C27.851 32.4476 29.1628 31.1359 30.7807 31.1359H40.3021V31.136Z" fill="#A04300"/>
<path d="M22.7243 42.1229V29.6719H21.2595V42.1229H17.5974V43.5877H26.3863V42.1229H22.7243Z" fill="#CED6E0"/>
<path d="M23.4597 11.361H19.0652V12.8258H23.4597V11.361Z" fill="#A04300"/>
<path d="M26.3894 11.361H24.9246V12.8258H26.3894V11.361Z" fill="#A04300"/>
<path d="M34.4458 16.4877C34.8503 16.4877 35.1783 16.1598 35.1783 15.7552C35.1783 15.3507 34.8503 15.0228 34.4458 15.0228C34.0413 15.0228 33.7134 15.3507 33.7134 15.7552C33.7134 16.1598 34.0413 16.4877 34.4458 16.4877Z" fill="#6B402A"/>
</g>
<defs>
<clipPath id="clip0_1_897">
<rect width="44" height="44" fill="white"/>
</clipPath>
</defs>
</svg>
