<svg width="16" height="16" viewBox="0 0 16 16" fill="none" xmlns="http://www.w3.org/2000/svg">
<path fill-rule="evenodd" clip-rule="evenodd" d="M8.64592 10.853C8.59935 10.8066 8.56241 10.7514 8.5372 10.6906C8.512 10.6299 8.49902 10.5648 8.49902 10.499C8.49902 10.4332 8.512 10.3681 8.5372 10.3074C8.56241 10.2466 8.59935 10.1915 8.64592 10.145L11.2929 7.49901L8.64592 4.85301C8.55203 4.75913 8.49928 4.63179 8.49928 4.49901C8.49928 4.36624 8.55203 4.2389 8.64592 4.14501C8.7398 4.05113 8.86714 3.99838 8.99992 3.99838C9.13269 3.99838 9.26003 4.05113 9.35392 4.14501L12.3539 7.14501C12.4005 7.19146 12.4374 7.24664 12.4626 7.30738C12.4878 7.36813 12.5008 7.43325 12.5008 7.49901C12.5008 7.56478 12.4878 7.6299 12.4626 7.69065C12.4374 7.75139 12.4005 7.80657 12.3539 7.85301L9.35392 10.853C9.30747 10.8996 9.2523 10.9365 9.19155 10.9617C9.13081 10.9869 9.06568 10.9999 8.99992 10.9999C8.93415 10.9999 8.86903 10.9869 8.80828 10.9617C8.74754 10.9365 8.69236 10.8996 8.64592 10.853Z" fill="#666775"/>
<path fill-rule="evenodd" clip-rule="evenodd" d="M3 7.49893C3 7.36632 3.07902 7.23915 3.21967 7.14538C3.36032 7.05161 3.55109 6.99893 3.75 6.99893L11.25 6.99893C11.4489 6.99893 11.6397 7.05161 11.7803 7.14538C11.921 7.23915 12 7.36632 12 7.49893C12 7.63154 11.921 7.75872 11.7803 7.85248C11.6397 7.94625 11.4489 7.99893 11.25 7.99893L3.75 7.99893C3.55109 7.99893 3.36032 7.94625 3.21967 7.85249C3.07902 7.75872 3 7.63154 3 7.49893Z" fill="#666775"/>
</svg>
