<svg width="40" height="40" viewBox="0 0 40 40" fill="none" xmlns="http://www.w3.org/2000/svg">
<g clip-path="url(#clip0_1_222)">
<path d="M39.3334 20.6666H20.6666V39.3334C20.6666 39.7013 20.3687 40 20 40C19.6313 40 19.3334 39.7013 19.3334 39.3334V20.6667H0.666641C0.297969 20.6666 0 20.368 0 20C0 19.632 0.297969 19.3334 0.666641 19.3334H19.3333V0.666718C19.3333 0.298748 19.6313 8.01086e-05 19.9999 8.01086e-05C20.3686 8.01086e-05 20.6666 0.298748 20.6666 0.666718V19.3334H39.3332C39.7019 19.3334 39.9998 19.632 39.9998 20C39.9998 20.368 39.702 20.6666 39.3334 20.6666Z" fill="#F17720"/>
<path d="M29.9998 18.0002H22.6664C22.2977 18.0002 21.9998 17.7015 21.9998 17.3335V10.0002C21.9998 9.63219 22.2977 9.33352 22.6664 9.33352H29.9998C30.3684 9.33352 30.6664 9.63219 30.6664 10.0002V17.3335C30.6664 17.7015 30.3684 18.0002 29.9998 18.0002Z" fill="#F17720"/>
<path d="M17.333 18.0002H9.99965C9.63098 18.0002 9.33301 17.7015 9.33301 17.3335V10.0002C9.33301 9.63219 9.63098 9.33352 9.99965 9.33352H17.333C17.7017 9.33352 17.9997 9.63219 17.9997 10.0002V17.3335C17.9997 17.7015 17.7017 18.0002 17.333 18.0002Z" fill="#F17720"/>
<path d="M17.333 30.6669H9.99965C9.63098 30.6669 9.33301 30.3683 9.33301 30.0003V22.6669C9.33301 22.299 9.63098 22.0003 9.99965 22.0003H17.333C17.7017 22.0003 17.9997 22.299 17.9997 22.6669V30.0003C17.9997 30.3683 17.7017 30.6669 17.333 30.6669Z" fill="#F17720"/>
<path d="M29.9998 30.6669H22.6664C22.2977 30.6669 21.9998 30.3683 21.9998 30.0003V22.6669C21.9998 22.299 22.2977 22.0003 22.6664 22.0003H29.9998C30.3684 22.0003 30.6664 22.299 30.6664 22.6669V30.0003C30.6664 30.3683 30.3684 30.6669 29.9998 30.6669Z" fill="#F17720"/>
</g>
<defs>
<clipPath id="clip0_1_222">
<rect width="40" height="40" fill="white" transform="matrix(1 0 0 -1 0 40)"/>
</clipPath>
</defs>
</svg>
