<svg width="399" height="334" viewBox="0 0 399 334" fill="none" xmlns="http://www.w3.org/2000/svg">
<path d="M161.213 50.4795C162.534 50.5149 163.862 50.5291 165.189 50.5504C170.649 50.7347 176.116 50.6496 181.576 50.5787C184.402 50.7985 187.242 50.6922 190.075 50.6213C190.11 51.6279 190.146 52.6274 190.188 53.634C188.293 53.6695 186.411 53.7049 184.523 53.712C181.96 53.6837 179.396 53.6482 176.833 53.6482C171.615 53.6837 166.403 53.5064 161.192 53.5986C161.171 52.5565 161.164 51.5145 161.213 50.4795Z" fill="#FEFEFE"/>
<path d="M161.106 58.171C168.554 58.1568 176.009 58.3553 183.457 58.1143L183.89 58.1781C183.862 59.1847 183.834 60.1913 183.812 61.205C183.06 61.2405 182.314 61.2759 181.569 61.3255C178.019 61.2334 174.469 61.0774 170.926 61.2617C167.702 61.1412 164.479 61.1696 161.256 61.1696C161.206 60.17 161.142 59.1705 161.106 58.171Z" fill="#FEFEFE"/>
<path d="M282.609 2.69377C289.091 0.893196 295.843 0.552933 302.517 0C309.98 0.552933 317.584 0.94282 324.748 3.26088C324.414 3.33886 323.754 3.48773 323.42 3.56571C328.092 11.4344 331.968 19.7425 336.505 27.6963C340.51 34.4661 343.477 41.8031 347.759 48.4171C350.868 55.2791 355.008 61.6095 358.224 68.4219C361.305 73.7102 364.067 79.1615 366.865 84.5987C370.969 92.1838 375.378 99.5917 379.006 107.418C380.972 107.538 382.946 107.623 384.92 107.659L384.913 108.46C370.947 108.439 356.974 108.339 343.009 108.389C340.495 108.311 338.692 110.296 336.697 111.501C333.694 110.317 330.527 111.31 327.872 112.834C327.978 110.558 327.509 108.105 325.678 106.567C323.832 104.703 321.112 104.37 318.613 104.596C317.726 97.7911 313.182 90.9858 306.124 89.5326C300.48 79.8066 295.701 69.6057 290.107 59.8443C287.92 56.4559 286.692 52.5641 284.441 49.2181C283.078 47.1552 282.467 44.7096 281.097 42.6538C276.503 35.0262 272.648 26.9945 268.359 19.1967C267.017 16.7439 266.016 14.0714 264.298 11.8384C262.985 11.5832 261.607 12.2 260.265 12.2638C266.875 7.48586 274.785 4.81335 282.609 2.69377Z" fill="#EBF6FD"/>
<path d="M323.42 3.56654C323.753 3.48856 324.414 3.3397 324.747 3.26172C339.806 7.25276 353.403 16.0004 363.996 27.2647C377.444 41.8323 385.779 60.9936 387.199 80.7574C387.973 89.7461 387.369 98.9616 384.92 107.66C382.946 107.624 380.972 107.539 379.006 107.419C375.378 99.5925 370.968 92.1846 366.865 84.5995C364.067 79.1624 361.305 73.711 358.224 68.4227C355.008 61.6103 350.868 55.2799 347.758 48.4179C343.477 41.804 340.509 34.467 336.505 27.6971C331.968 19.7434 328.091 11.4352 323.42 3.56654Z" fill="#E6F4FC"/>
<path d="M260.265 12.2633C261.607 12.1995 262.985 11.5827 264.298 11.8379C266.016 14.0709 267.018 16.7434 268.359 19.1962C272.648 26.994 276.503 35.0257 281.097 42.6533C282.467 44.7091 283.078 47.1547 284.441 49.2176C286.692 52.5635 287.92 56.4554 290.107 59.8438C295.702 69.6052 300.48 79.8061 306.124 89.5321C301.289 88.8941 295.886 89.5533 292.414 93.3105C289.191 95.9901 288.829 100.605 290.291 104.312C289.297 106.042 289.084 108.062 288.374 109.906C287.522 111.571 286.386 113.074 285.414 114.669C286.273 115.385 287.125 116.108 287.963 116.853C287.863 119.419 287.309 122.198 288.403 124.622C289.61 126.756 292.294 126.933 294.466 126.649C295.169 126.586 296.568 126.458 297.271 126.387C298.577 129.627 299.528 133.008 300.324 136.411C299.656 137.042 298.975 137.687 298.627 138.559C295.709 144.698 292.805 150.879 290.867 157.408C290.05 160.3 289.283 163.342 289.773 166.361C290.426 169.92 292.258 173.124 294.445 175.96C299.287 182.191 305.414 187.231 311.137 192.604C305.997 190.754 301.076 188.337 295.936 186.501C292.705 187.706 290.036 190.173 287.466 192.427L287.054 192.86C282.034 182.815 276.688 172.919 271.242 163.1C268.942 158.783 266.861 154.346 264.27 150.185C262.466 147.363 261.657 144.017 259.548 141.38C254.649 131.782 249.317 122.361 244.461 112.727C247.819 113.457 251.327 113.762 254.635 112.599C254.557 112.337 254.394 111.805 254.309 111.543C257.354 110.891 260.003 109.239 262.807 107.984C267.948 108.941 272.769 111.182 277.93 112.103C276.006 107.46 273.124 103.292 271.001 98.7476C269.971 96.8762 270.986 94.7849 271.121 92.8284C272.314 84.6195 267.87 76.2192 260.833 72.0084C252.051 66.3089 239.952 69.2224 233.2 76.7154C230.85 70.86 227.478 65.522 224.474 59.9927C223.75 60.4606 223.033 60.9213 222.302 61.3679C222.33 58.8939 223.473 56.668 224.368 54.4208C227.769 44.9643 233.378 36.408 239.896 28.8087C244.212 24.605 248.188 19.9547 253.286 16.6442C255.608 15.2122 257.546 12.8871 260.265 12.2633Z" fill="#F4FAFD"/>
<path d="M162.79 36.436C167.816 34.0471 173.603 33.5083 179.041 34.5149L179.297 34.8056C181.441 38.3925 185.275 40.3207 188.016 43.3689C190.217 45.7224 192.943 47.5017 195.158 49.8411C196.302 50.8406 197.374 52.6128 199.156 51.9323C200.562 56.4125 201.115 61.2329 199.958 65.8336C199.795 65.5429 199.461 64.9688 199.298 64.6781C198.978 65.4083 198.63 66.1242 198.261 66.826C197.58 67.1521 197.083 66.4432 196.578 66.1313C192.915 63.154 189.45 59.9427 186.141 56.5826C185.332 55.7957 184.942 54.7253 184.523 53.7116C186.411 53.7045 188.293 53.6691 190.188 53.6336C190.146 52.627 190.11 51.6275 190.075 50.6209C187.242 50.6917 184.402 50.7981 181.576 50.5783C179.546 49.1747 176.599 49.9261 174.923 47.9909C171.118 43.8864 166.588 40.5546 162.79 36.436Z" fill="#FEE7B0"/>
<path d="M179.297 34.8066C183.947 34.8704 188.129 37.628 191.608 40.5061C195.08 43.5543 197.821 47.4887 199.156 51.9334C197.373 52.6139 196.301 50.8417 195.158 49.8422C192.943 47.5028 190.217 45.7235 188.016 43.37C185.275 40.3218 181.441 38.3936 179.297 34.8066Z" fill="#FEEDC3"/>
<path d="M155.093 42.136C157.209 39.7045 160.027 38.0386 162.789 36.4365C166.588 40.5552 171.118 43.8869 174.923 47.9914C176.599 49.9267 179.545 49.1752 181.576 50.5788C176.116 50.6497 170.649 50.7348 165.189 50.5505C161.447 49.4021 158.295 47.0273 155.54 44.3123C155.263 43.6175 155.206 42.859 155.093 42.136Z" fill="#FEE097"/>
<path d="M150.514 48.6656C151.714 46.2766 153.276 44.0933 155.093 42.1367C155.207 42.8598 155.264 43.6183 155.54 44.313C158.295 47.0281 161.448 49.4028 165.189 50.5512C163.862 50.53 162.534 50.5158 161.213 50.4803C161.164 51.5153 161.171 52.5574 161.192 53.5995C166.403 53.5073 171.615 53.6845 176.833 53.6491C176.379 54.4218 175.91 55.1803 175.463 55.9601C178.047 56.9667 180.788 57.4062 183.458 58.1151C176.01 58.3561 168.555 58.1576 161.107 58.1718C161.142 59.1713 161.206 60.1708 161.256 61.1704L160.944 61.1491C160.447 59.6179 160.489 57.7464 159.19 56.6051C156.336 53.9184 153.325 51.4019 150.514 48.6656Z" fill="#FED982"/>
<path d="M150.514 48.6641C153.325 51.4004 156.336 53.9169 159.19 56.6036C160.489 57.7449 160.447 59.6164 160.944 61.1476L161.256 61.1689C164.479 61.1689 167.703 61.1405 170.926 61.261C169.471 62.0479 167.852 62.4094 166.226 62.6221C168.214 63.8059 170.245 64.9118 172.275 66.0318C168.548 66.0744 164.82 66.0602 161.1 66.0389C161.057 67.003 161.022 67.9671 161 68.9312C166.127 68.9383 171.26 69.0446 176.393 69.0446C176.294 69.2927 176.095 69.7748 175.996 70.0229C174.71 70.193 173.411 70.2993 172.119 70.4128C176.904 74.8079 182.151 78.6997 186.411 83.6335C179.773 86.9724 171.778 87.5537 164.834 84.8174C162.52 84.073 160.589 82.5702 158.437 81.514C152.218 84.4062 146.374 88.0924 140.091 90.8429C142.981 83.7895 145.906 76.7573 148.795 69.7039C149.406 68.4704 148.746 67.1377 148.547 65.8901C147.148 60.141 148.043 54.002 150.514 48.6641Z" fill="#FDD36E"/>
<path d="M176.833 53.6494C179.396 53.6494 181.959 53.6849 184.522 53.7132C184.941 54.7269 185.332 55.7973 186.141 56.5842C189.45 59.9443 192.915 63.1556 196.578 66.1329C197.082 66.4449 197.579 67.1538 198.261 66.8277C198.63 66.1259 198.978 65.4099 199.298 64.6797C199.461 64.9704 199.795 65.5446 199.958 65.8352C199.106 69.5781 197.508 73.1368 195.243 76.2346L195.059 76.2701C192.325 77.5177 190.565 74.7318 188.875 73.0942C185.289 69.245 181.043 66.1329 177.06 62.7232C178.622 62.4893 180.142 62.0285 181.569 61.3267C182.314 61.2771 183.06 61.2416 183.812 61.2062C183.834 60.1925 183.862 59.1858 183.891 58.1792L183.457 58.1154C180.788 57.4065 178.047 56.967 175.463 55.9604C175.91 55.1806 176.379 54.4221 176.833 53.6494Z" fill="#FEE098"/>
<path d="M170.926 61.2617C174.469 61.0773 178.019 61.2333 181.569 61.3255C180.142 62.0273 178.622 62.488 177.06 62.722C181.044 66.1317 185.289 69.2437 188.875 73.093C190.565 74.7305 192.325 77.5165 195.059 76.2688C192.837 79.395 189.748 81.7982 186.411 83.6342C182.151 78.7003 176.904 74.8085 172.119 70.4134C173.411 70.3 174.71 70.1937 175.995 70.0235C176.095 69.7754 176.294 69.2934 176.393 69.0452C176.386 68.4072 176.372 67.1313 176.365 66.4933C175.2 65.7418 173.61 66.1743 172.275 66.0325C170.244 64.9124 168.214 63.8066 166.226 62.6227C167.852 62.4101 169.471 62.0485 170.926 61.2617Z" fill="#FED981"/>
<path d="M161.099 66.0393C164.82 66.0606 168.547 66.0748 172.275 66.0322C173.61 66.174 175.2 65.7416 176.364 66.493C176.371 67.131 176.386 68.407 176.393 69.045C171.259 69.045 166.126 68.9387 161 68.9316C161.021 67.9675 161.057 67.0034 161.099 66.0393Z" fill="#FEFFFF"/>
<path d="M233.2 76.7156C239.952 69.2227 252.051 66.3091 260.834 72.0086C260.187 74.1991 258.008 75.1561 256.275 76.3541C253.286 78.2964 250.574 80.6358 247.528 82.4789C245.526 83.4359 243.268 83.6485 241.152 84.2369C240.371 84.3929 239.604 84.5559 238.838 84.719C238.859 85.4278 238.894 86.1438 238.944 86.8527C239.15 87.3135 239.363 87.7743 239.59 88.235C235.891 90.5956 232.256 93.1335 229.018 96.0966L228.734 96.3589C227.243 89.5748 228.607 82.0677 233.2 76.7156Z" fill="#DDEEF9"/>
<path d="M256.275 76.3543C258.007 75.1562 260.187 74.1993 260.833 72.0088C267.869 76.2196 272.314 84.6199 271.121 92.8288C270.986 94.7854 269.971 96.8766 271 98.748C273.123 103.292 276.006 107.46 277.93 112.104C272.768 111.182 267.947 108.942 262.807 107.985C260.003 109.24 257.354 110.891 254.308 111.543C243.538 114.259 231.524 106.893 229.018 96.0968C232.256 93.1337 235.891 90.5958 239.59 88.2352C239.363 87.7745 239.15 87.3137 238.944 86.8529C246.839 86.8033 254.727 86.8671 262.622 86.9167C262.63 86.4205 262.644 85.428 262.651 84.9318C255.494 84.3576 248.273 85.2579 241.152 84.2371C243.268 83.6487 245.526 83.4361 247.528 82.4791C250.574 80.636 253.286 78.2966 256.275 76.3543ZM238.731 89.9011C238.752 90.3903 238.802 91.3685 238.823 91.8577C246.349 91.7442 253.882 91.9285 261.408 91.9002C262.679 92.1767 262.551 90.7731 262.771 89.9791C257.603 89.5183 252.405 89.8161 247.23 89.7097C244.397 89.7806 241.535 89.3624 238.731 89.9011ZM238.745 94.9271C238.752 95.4021 238.766 96.3591 238.773 96.834C244.106 96.8978 249.438 96.9971 254.77 96.8624C254.77 96.4158 254.77 95.5297 254.77 95.0831C249.438 94.757 244.07 94.6365 238.745 94.9271Z" fill="#CFE7F7"/>
<path d="M118.997 76.9005C123.242 74.9014 128.695 78.2332 128.894 82.8906C129.391 86.6193 126.132 89.6534 122.738 90.4473C119.905 91.057 117.207 89.7668 114.431 89.6038C112.528 90.1283 110.384 91.0783 109.362 92.8363C109.057 96.643 109.639 100.471 110.086 104.249C110.505 106.121 110.626 108.552 112.436 109.672C116.32 109.623 119.224 105.433 123.328 106.553L123.988 106.617C124.393 109.58 124.123 112.572 123.995 115.542C123.853 117.612 123.839 119.909 122.362 121.546C121.368 121.447 120.374 121.355 119.38 121.263C115.617 120.745 111.669 120.596 108.212 118.838C107.416 117.64 107.125 116.223 106.87 114.833C106.174 111.026 105.357 107.227 105.024 103.363C104.889 101.471 104.207 99.3652 102.503 98.3373C101.09 97.5504 99.578 98.3869 98.3994 99.195C94.9772 97.2314 96.8232 91.8297 100.132 90.6955C97.803 87.7181 98.5911 82.8268 102.17 81.2389C105.528 79.4667 108.836 82.7134 112.308 81.6359C115.461 81.5083 116.235 77.7795 118.997 76.9005Z" fill="#131436"/>
<path d="M238.837 84.7184C239.604 84.5553 240.371 84.3923 241.152 84.2363C248.273 85.2571 255.494 84.3568 262.651 84.931C262.644 85.4273 262.63 86.4197 262.622 86.9159C254.727 86.8663 246.839 86.8025 238.944 86.8521C238.894 86.1432 238.859 85.4273 238.837 84.7184Z" fill="white"/>
<path d="M238.731 89.8999C241.535 89.3611 244.397 89.7794 247.23 89.7085C252.406 89.8148 257.603 89.5171 262.772 89.9779C262.551 90.7718 262.679 92.1754 261.408 91.8989C253.882 91.9273 246.349 91.743 238.823 91.8564C238.802 91.3673 238.752 90.389 238.731 89.8999Z" fill="white"/>
<path d="M292.414 93.3105C295.886 89.5533 301.289 88.8941 306.124 89.5321C313.182 90.9853 317.726 97.7906 318.613 104.596C321.112 104.369 323.832 104.702 325.678 106.567C327.509 108.105 327.978 110.558 327.871 112.833C330.527 111.309 333.693 110.317 336.697 111.501C338.926 112.507 341.021 114.18 341.816 116.576C342.512 119.022 342.199 121.701 340.943 123.913C344.798 123.289 349.129 124.282 351.614 127.472C353.744 129.733 353.808 133.072 353.318 135.957C352.43 139.161 349.668 141.394 346.8 142.826C349.271 144.152 351.365 146.619 351.323 149.554C351.749 154.728 346.544 158.599 341.752 158.79C341.376 159.35 341.013 159.91 340.658 160.485C340.495 160.768 340.169 161.328 340.005 161.612C340.147 166.928 340.779 172.224 340.872 177.555C336.867 173.67 332.806 169.849 328.851 165.922C330.278 163.994 331.776 162.108 333.189 160.166C334.276 158.741 334.162 156.82 335.113 155.317C334.56 154.09 334.013 152.864 333.488 151.638C333.111 147.874 335.525 144.393 338.976 143.025C335.745 141.798 332.579 139.487 331.734 135.971C330.981 133.611 332.366 131.356 333.445 129.364C329.824 130.052 325.72 128.79 323.789 125.501C322.511 123.665 322.681 121.368 322.958 119.27C319.472 123.133 312.046 121.701 310.91 116.42C310.768 115.945 310.64 115.463 310.526 114.981C311.662 113.393 313.096 111.834 313.366 109.828C313.771 107.673 310.881 105.319 309.056 107.02C307.729 108.615 306.742 110.458 305.542 112.146C305.265 108.729 305.3 104.993 303.206 102.086C301.339 99.3289 297.59 97.5709 294.367 98.9178C292.67 100.421 291.605 102.491 290.291 104.312C288.828 100.605 289.191 95.9901 292.414 93.3105Z" fill="#FF5B5E"/>
<path d="M109.362 92.8351C110.384 91.077 112.528 90.1271 114.431 89.6025C117.207 89.7656 119.905 91.0558 122.738 90.4461C122.561 95.2736 123.54 100.101 126.118 104.234C124.904 104.638 123.576 105.099 123.327 106.552C119.224 105.432 116.32 109.622 112.436 109.671C110.626 108.551 110.505 106.12 110.086 104.248C109.639 100.47 109.057 96.6418 109.362 92.8351Z" fill="#F9AD73"/>
<path d="M98.3995 99.1938C99.5781 98.3856 101.09 97.5492 102.503 98.336C104.207 99.3639 104.889 101.469 105.024 103.362C105.357 107.225 106.174 111.025 106.87 114.832C107.125 116.221 107.416 117.639 108.212 118.837C107.7 121.424 106.976 123.962 106.33 126.514C105.918 129.754 106.856 132.972 106.948 136.212L105.833 136.134C100.615 132.065 95.595 127.727 90.4688 123.544C93.3656 117.582 95.9855 111.5 98.8965 105.545C98.3001 103.511 96.9369 101.193 98.3995 99.1938Z" fill="#F9AD73"/>
<path d="M294.366 98.9176C297.59 97.5707 301.339 99.3287 303.206 102.086C305.3 104.993 305.265 108.729 305.542 112.145C306.742 110.458 307.729 108.615 309.056 107.02C310.881 105.319 313.771 107.672 313.366 109.827C313.096 111.833 311.662 113.393 310.526 114.981C310.64 115.463 310.767 115.945 310.909 116.42C309.887 118.32 308.652 120.12 307.026 121.559C303.604 124.764 298.918 125.791 294.466 126.649C292.293 126.933 289.609 126.756 288.402 124.622C287.309 122.197 287.863 119.419 287.962 116.852C287.124 116.108 286.272 115.385 285.413 114.669C286.386 113.074 287.522 111.571 288.374 109.905C289.084 108.062 289.297 106.042 290.291 104.312C291.605 102.49 292.67 100.42 294.366 98.9176Z" fill="#F9AD73"/>
<path d="M166.268 114.159C168.384 113.004 170.28 111.423 172.552 110.586C173.979 111.047 172.822 112.373 172.396 113.174C171.196 114.804 169.414 115.875 167.816 117.073C167.802 117.505 167.781 118.363 167.766 118.788C172.254 120.007 176.741 121.262 181.228 122.503C183.678 122.999 185.062 125.508 185.353 127.819C180.916 128.564 176.428 128.755 171.955 129.088C168.107 129.074 164.273 128.592 160.439 128.316C160.304 129.173 160.191 130.038 160.105 130.903C157.635 131.406 155.59 129.996 154.262 128.046C155.98 125.721 157.195 123.084 158.48 120.511C160.049 117.356 163.457 115.953 166.268 114.159Z" fill="#F9AD73"/>
<path d="M166.95 158.697C168.59 157.244 170.067 155.585 171.892 154.338C170.997 158.463 170.401 162.837 168.136 166.481C166.29 168.891 163.386 170.068 160.645 171.117C159.665 171.471 158.671 171.798 157.684 172.131C155.988 172.662 154.355 173.407 152.892 174.42C151.124 172.528 149.711 170.351 148.76 167.948C154.837 165.396 156.925 158.428 162.008 154.642C162.427 157.769 160.794 160.512 159.594 163.248C160.73 162.83 161.916 162.476 162.953 161.831C164.38 160.916 165.736 159.881 166.95 158.697Z" fill="#F9AD73"/>
<path d="M342.54 188.578C346.154 187.416 349.782 186.253 353.311 184.842C354.404 187.671 355.931 190.428 356.179 193.505C356.364 195.419 354.83 196.851 353.495 197.971C352.026 197.737 350.726 198.623 349.342 198.928C344.088 199.892 338.713 198.751 333.459 199.637C330.598 199.615 327.736 199.545 324.889 199.311C318.066 197.482 310.945 197.829 303.959 197.609C298.073 197.375 292.655 194.972 287.465 192.427C290.036 190.173 292.705 187.706 295.936 186.501C301.076 188.337 305.996 190.754 311.137 192.605C318.833 192.888 326.622 192.704 334.126 190.818C335.816 190.4 337.527 190.031 339.231 189.627C340.346 189.315 341.439 188.933 342.54 188.578Z" fill="#F9AD73"/>
<path d="M271.505 215.303C280.053 221.86 288.651 228.36 297.192 234.932C296.213 235.144 295.24 235.364 294.26 235.563C290.114 235.307 286.01 234.676 281.934 233.904C282.857 235.073 283.802 236.229 284.661 237.455C285.811 239.256 286.635 241.234 287.728 243.077C291.321 249.272 292.322 256.595 292.386 263.656C292.364 272.17 291.761 280.676 292.13 289.19C292.265 292.189 293.074 295.52 295.794 297.236C295.787 304.771 293.877 312.151 291.42 319.233C289.212 319.949 286.876 319.892 284.682 319.176C287.735 314.044 287.913 307.834 287.962 302.056C284.235 290.672 279.84 279.499 276.567 267.966C274.188 258.793 271.952 249.57 270.518 240.192C269.857 235.995 269.573 231.742 268.7 227.58C268.956 224.461 268.572 221.349 268.48 218.237C269.474 217.252 270.482 216.267 271.505 215.303Z" fill="#F9AD73"/>
<path d="M238.745 94.9273C244.07 94.6367 249.438 94.7572 254.77 95.0833C254.77 95.5299 254.77 96.416 254.77 96.8626C249.438 96.9973 244.106 96.898 238.774 96.8342C238.766 96.3593 238.752 95.4023 238.745 94.9273Z" fill="#FFFEFE"/>
<path d="M24.1405 108.29C25.0635 107.617 26.1782 108.035 27.2006 108.149C29.7353 108.567 32.3126 108.29 34.8686 108.333C46.9457 108.347 59.0228 108.319 71.0928 108.347C73.9044 108.227 76.5456 109.729 78.4342 111.707C79.8258 113.089 79.9891 115.23 81.2316 116.676C84.6822 117.151 88.1328 117.711 91.6189 117.804C91.3065 118.959 91.0225 120.178 90.2273 121.121C89.1765 121.66 87.5506 122.014 87.8843 123.56C79.556 131.024 71.8809 140.254 69.9497 151.582C68.196 160.535 70.3828 169.694 68.7853 178.655C67.5783 186.126 64.8235 193.243 61.877 200.176C51.2199 200.127 40.5557 200.155 29.8915 200.162C27.6834 200.035 25.7522 201.197 24.0056 202.395C24.4458 192.322 24.2825 182.242 24.3677 172.161C24.3393 168.028 24.5452 163.888 24.2186 159.763C24.46 144.522 24.2967 129.273 24.3748 114.032C24.3322 112.026 25.1203 110.155 25.8445 108.333C25.4185 108.319 24.5665 108.304 24.1405 108.29Z" fill="#F0F3F5"/>
<path d="M336.697 111.501C338.692 110.296 340.495 108.311 343.009 108.389C356.974 108.339 370.947 108.439 384.913 108.46C386.333 108.403 387.767 108.346 389.194 108.233C390.011 109.842 390.92 111.515 390.877 113.379C391.04 129.563 390.834 145.747 391.133 161.931C390.87 167.829 390.962 173.748 391.154 179.653C390.643 187.125 391.438 194.625 390.827 202.09C389.109 200.878 387.1 200.013 384.956 200.147C376.201 200.162 367.44 200.154 358.685 200.162C356.144 200.133 353.538 200.459 351.088 199.616C351.692 199.205 352.899 198.382 353.495 197.971C354.83 196.851 356.364 195.419 356.179 193.505C355.931 190.429 354.404 187.671 353.311 184.842L354.163 184.502C349.754 176.449 345.778 168.134 340.659 160.485C341.014 159.911 341.376 159.351 341.752 158.791C346.544 158.599 351.749 154.729 351.323 149.554C351.365 146.619 349.271 144.152 346.8 142.827C349.668 141.395 352.43 139.162 353.318 135.958C353.808 133.072 353.744 129.734 351.614 127.472C349.129 124.282 344.798 123.29 340.943 123.914C342.199 121.702 342.512 119.022 341.816 116.577C341.021 114.181 338.926 112.508 336.697 111.501Z" fill="#F0F3F5"/>
<path d="M327.509 170.02C331.854 176.4 336.441 182.617 340.907 188.912C341.312 188.827 342.135 188.664 342.54 188.579C341.439 188.933 340.346 189.316 339.231 189.628C335.83 183.709 332.138 177.967 328.51 172.189C328.177 171.459 327.836 170.736 327.509 170.02Z" fill="#F0F3F5"/>
<path d="M24.3962 208.364C31.7305 208.159 39.079 208.265 46.4133 208.315C46.6334 217.303 46.8961 226.292 46.7399 235.281C43.5165 235.749 40.2505 235.387 37.0058 235.458C32.7813 235.401 28.5568 235.656 24.3394 235.309C24.3252 226.327 24.3323 217.346 24.3962 208.364Z" fill="#F0F3F5"/>
<path d="M52.6399 208.314C54.5782 208.271 56.5165 208.236 58.4619 208.264C57.1768 211.369 55.913 214.488 54.7557 217.657C62.1397 225.044 70.8798 231.225 80.7488 234.812C77.8804 235.847 74.8061 235.407 71.8312 235.443C65.3915 235.351 58.9518 235.578 52.5121 235.386C52.4908 226.369 52.2139 217.324 52.6399 208.314Z" fill="#F0F3F5"/>
<path d="M348.859 208.294C353.538 208.272 358.217 208.223 362.896 208.279L363.151 208.818C362.526 217.651 363.094 226.519 362.825 235.366C358.43 235.366 353.843 236.195 349.597 234.778C353.303 233.204 356.371 229.567 355.952 225.349C355.299 219.104 351.784 213.695 348.859 208.294Z" fill="#F0F3F5"/>
<path d="M368.583 208.257C375.974 208.307 383.365 208.165 390.756 208.342C390.955 217.352 390.955 226.377 390.763 235.386C383.379 235.528 375.981 235.649 368.604 235.344C368.469 229.51 368.675 223.676 368.519 217.841C368.561 214.644 368.59 211.454 368.583 208.257Z" fill="#F0F3F5"/>
<path d="M16.8489 115.401C17.921 111.977 20.7468 109.368 24.1406 108.29C24.5666 108.305 25.4186 108.319 25.8446 108.333C25.1204 110.155 24.3323 112.026 24.3749 114.032C24.2968 129.274 24.4601 144.522 24.2187 159.763C22.8555 156.374 23.6223 152.603 22.5076 149.137C21.2722 148.981 20.0368 148.825 18.8014 148.683C18.5671 147.79 18.3328 146.896 18.0985 146.01C17.5873 149.902 19.0144 154.233 16.8631 157.757C16.7211 143.643 16.5933 129.515 16.8489 115.401Z" fill="#B6BECA"/>
<path d="M389.194 108.233C394.441 108.183 399.078 113.117 398.687 118.356C398.495 130.52 398.914 142.699 398.41 154.842C397.764 152.907 397.515 150.879 397.501 148.845C395.719 148.668 393.937 148.682 392.169 148.895C391.41 153.212 392.95 157.827 391.133 161.931C390.834 145.747 391.04 129.563 390.877 113.379C390.92 111.515 390.011 109.842 389.194 108.233Z" fill="#B6BECA"/>
<path d="M16.1958 119.036C16.1461 117.788 16.3875 116.555 16.849 115.399C16.5934 129.513 16.7212 143.642 16.8632 157.755C16.565 168.942 16.8632 180.142 16.8064 191.336C16.9058 197.375 16.6928 203.415 16.991 209.448C16.6076 218.826 16.9342 228.226 16.8703 237.619C15.5284 235.095 16.991 231.99 15.8053 229.495C5.5174 218.217 1.83961 202.628 0.966309 187.784C1.23611 170.941 3.2809 153.19 12.9085 138.849C14.1865 136.843 16.5295 135.163 16.2384 132.526C16.2597 128.032 16.21 123.53 16.1958 119.036Z" fill="#EAF5FD"/>
<path d="M307.026 121.56C308.652 120.121 309.887 118.321 310.91 116.421C312.046 121.702 319.472 123.134 322.958 119.271C322.681 121.369 322.511 123.666 323.789 125.502C325.72 128.791 329.824 130.053 333.445 129.365C332.366 131.357 330.981 133.611 331.734 135.972C332.579 139.488 335.745 141.799 338.976 143.025C335.525 144.394 333.111 147.874 333.488 151.638C327.573 145.138 320.367 139.885 313.096 135.001C310.931 130.584 309.163 125.984 307.026 121.56Z" fill="#F0F8FD"/>
<path d="M108.212 118.838C111.669 120.596 115.617 120.745 119.38 121.262C119.067 121.525 118.428 122.056 118.116 122.326C128.78 123.999 139.246 126.877 149.967 128.302C150.961 128.252 151.465 129.223 152.104 129.804C142.377 139.991 132.408 149.944 122.632 160.088C118.876 152.595 115.425 144.946 111.527 137.524C112.585 137.957 113.643 138.389 114.701 138.829C114.225 138.148 113.757 137.482 113.288 136.801C110.924 133.398 108.652 129.939 106.33 126.515C106.976 123.963 107.7 121.425 108.212 118.838Z" fill="#F6FBFD"/>
<path d="M160.645 171.119C163.386 170.07 166.29 168.893 168.136 166.483C168.093 167.574 168.022 168.73 168.661 169.694C172.36 176.648 176.365 183.439 179.851 190.507C180.646 192.435 182.641 193.931 182.513 196.157C176.173 196.674 169.783 195.979 163.443 196.504C159.445 197.213 155.391 196.766 151.358 196.844C143.534 196.922 135.71 196.887 127.879 196.866C126.885 196.943 125.706 196.731 124.925 197.504C123.15 199.276 124.606 202.147 124.946 204.295C125.287 205.968 126.97 206.903 128.603 206.769C154.624 206.811 180.653 206.733 206.674 206.79L206.923 207.47C206.426 224.08 206.831 240.703 206.66 257.312C206.596 259.971 206.696 262.629 206.845 265.287C206.795 273.56 206.412 281.833 206.76 290.106C206.589 293.898 206.611 297.684 206.781 301.476C206.568 306.197 206.582 310.926 206.781 315.647C206.703 317.135 206.632 318.631 206.575 320.127C200.597 320.247 194.583 319.702 188.633 320.481C188.47 320.496 188.143 320.531 187.973 320.545C187.377 318.915 186.773 317.291 186.163 315.675C186.993 315.363 187.824 315.051 188.669 314.761C184.586 301.49 181.462 287.958 178.48 274.404C175.442 261.084 172.417 247.679 167.277 234.975C166.275 232.352 164.905 229.886 164.103 227.192C164.188 224.03 164.33 220.727 163.301 217.7C161.724 215.141 158.686 214.084 156.023 213.057C146.573 209.98 136.633 208.902 126.814 207.761C120.104 206.677 113.274 206.499 106.572 205.372C107.317 201.275 108.616 197.305 109.667 193.279C114.552 193.158 119.053 191.038 123.441 189.096C130.605 185.8 137.648 182.27 144.848 179.051C147.673 179.81 150.513 180.639 153.467 180.611C154 180.682 155.072 180.823 155.604 180.894C157.251 177.619 158.92 174.358 160.645 171.119Z" fill="#F6FBFD"/>
<path d="M294.466 126.65C298.918 125.793 303.604 124.765 307.026 121.561C309.163 125.984 310.931 130.585 313.096 135.001C310.051 136.546 306.742 137.879 303.284 137.943C302.049 138.092 301.225 137.043 300.324 136.412C299.528 133.009 298.577 129.628 297.271 126.388C296.568 126.459 295.169 126.587 294.466 126.65Z" fill="#F2A972"/>
<path d="M88.9707 122.311C89.3399 122.615 90.0925 123.239 90.4688 123.544C95.595 127.726 100.615 132.065 105.833 136.134C105.826 137.268 105.769 138.402 105.89 139.537C106.508 141.16 108.595 141.947 108.702 143.811C109.156 148.582 109.248 153.388 109.823 158.152C110.171 161.767 110.746 165.404 110.257 169.033C110.15 168.849 109.937 168.473 109.831 168.282C109.781 158.194 107.594 147.745 101.893 139.281C100.664 141.21 99.7698 143.329 99.3935 145.598C94.1892 138.906 90.5043 130.98 89.0275 122.615L88.9707 122.311Z" fill="#F16F12"/>
<path d="M106.948 136.212C106.856 132.972 105.918 129.754 106.33 126.514C108.652 129.938 110.924 133.398 113.288 136.8L113.48 137.871C112.607 137.63 111.733 137.382 110.867 137.141C110.888 137.36 110.938 137.807 110.966 138.027C109.774 137.141 108.524 136.134 106.948 136.212Z" fill="#F16F12"/>
<path d="M107.111 192.711C107.949 192.938 108.801 193.115 109.667 193.278C108.617 197.305 107.317 201.274 106.572 205.372C113.274 206.499 120.104 206.676 126.814 207.761C129.192 209.519 132.295 209.278 135.071 209.845C141.859 210.774 148.405 212.964 154.696 215.629C157.046 216.629 159.339 218.096 160.596 220.393C161.803 222.64 162.839 224.973 164.103 227.191C164.905 229.885 166.276 232.352 167.277 234.975C172.417 247.678 175.442 261.083 178.481 274.403C181.463 287.957 184.587 301.49 188.669 314.76C187.824 315.051 186.993 315.363 186.163 315.675C182.769 316.958 179.375 318.234 176.024 319.595C175.406 319.829 174.796 320.063 174.185 320.29C173.645 319.354 173.127 318.404 172.63 317.447C167.255 307.459 161.81 297.499 156.84 287.305C150.854 275.119 146.105 262.381 142.157 249.401C139.367 242.418 140.638 234.791 140.048 227.489C134.51 230.629 128.844 233.692 122.618 235.237C114.502 235.889 106.366 236.421 98.2222 236.308C100.934 221.726 104.293 207.272 107.111 192.711Z" fill="#272D77"/>
<path d="M40.1937 324.429C43.1189 323.145 46.8038 325.669 46.5198 328.873C46.6121 332.198 42.3095 334.658 39.5618 332.623C36.3242 330.915 36.7715 325.662 40.1937 324.429Z" fill="#272D77"/>
<path d="M68.6151 324.414C71.5474 323.167 75.1542 325.669 74.9412 328.852C74.9696 332.17 70.7309 334.672 67.9477 332.623C64.6816 330.901 65.1857 325.655 68.6151 324.414Z" fill="#272D77"/>
<path d="M96.9937 324.379C99.9259 323.216 103.476 325.712 103.192 328.888C103.313 332.375 98.655 334.75 95.957 332.425C92.9325 330.553 93.6567 325.478 96.9937 324.379Z" fill="#272D77"/>
<path d="M315.02 324.394C317.967 323.182 321.538 325.67 321.283 328.874C321.389 332.426 316.639 334.793 313.955 332.362C311.023 330.441 311.783 325.564 315.02 324.394Z" fill="#272D77"/>
<path d="M343.357 324.4C346.033 323.308 349.186 325.265 349.59 328.065C350.272 331.609 345.721 334.849 342.682 332.652C339.352 331 339.849 325.534 343.357 324.4Z" fill="#272D77"/>
<path d="M371.749 324.386C374.944 323.053 378.722 326.229 377.912 329.575C377.401 332.73 373.184 334.587 370.677 332.389C367.667 330.497 368.448 325.506 371.749 324.386Z" fill="#272D77"/>
<path d="M87.8845 123.559L89.0276 122.616C90.5044 130.981 94.1893 138.906 99.3936 145.598C99.7699 143.33 100.664 141.21 101.893 139.282C107.594 147.746 109.781 158.195 109.831 168.283C103.646 159.422 98.925 149.582 92.6202 140.785C90.7529 138.375 88.6868 135.305 85.3001 135.234C82.1193 135.341 80.1668 138.354 78.6261 140.764C75.9636 145.145 74.1744 151.036 76.915 155.792C81.5158 163.363 86.2728 170.863 91.5552 177.995C95.8365 183.68 100.366 189.805 107.111 192.711C104.293 207.272 100.934 221.726 98.2221 236.308C98.0659 237.102 97.9097 237.903 97.7535 238.704C93.7775 238.534 89.9009 237.555 86.0598 236.57C84.2706 236.031 82.5098 235.422 80.749 234.812C70.88 231.225 62.1399 225.043 54.7559 217.657C55.9132 214.488 57.177 211.369 58.4621 208.264C64.8237 208.285 71.1782 208.314 77.5398 208.243C77.2061 206.109 76.5316 203.982 74.9696 202.423C71.4196 199.077 66.265 200.438 61.8772 200.176C64.8237 193.243 67.5785 186.126 68.7855 178.654C70.383 169.693 68.1962 160.535 69.9499 151.581C71.8811 140.253 79.5562 131.024 87.8845 123.559Z" fill="#FF7D21"/>
<path d="M152.104 129.805C152.715 129.089 153.396 128.437 154.262 128.047C155.59 129.996 157.635 131.407 160.106 130.904C160.809 131.797 159.85 132.761 159.594 133.619C153.545 146.074 147.304 158.692 138.252 169.283C130.811 171.232 123.214 172.459 115.667 173.884C116.178 170.438 117.861 167.177 117.818 163.668C116.824 157.459 115.283 151.298 112.855 145.478C111.875 143.104 111.158 140.601 110.967 138.028C110.938 137.808 110.888 137.362 110.867 137.142C111.733 137.383 112.607 137.631 113.48 137.872L113.288 136.802C113.757 137.482 114.225 138.149 114.701 138.829C113.643 138.39 112.585 137.957 111.527 137.525C115.425 144.947 118.876 152.596 122.632 160.089C132.409 149.944 142.377 139.992 152.104 129.805Z" fill="#F17720"/>
<path d="M177.181 134.186C177.806 134.186 179.07 134.179 179.694 134.172C175.314 142.274 171.274 150.561 166.95 158.699C165.736 159.883 164.38 160.918 162.953 161.833C167.766 152.653 172.46 143.416 177.181 134.186Z" fill="#140E41"/>
<path d="M78.626 140.764C80.1667 138.353 82.1192 135.341 85.3 135.234C88.6867 135.305 90.7528 138.375 92.6201 140.785C98.9249 149.582 103.646 159.422 109.831 168.283C109.937 168.474 110.15 168.85 110.257 169.034C111.243 170.941 112.252 172.848 113.622 174.521C114.296 174.294 114.978 174.081 115.667 173.883C123.214 172.458 130.811 171.232 138.252 169.282C141.71 168.885 145.096 168.098 148.504 167.382L148.76 167.95C149.711 170.353 151.124 172.529 152.892 174.422C152.991 174.684 153.183 175.194 153.275 175.457C150.428 176.555 147.624 177.782 144.848 179.051C137.648 182.269 130.605 185.799 123.441 189.096C119.053 191.038 114.552 193.158 109.667 193.278C108.801 193.115 107.949 192.938 107.111 192.711C100.366 189.805 95.8364 183.68 91.5551 177.995C86.2727 170.863 81.5157 163.363 76.9149 155.792C74.1743 151.035 75.9635 145.145 78.626 140.764Z" fill="#E16914"/>
<path d="M303.284 137.943C306.742 137.879 310.05 136.546 313.096 135.001C320.367 139.885 327.573 145.138 333.487 151.639C334.013 152.865 334.559 154.091 335.113 155.318C334.162 156.821 334.275 158.742 333.189 160.166C331.776 162.109 330.278 163.995 328.851 165.923C332.806 169.85 336.867 173.671 340.871 177.556C340.779 172.225 340.147 166.929 340.005 161.613C340.168 161.329 340.495 160.769 340.658 160.486C345.777 168.134 349.753 176.45 354.163 184.503L353.311 184.843C349.782 186.254 346.154 187.416 342.54 188.579C342.135 188.664 341.312 188.827 340.907 188.912C336.441 182.617 331.854 176.4 327.509 170.02C327.836 170.736 328.177 171.459 328.51 172.189C328.581 173.316 328.539 174.5 328.979 175.578C330.754 180.632 333.04 185.545 334.126 190.819C326.622 192.704 318.833 192.889 311.137 192.605C305.414 187.232 299.287 182.192 294.444 175.961C297.696 175.677 301.026 176.336 304.207 175.429C300.771 174.486 296.837 174.67 293.94 172.317C291.881 170.892 290.717 168.609 289.773 166.362C289.283 163.342 290.05 160.301 290.866 157.409C292.804 150.88 295.708 144.699 298.626 138.56C298.974 137.688 299.656 137.043 300.323 136.412C301.225 137.043 302.049 138.092 303.284 137.943Z" fill="#013551"/>
<path d="M105.833 136.136L106.948 136.214C108.524 136.136 109.773 137.143 110.966 138.029C111.158 140.602 111.875 143.104 112.855 145.479C115.283 151.299 116.824 157.459 117.818 163.669C117.86 167.178 116.178 170.439 115.666 173.884C114.978 174.083 114.296 174.295 113.622 174.522C112.251 172.849 111.243 170.942 110.256 169.035C110.746 165.406 110.171 161.769 109.823 158.154C109.248 153.39 109.156 148.584 108.701 143.813C108.595 141.949 106.507 141.162 105.89 139.539C105.769 138.404 105.826 137.27 105.833 136.136Z" fill="#AA4700"/>
<path d="M318.812 199.148C320.835 199.212 322.859 199.261 324.889 199.311C327.736 199.545 330.598 199.616 333.459 199.637C337.023 200.098 340.616 200.048 344.208 200.204C343.072 200.693 341.972 201.26 340.935 201.92C339.047 203.5 337.982 205.833 337.776 208.264C341.468 208.271 345.167 208.257 348.859 208.292C351.784 213.694 355.299 219.103 355.952 225.348C356.371 229.566 353.303 233.203 349.597 234.776C347.73 235.521 345.785 236.251 343.747 236.18C338.926 236.095 334.112 236.109 329.291 236.031C319.436 235.811 309.575 235.854 299.72 235.748C298.797 235.783 297.966 235.379 297.192 234.932C288.651 228.361 280.053 221.861 271.504 215.303C271.135 214.998 270.404 214.403 270.035 214.105C277.397 211.525 284.874 209.207 292.506 207.576C293.763 207.321 295.012 207.016 296.241 206.634C303.099 204.585 310.121 203.032 316.831 200.48C317.548 200.126 318.208 199.679 318.812 199.148Z" fill="#013551"/>
<path d="M16.8633 157.756C19.0146 154.233 17.5875 149.902 18.0987 146.01C18.333 146.896 18.5673 147.789 18.8016 148.682C20.037 148.824 21.2724 148.98 22.5078 149.136C23.6225 152.602 22.8557 156.374 24.2189 159.762C24.5455 163.888 24.3396 168.028 24.368 172.161C24.2828 182.241 24.4461 192.321 24.0059 202.395C22.0037 202.345 20.0086 202.607 18.0206 202.792C17.9993 205.046 18.0064 207.371 16.9911 209.448C16.6929 203.415 16.9059 197.376 16.8065 191.336C16.8633 180.143 16.5651 168.942 16.8633 157.756Z" fill="#C8CFD8"/>
<path d="M392.169 148.895C393.937 148.682 395.719 148.668 397.501 148.845C397.515 150.88 397.764 152.907 398.41 154.842C398.921 160.669 398.63 166.603 398.495 172.465C398.084 171.494 397.643 170.537 397.217 169.58C395.542 169.452 393.866 169.424 392.19 169.481C391.857 172.869 392.808 176.506 391.154 179.653C390.962 173.748 390.87 167.829 391.133 161.931C392.95 157.827 391.409 153.212 392.169 148.895Z" fill="#C2C9D3"/>
<path d="M289.773 166.362C290.717 168.609 291.882 170.892 293.941 172.317C296.837 174.67 300.771 174.486 304.207 175.429C301.026 176.336 297.697 175.677 294.445 175.961C292.258 173.125 290.426 169.921 289.773 166.362Z" fill="#240C2D"/>
<path d="M392.19 169.481C393.866 169.424 395.542 169.453 397.217 169.58C397.643 170.537 398.083 171.494 398.495 172.465C398.921 180.625 398.509 188.841 398.63 197.021C398.502 201.112 398.872 205.216 398.382 209.292C398.041 208.094 397.65 206.917 397.281 205.748C396.11 205.556 394.945 205.372 393.795 205.166C392.9 204.231 392.006 203.252 390.785 202.756L390.827 202.09C391.438 194.625 390.643 187.125 391.154 179.654C392.808 176.506 391.857 172.869 392.19 169.481Z" fill="#CDD3DB"/>
<path d="M157.685 172.132C158.672 171.799 159.666 171.473 160.645 171.118C158.92 174.358 157.252 177.619 155.604 180.894C155.072 180.823 154 180.681 153.467 180.61C154.703 177.704 156.314 174.975 157.685 172.132Z" fill="#17123D"/>
<path d="M135.007 319.099L135.462 319.163C139.431 319.893 143.442 320.672 147.489 320.034C153.155 324.437 159.694 327.449 166.127 330.533C167.674 330.873 167.284 332.405 167.114 333.574C161.334 332.972 155.633 331.802 149.861 331.164C147.56 330.923 146.474 328.18 144.088 328.045C142.718 327.846 141.987 329.236 141.426 330.228C138.387 329.619 135.313 329.243 132.302 328.499C133.168 325.351 134.262 322.275 135.007 319.099Z" fill="#17123D"/>
<path d="M328.511 172.188C332.139 177.966 335.831 183.708 339.232 189.627C337.528 190.031 335.817 190.4 334.127 190.818C333.041 185.544 330.754 180.631 328.979 175.577C328.539 174.499 328.582 173.316 328.511 172.188Z" fill="#270C33"/>
<path d="M295.794 297.236C297.476 297.094 299.379 296.988 300.65 298.328C300.316 307.068 296.717 315.143 293.926 323.295C289.524 325.585 283.965 325.776 279.464 323.656C280.585 321.714 282.282 320.24 284.157 319.056L284.682 319.176C286.876 319.892 289.212 319.949 291.42 319.233C293.877 312.151 295.787 304.772 295.794 297.236Z" fill="#270C33"/>
<path d="M236.104 326.981C241.862 327.116 247.421 325.343 252.562 322.884C254.252 324.188 254.891 326.3 254.607 328.37C249.551 329.902 244.518 331.546 239.32 332.532C236.26 332.964 233.172 332.503 230.097 332.489C230.211 332.078 230.445 331.256 230.559 330.844C231.745 328.222 234.031 326.393 236.189 324.592C236.168 325.187 236.125 326.386 236.104 326.981Z" fill="#270C33"/>
<path d="M287.054 192.859L287.465 192.427C292.656 194.972 298.073 197.375 303.959 197.609C310.945 197.828 318.066 197.481 324.89 199.31C322.859 199.26 320.835 199.211 318.812 199.147C312.5 198.75 306.11 199.395 299.862 198.197C298.485 197.885 297.121 197.531 295.751 197.233C292.556 196.311 289.737 194.511 286.649 193.334L287.054 192.859Z" fill="#E39C66"/>
<path d="M255.601 273.545C259.754 258.169 262.814 242.418 268.7 227.581C269.573 231.742 269.857 235.995 270.518 240.192C271.952 249.57 274.188 258.793 276.567 267.966C271.888 279.23 265.534 289.679 259.974 300.511C257.134 305.963 254.138 311.329 251.355 316.809C251.163 318.864 252.086 320.885 252.562 322.884C247.421 325.344 241.862 327.116 236.104 326.981C236.125 326.386 236.168 325.188 236.189 324.592C236.53 324.287 237.219 323.685 237.567 323.387C237.836 323.153 238.376 322.692 238.646 322.458C241.145 319.672 245.796 318.29 246.001 314.008C249.133 300.504 251.781 286.879 255.601 273.545Z" fill="#E39C66"/>
<path d="M136.498 315C139.856 315.333 143.193 315.794 146.537 316.22C146.829 317.495 147.148 318.764 147.489 320.033C143.442 320.671 139.43 319.891 135.461 319.161C135.696 317.744 136.037 316.354 136.498 315Z" fill="#E39C66"/>
<path d="M176.024 319.594C179.375 318.233 182.769 316.957 186.163 315.674C186.773 317.29 187.377 318.913 187.973 320.544C184.033 321.55 179.964 321.784 175.924 321.274C175.946 320.856 175.995 320.012 176.024 319.594Z" fill="#E39C66"/>
<path d="M349.342 198.928C350.726 198.624 352.026 197.738 353.495 197.971C352.899 198.383 351.692 199.205 351.088 199.616C348.845 200.219 346.509 200.254 344.209 200.204C340.616 200.049 337.023 200.098 333.459 199.637C338.713 198.751 344.088 199.893 349.342 198.928Z" fill="#D59A6A"/>
<path d="M298.641 198.545C298.946 198.46 299.557 198.282 299.862 198.197C306.11 199.395 312.5 198.75 318.812 199.147C318.208 199.679 317.548 200.125 316.831 200.48C310.121 203.032 303.1 204.584 296.241 206.633C296.482 204.882 296.695 203.131 297.001 201.394C297.242 201.267 297.725 201.019 297.966 200.891C298.186 200.111 298.414 199.324 298.641 198.545Z" fill="#F7FBFE"/>
<path d="M344.209 200.204C346.509 200.253 348.845 200.218 351.089 199.615C353.538 200.459 356.144 200.133 358.686 200.161C367.44 200.154 376.201 200.161 384.956 200.147C387.1 200.012 389.109 200.877 390.827 202.089L390.785 202.756C377.245 202.571 363.698 202.663 350.158 202.628C347.077 202.607 343.875 203.146 340.936 201.919C341.972 201.26 343.073 200.693 344.209 200.204Z" fill="#BDC4CC"/>
<path d="M24.0056 202.394C25.7522 201.196 27.6834 200.033 29.8915 200.161C40.5557 200.154 51.2199 200.125 61.877 200.175C66.2648 200.437 71.4194 199.076 74.9694 202.422C59.9671 202.982 44.9364 202.415 29.927 202.706C27.9461 202.777 25.9723 202.599 24.0056 202.394Z" fill="#BEC4CC"/>
<path d="M125.096 201.26C166.261 201.182 207.427 201.253 248.593 201.225C264.731 201.338 280.87 201.012 297.001 201.395C296.696 203.132 296.482 204.882 296.241 206.633C295.013 207.016 293.763 207.321 292.507 207.576C290.384 206.314 287.849 206.846 285.513 206.768C262.048 206.782 238.575 206.754 215.109 206.782C215.074 213.084 215.166 219.393 215.067 225.695C212.078 219.748 209.863 213.446 206.923 207.47L206.675 206.789C180.653 206.733 154.625 206.811 128.603 206.768C126.97 206.903 125.287 205.967 124.947 204.294C124.975 203.28 125.025 202.267 125.096 201.26Z" fill="#A5AEBD"/>
<path d="M46.953 208.285C48.7138 208.243 50.4817 208.257 52.2425 208.328C50.6592 211.355 49.0262 214.389 47.0098 217.153C46.8323 214.197 46.8891 211.241 46.953 208.285Z" fill="#A5AEBD"/>
<path d="M297.193 234.931C297.966 235.378 298.797 235.782 299.72 235.747C309.575 235.853 319.437 235.811 329.292 236.03C329.938 239.093 332.046 241.482 334.844 242.814C321.95 242.743 309.057 242.807 296.17 242.772C292.592 242.992 289.446 240.121 288.779 236.711C290.611 236.342 292.436 235.952 294.26 235.562C295.24 235.364 296.213 235.144 297.193 234.931Z" fill="#A5AEBD"/>
<path d="M98.2222 236.307C106.366 236.421 114.502 235.889 122.618 235.237C123.988 235.393 125.344 235.62 126.714 235.839C126.175 239.462 123.25 242.85 119.373 242.744C106.295 242.843 93.2096 242.673 80.1243 242.829C82.9998 241.759 85.0659 239.434 86.0599 236.57C89.901 237.555 93.7776 238.533 97.7536 238.703C97.9098 237.902 98.066 237.101 98.2222 236.307Z" fill="#A5AEBD"/>
<path d="M67.0391 243.354C69.1123 242.262 71.5262 242.808 73.7627 242.737C73.7627 244.509 73.7485 246.281 73.7485 248.061C73.6491 252.52 74.0112 256.993 73.5639 261.43C71.4055 256.014 70.0495 250.308 67.6994 244.956C67.5361 244.559 67.2024 243.758 67.0391 243.354Z" fill="#A5AEBD"/>
<path d="M341.511 242.815C343.719 242.787 345.927 242.773 348.135 242.808C348.092 248.947 348.334 255.1 348.014 261.232C345.664 255.462 344.024 249.436 341.802 243.623L341.511 242.815Z" fill="#A5AEBD"/>
<path d="M311.222 324.543C311.769 321.828 313.48 318.227 316.746 318.397C325.06 318.404 333.374 318.397 341.688 318.411C341.66 318.78 341.596 319.517 341.56 319.886C333.069 319.921 324.57 319.794 316.079 319.921C313.899 319.886 313.097 322.204 312.209 323.77C311.961 323.962 311.471 324.352 311.222 324.543Z" fill="#A5AEBD"/>
<path d="M348.085 318.453C356.328 318.311 364.586 318.467 372.836 318.375C374.277 318.333 375.754 318.396 377.096 319.02L376.521 319.885C367 319.892 357.464 319.85 347.943 319.878C347.979 319.523 348.05 318.807 348.085 318.453Z" fill="#A5AEBD"/>
<path d="M215.109 206.782C238.575 206.754 262.047 206.782 285.513 206.768C287.849 206.846 290.384 206.315 292.506 207.576C284.874 209.207 277.398 211.525 270.035 214.105C270.404 214.403 271.135 214.998 271.505 215.303C270.482 216.267 269.474 217.253 268.48 218.238C268.572 221.35 268.956 224.462 268.7 227.581C262.814 242.418 259.754 258.17 255.601 273.545C251.781 286.88 249.133 300.505 246.001 314.009C245.796 318.291 241.145 319.673 238.646 322.459C236.779 321.062 234.578 320.155 232.227 320.155C226.526 319.956 220.811 320.176 215.109 320.077C215.074 312.662 215.01 305.261 214.996 297.853C215.28 289.368 215.031 280.875 214.953 272.39C215.216 256.83 214.84 241.263 215.067 225.696C215.166 219.393 215.074 213.084 215.109 206.782Z" fill="#FAFCFE"/>
<path d="M126.814 207.761C136.633 208.902 146.573 209.98 156.023 213.056C158.686 214.084 161.724 215.14 163.301 217.699C164.33 220.726 164.188 224.03 164.103 227.191C162.839 224.973 161.802 222.64 160.595 220.393C159.339 218.096 157.045 216.629 154.695 215.629C148.405 212.964 141.859 210.774 135.071 209.845C132.295 209.278 129.192 209.519 126.814 207.761Z" fill="#1B1448"/>
<path d="M122.618 235.237C128.844 233.692 134.51 230.63 140.048 227.489C140.637 234.791 139.367 242.418 142.157 249.401C146.104 262.381 150.854 275.119 156.84 287.305C155.256 295.706 153.78 304.134 151.728 312.442C151.394 313.832 151.039 315.214 150.769 316.618C149.349 316.589 147.936 316.419 146.538 316.221C143.193 315.796 139.856 315.335 136.498 315.002C135.391 314.888 134.283 314.81 133.175 314.746C133.147 308.019 133.296 301.277 133.679 294.557C134.432 279.252 135.036 263.869 137.861 248.77C138.245 246.133 139.019 243.553 139.232 240.901C139.019 238.761 138.074 236.783 137.407 234.762C132.472 234.748 127.545 235.025 122.618 235.237Z" fill="#1B1448"/>
<path d="M187.973 320.545C188.144 320.531 188.47 320.496 188.633 320.482C189.684 321.127 190.728 321.786 191.836 322.346C197.452 324.94 203.494 326.394 209.365 328.315C209.365 328.832 209.373 329.874 209.38 330.392V330.768C204.218 330.76 199.049 330.824 193.887 330.881C192.375 330.867 190.685 331.172 189.45 330.087C188.25 329.222 186.766 329.01 185.367 328.676C184.835 329.321 184.295 329.981 183.891 330.725L183.557 331.448C180.497 331.391 177.444 331.299 174.391 331.257C174.831 327.925 175.108 324.565 175.79 321.268L175.924 321.276C179.964 321.786 184.033 321.552 187.973 320.545Z" fill="#1B1448"/>
<path d="M362.896 208.278C364.792 208.278 366.687 208.271 368.583 208.257C368.59 211.454 368.562 214.644 368.519 217.841C366.837 214.772 365.012 211.78 363.152 208.817L362.896 208.278Z" fill="#A4ADBC"/>
<path d="M281.935 233.904C286.01 234.677 290.114 235.308 294.26 235.563C292.435 235.953 290.611 236.343 288.779 236.711C287.409 236.981 286.031 237.215 284.661 237.456C283.802 236.229 282.858 235.074 281.935 233.904Z" fill="#E29A64"/>
<path d="M122.618 235.237C127.545 235.025 132.473 234.748 137.407 234.762C138.075 236.783 139.019 238.76 139.232 240.901C139.019 243.552 138.245 246.133 137.862 248.77C135.036 263.869 134.432 279.252 133.68 294.557C132.586 296.613 132.742 298.973 132.686 301.228C129.895 300.051 127.922 297.57 125.5 295.819C120.637 292.168 116.924 287.333 112.962 282.797C104.676 272.943 96.8377 262.423 86.2658 254.859C82.375 252.08 77.973 250.23 73.7485 248.061C73.7485 246.282 73.7627 244.509 73.7627 242.737C75.8856 242.773 78.0014 242.872 80.1243 242.829C93.2096 242.673 106.295 242.844 119.373 242.744C123.25 242.851 126.175 239.462 126.715 235.84C125.344 235.62 123.988 235.393 122.618 235.237Z" fill="#EFF8FD"/>
<path d="M214.229 260.829C214.385 264.685 214.264 268.57 214.953 272.391C215.031 280.876 215.28 289.369 214.996 297.854C214.811 296.975 214.626 296.103 214.449 295.232C214.768 291.283 214.641 287.313 214.165 283.386C213.86 285.009 213.647 286.64 213.469 288.284C211.843 288.327 210.224 288.32 208.613 288.214C208.293 287.342 207.988 286.477 207.676 285.612C207.356 287.101 207.015 288.596 206.76 290.106C206.412 281.834 206.795 273.561 206.845 265.288C207.108 264.352 207.399 263.438 207.683 262.523C208.449 265.444 211.581 263.785 213.576 263.452C213.789 262.573 214.009 261.701 214.229 260.829Z" fill="#C9CFD8"/>
<path d="M67.5002 279.649C67.8623 280.911 68.2528 282.166 68.6291 283.435C69.7793 283.463 70.9295 283.47 72.0868 283.449C72.4702 282.166 72.8891 280.897 73.2938 279.621C73.7553 284.03 73.8547 288.574 73.4358 292.969C72.953 294.21 72.4702 295.451 72.0087 296.705C70.8798 296.911 69.758 297.124 68.6362 297.343C68.4161 295.84 68.0114 294.373 67.4221 292.977C66.9109 288.596 67.1381 284.059 67.5002 279.649Z" fill="#CAD1D9"/>
<path d="M343.385 283.86C345.295 283.747 347.07 282.981 348.057 281.266C348.107 283.832 348.383 286.426 347.986 288.978C347.51 290.176 347.027 291.389 346.303 292.466C345.38 292.984 344.287 292.984 343.278 293.196C343.115 292.757 342.789 291.885 342.625 291.445C342.384 293.359 342.086 295.273 341.823 297.194C341.468 293.912 341.468 290.588 341.823 287.312C342.071 285.611 342.306 283.903 342.512 282.201C342.796 282.754 343.087 283.3 343.385 283.86Z" fill="#CCD3DB"/>
<path d="M213.469 288.283C213.647 286.639 213.86 285.008 214.165 283.385C214.641 287.312 214.768 291.282 214.449 295.23C214.094 296.726 213.746 298.222 213.448 299.732C211.282 299.966 208.499 300.469 207.633 297.889C207.342 299.08 207.044 300.271 206.781 301.476C206.611 297.683 206.589 293.898 206.76 290.105C207.015 288.595 207.356 287.099 207.676 285.611C207.988 286.476 208.293 287.34 208.613 288.212C210.224 288.319 211.843 288.326 213.469 288.283Z" fill="#BBC2CE"/>
<path d="M156.84 287.305C161.81 297.498 167.255 307.458 172.63 317.447C172.069 317.893 171.65 319.112 170.748 318.694C165.835 317.028 160.837 315.568 156.094 313.441C154.724 312.796 153.211 312.598 151.728 312.442C153.779 304.134 155.256 295.705 156.84 287.305Z" fill="#F1F8FD"/>
<path d="M346.303 292.465C347.027 291.388 347.51 290.176 347.986 288.978C348.149 294.826 348.334 300.731 347.986 306.558C347.368 308.238 346.729 309.911 346.189 311.627C345.316 311.634 344.45 311.655 343.591 311.655C343.186 310.733 342.803 309.805 342.412 308.883C342.171 311.853 342.064 314.831 341.745 317.787C341.369 310.939 341.567 304.049 341.823 297.194C342.086 295.272 342.384 293.358 342.625 291.444C342.789 291.884 343.115 292.756 343.278 293.195C344.287 292.983 345.38 292.983 346.303 292.465Z" fill="#BAC2CD"/>
<path d="M67.4223 292.976C68.0116 294.372 68.4163 295.84 68.6364 297.343C69.7582 297.123 70.88 296.91 72.0089 296.705C72.4704 295.45 72.9532 294.209 73.436 292.969C73.6703 296.031 73.9756 299.186 73.4644 302.22C72.8751 303.694 72.4207 305.225 72.1438 306.799C70.9794 306.842 69.8221 306.863 68.6648 306.87C68.3879 305.289 67.9406 303.751 67.3726 302.262C66.8827 299.214 67.1454 296.045 67.4223 292.976Z" fill="#BCC3CE"/>
<path d="M213.448 299.732C213.746 298.222 214.094 296.726 214.449 295.23C214.626 296.102 214.811 296.974 214.996 297.853C215.01 305.261 215.074 312.662 215.109 320.077L214.669 320.049C214.321 316.348 214.847 312.591 214.115 308.926C213.853 310.564 213.675 312.215 213.519 313.874C211.836 313.924 210.153 313.91 208.478 313.839C208.208 312.69 207.945 311.542 207.683 310.401C207.413 312.152 207.079 313.895 206.781 315.646C206.582 310.925 206.568 306.197 206.781 301.476C207.044 300.271 207.342 299.08 207.633 297.889C208.499 300.469 211.282 299.966 213.448 299.732Z" fill="#B0B9C6"/>
<path d="M67.3726 302.262C67.9406 303.751 68.3879 305.289 68.6648 306.87C69.8221 306.863 70.9794 306.842 72.1438 306.799C72.4207 305.225 72.8751 303.694 73.4644 302.22C73.8194 307.48 73.7484 312.768 73.649 318.042C75.5872 318.567 77.6036 318.319 79.5845 318.347C86.4715 318.361 93.3514 318.333 100.238 318.354C101.587 318.205 102.723 319.155 103.199 320.36V321.19C100.892 319.396 97.9167 319.914 95.2045 319.892C77.4688 319.935 59.7401 319.871 42.0114 319.914C40.0873 319.814 39.0152 321.707 37.723 322.813L37.439 321.856C38.5111 320.303 39.7962 318.226 41.9617 318.354C50.3184 318.333 58.6751 318.361 67.0318 318.354C67.33 312.995 66.8969 307.607 67.3726 302.262Z" fill="#ADB5C3"/>
<path d="M346.19 311.626C346.729 309.911 347.368 308.238 347.986 306.558C348.241 310.513 348.199 314.49 348.085 318.453C348.05 318.807 347.979 319.523 347.943 319.878C345.813 319.892 343.683 319.892 341.56 319.885C341.596 319.516 341.66 318.779 341.688 318.41L341.745 317.786C342.064 314.83 342.171 311.853 342.412 308.883C342.803 309.804 343.186 310.733 343.591 311.655C344.45 311.655 345.316 311.633 346.19 311.626Z" fill="#A9B1C0"/>
<path d="M214.115 308.926C214.847 312.591 214.321 316.348 214.669 320.048L215.109 320.077C220.811 320.176 226.526 319.956 232.227 320.155C234.577 320.155 236.778 321.062 238.646 322.458C238.376 322.692 237.836 323.153 237.567 323.387C235.628 322.678 233.662 321.934 231.567 322.005C220.434 321.941 209.301 322.04 198.169 321.983C196.053 321.948 193.894 321.728 191.835 322.345C190.728 321.785 189.684 321.126 188.633 320.481C194.583 319.701 200.597 320.247 206.575 320.126C206.632 318.63 206.703 317.135 206.781 315.646C207.079 313.895 207.413 312.151 207.683 310.4C207.945 311.542 208.208 312.69 208.478 313.838C210.153 313.909 211.836 313.923 213.519 313.874C213.675 312.215 213.853 310.563 214.115 308.926Z" fill="#A7B0BF"/>
<path d="M183.891 330.724C184.295 329.979 184.835 329.32 185.367 328.675C186.766 329.008 188.25 329.221 189.45 330.086C187.803 331.206 185.744 330.674 183.891 330.724Z" fill="#DBE2E6"/>
</svg>
