<svg width="414" height="284" viewBox="0 0 414 284" fill="none" xmlns="http://www.w3.org/2000/svg">
<path d="M-88.2142 284H481.55C517.47 252.618 536.347 211.921 528.07 173.242C524.632 157.176 516.829 142.958 505.646 130.984C482.155 105.835 466.024 73.7132 461.932 38.5148C461.21 32.3008 460.108 26.0604 458.61 19.8242C440.428 -55.8574 368.923 -103.598 297.014 -88.0749C274.334 -83.1787 254.131 -72.687 237.379 -58.2491C209.654 -34.3545 175.151 -21.2162 139.497 -22.3166C112.175 -23.1608 83.2887 -20.2537 53.9535 -13.1385C-73.2117 17.7041 -160.642 115.883 -141.327 206.15C-134.554 237.814 -115.532 264.288 -88.2142 284Z" fill="url(#paint0_linear_1_18)" fill-opacity="0.3"/>
<defs>
<linearGradient id="paint0_linear_1_18" x1="193" y1="-91.0004" x2="193" y2="398" gradientUnits="userSpaceOnUse">
<stop offset="0.405407" stop-color="#FEE9DA"/>
<stop offset="1" stop-color="white" stop-opacity="0"/>
</linearGradient>
</defs>
</svg>
