<svg width="51" height="48" viewBox="0 0 51 48" fill="none" xmlns="http://www.w3.org/2000/svg">
<g opacity="0.2">
<path d="M32.2615 0H32.4335C32.8437 0.0700187 33.2271 0.390104 33.2146 0.834389C33.2605 1.90301 32.6516 2.84326 32.1579 3.74517C31.4086 5.013 30.5273 6.19915 29.6001 7.34196C29.8248 5.3731 30.1431 3.39007 30.8623 1.53374C31.148 0.907742 31.5147 0.144205 32.2615 0Z" fill="#F17720"/>
<path d="M16.1638 3.30275C16.6499 2.99517 17.3157 2.79595 17.8453 3.11437C18.3874 3.45446 18.5971 4.1013 18.785 4.67729C19.2871 6.47693 19.3882 8.36994 19.9754 10.1487C20.221 10.8156 20.5142 11.5108 21.0947 11.9567C21.6569 12.3893 22.4613 12.5052 23.1196 12.236C23.4763 12.0618 23.5464 11.6158 23.5164 11.259C23.4387 10.348 23.0762 9.49024 22.9625 8.58499C22.9325 8.24657 22.925 7.81562 23.2432 7.6039C23.5523 7.41968 23.9766 7.41468 24.2832 7.6089C24.528 7.79895 24.5856 8.12904 24.6031 8.41995C24.6274 9.44939 24.279 10.4822 24.4895 11.5066C24.6207 12.1893 25.5203 12.4677 26.0691 12.0984C26.41 11.8592 26.5812 11.4591 26.7107 11.0782C26.9178 10.3988 27.0306 9.69362 27.2486 9.01678C27.3815 8.64084 27.5953 8.20406 28.0272 8.11737C28.4599 8.05069 28.9719 8.27241 29.1114 8.7117C29.2409 9.13514 29.1666 9.58693 29.078 10.0112C28.9084 10.6906 28.708 11.3616 28.5384 12.0409C28.449 12.4702 28.3688 12.9237 28.4741 13.3579C28.596 13.8814 29.2309 14.2065 29.7279 13.9956C30.1974 13.7997 30.5114 13.3721 30.7955 12.9687C31.2841 12.2226 31.6918 11.4266 32.1746 10.6764C32.4319 10.3071 32.7109 9.91535 33.1327 9.7228C33.5471 9.52441 34.0675 9.75364 34.283 10.1379C34.4693 10.5188 34.3364 10.9623 34.1777 11.3299C33.8703 12.0217 33.4151 12.6344 33.0342 13.2871C32.6867 13.8456 32.3308 14.4266 32.223 15.0859C32.147 15.4918 32.3408 15.9286 32.6925 16.1453C32.8721 16.2604 33.1001 16.2154 33.2806 16.127C33.8194 15.8553 34.222 15.3918 34.6054 14.9392C35.5335 13.9164 36.317 12.7703 37.3002 11.7967C37.8131 11.2991 38.3845 10.8039 39.097 10.6314C39.6884 10.4988 40.2656 10.8623 40.5914 11.3341C40.8905 11.6992 41.0032 12.2418 40.7618 12.6661C40.1378 13.6705 38.9767 14.1106 37.981 14.6499C37.0747 15.1276 36.1007 15.4935 35.2779 16.1153C35.0298 16.3262 34.7449 16.573 34.7207 16.9214C34.7524 17.379 35.1634 17.6949 35.5485 17.8766C36.1842 18.1509 36.8759 17.8825 37.4714 17.6307C37.9467 17.444 38.4037 17.1623 38.9241 17.1273C39.4696 17.1081 39.7694 17.6983 39.7895 18.1701C39.7928 18.6227 39.4002 18.9286 39.0335 19.1161C38.2107 19.5279 37.2952 19.7213 36.4741 20.1364C36.0497 20.3581 35.5986 20.7282 35.6162 21.2534C35.6554 21.8669 35.9161 22.5429 36.4807 22.8538C36.9844 23.1255 37.5775 23.0013 38.1013 22.8613C39.5088 22.4162 40.7426 21.5768 42.0942 21.0016C42.5686 20.8108 43.0799 20.6399 43.5978 20.7132C44.0205 20.7808 44.2694 21.1967 44.3429 21.586C44.4707 22.2495 44.6302 22.9647 44.3822 23.6182C44.1733 24.1575 43.546 24.33 43.0206 24.3467C41.674 24.365 40.3467 23.9574 38.9968 24.1091C38.1706 24.185 37.3378 24.6218 36.9728 25.3945C36.728 25.7996 36.8282 26.3572 37.2075 26.6448C38.032 27.2967 39.0928 27.515 40.0944 27.7468C40.9924 27.9718 41.9054 28.1269 42.8117 28.3161C43.612 28.4953 44.4339 28.647 45.1741 29.0154C45.413 29.1463 45.7037 29.3055 45.7496 29.6023C45.7955 30.1466 45.352 30.7117 44.7773 30.6801C44.1065 30.6425 43.49 30.345 42.9011 30.0466C41.4334 29.2947 40.0702 28.3186 38.4981 27.7818C37.854 27.5809 37.0905 27.4284 36.4849 27.8193C35.9904 28.116 35.7899 28.6829 35.5944 29.1913C35.2929 29.5281 34.9354 29.9232 35.0381 30.4175C35.1993 31.046 35.7248 31.4894 36.2193 31.8704C37.2935 32.6289 38.458 33.2474 39.5681 33.9493C40.1362 34.3352 40.756 34.7311 41.0734 35.3638C41.2179 35.628 41.1219 35.9256 41.0133 36.1824C40.6181 36.3391 40.1679 36.3407 39.7761 36.1749C39.0795 35.8931 38.5164 35.3771 37.9777 34.8695C37.291 34.1918 36.6052 33.5133 35.8935 32.8623C35.3798 32.4205 34.8226 31.9904 34.1593 31.8045C33.6907 31.6678 33.1519 31.7195 32.7526 32.0137C32.4528 32.2588 32.2297 32.6214 32.2214 33.0157C32.2289 33.4566 32.4845 33.8367 32.7309 34.1835C33.2004 34.772 33.7709 35.2713 34.3607 35.7356C34.9454 36.2099 35.531 36.6842 36.1149 37.1601C36.7113 37.6386 37.301 38.1446 37.7404 38.7764C37.9643 39.1056 38.1155 39.5333 37.9693 39.925C37.8298 40.2743 37.5199 40.5219 37.2025 40.7044C36.9068 40.8744 36.5476 40.972 36.2126 40.8694C35.8016 40.7494 35.5042 40.4168 35.2444 40.0959C34.5745 39.1998 34.1919 38.1387 33.6799 37.1535C33.2104 36.2299 32.7944 35.1971 31.919 34.5761C31.5105 34.2677 30.9358 34.2852 30.4964 34.5169C30.1372 34.687 29.773 34.9879 29.7546 35.4155C29.7196 36.0915 30.1205 36.6767 30.4112 37.256C30.6852 37.8161 31.0837 38.3629 31.0745 39.0131C30.9959 39.7108 29.9518 40.0309 29.4781 39.5199C29.0513 39.0923 28.8734 38.4963 28.6353 37.957C28.3646 37.3393 28.1533 36.6533 27.6337 36.1899C27.0665 35.6722 26.0474 35.8823 25.6899 36.5475C25.5379 36.815 25.4802 37.1234 25.4794 37.4285C25.4393 38.2521 25.639 39.0606 25.8361 39.8542C26.065 40.6727 26.3089 41.4879 26.5286 42.3098C26.7925 43.2826 27.0974 44.2553 27.1559 45.2681C27.1935 45.8091 27.1634 46.4034 26.8268 46.8552C26.5328 47.2453 26.0291 47.407 25.5571 47.422C25.2037 47.4387 24.8237 47.3403 24.5789 47.0719C24.2916 46.7602 24.1754 46.3326 24.1287 45.9225C23.9867 44.4954 24.2941 43.0834 24.4712 41.6747C24.6449 40.4618 24.8855 39.2482 24.8554 38.017C24.8262 37.5452 24.8028 37.0376 24.5154 36.6383C24.2498 36.2465 23.696 36.1457 23.2708 36.3082C22.8506 36.4974 22.646 36.9451 22.5065 37.3568C22.26 38.1362 22.1757 38.9564 21.9234 39.7341C21.814 40.0326 21.6745 40.3451 21.408 40.536C21.063 40.7777 20.5835 40.6977 20.2444 40.4885C19.8985 40.2609 19.8868 39.8 19.9437 39.4332C20.1149 38.4396 20.6219 37.5227 20.6938 36.5083C20.7381 36.0548 20.5735 35.5522 20.1658 35.308C19.4399 34.8728 18.557 34.5853 17.71 34.7878C17.0024 34.9795 16.4595 35.5347 16.0819 36.139C14.991 37.9453 14.6368 40.0609 13.8541 41.9972C13.5792 42.5999 13.3128 43.2601 12.7514 43.656C12.3747 43.9261 11.8677 43.9353 11.4508 43.7552C10.9914 43.5593 10.5395 43.2868 10.2396 42.8791C9.95557 42.4915 9.99901 41.9464 10.2329 41.5463C10.7433 40.6944 11.531 40.0659 12.2836 39.4382C13.5475 38.3379 14.935 37.3527 15.9808 36.0273C16.5313 35.3621 16.974 34.5494 16.9916 33.6675C17.0125 32.9907 16.7477 32.328 16.3267 31.8045C16.1621 31.5928 15.858 31.4619 15.6008 31.582C15.1722 31.7578 14.879 32.1396 14.6059 32.4964C14.1515 33.1274 13.7004 33.76 13.2259 34.376C12.865 34.8128 12.429 35.2471 11.8551 35.3738C11.4233 35.4438 11.0156 35.1938 10.7241 34.897C10.4994 34.6603 10.258 34.3652 10.3056 34.0168C10.3691 33.6717 10.6706 33.4391 10.9471 33.2566C11.9328 32.6464 13.0881 32.3547 14.0412 31.6853C14.3929 31.4244 14.7554 31.0618 14.7462 30.5925C14.7278 30.1524 14.4605 29.7757 14.1732 29.4622C13.9376 29.1947 13.667 28.8879 13.281 28.8779C12.8325 28.8762 12.4449 29.1455 12.1066 29.4106C11.5945 29.8457 11.1292 30.3316 10.628 30.7776C10.4058 30.9626 10.1611 31.161 9.86118 31.1885C9.48361 31.1685 9.35747 30.7367 9.30234 30.4275C9.22132 29.939 9.61058 29.5439 10.0057 29.3272C10.9379 28.8221 12.0113 28.622 12.9177 28.0635C13.3529 27.801 13.7446 27.375 13.7714 26.8449C13.8407 26.1305 13.6177 25.2911 12.936 24.936C12.1667 24.5409 11.2604 24.6501 10.4351 24.7626C8.31247 25.0944 6.3035 25.9221 4.18092 26.2522C3.59618 26.2939 2.91121 26.4081 2.42254 26.0021C2.0291 25.617 2.04079 24.9719 2.2396 24.4926C2.43173 24.0374 2.92541 23.8124 3.38568 23.7282C4.39392 23.5548 5.41971 23.6899 6.42546 23.8099C7.84719 23.9708 9.26392 24.22 10.6982 24.2275C11.4617 24.2125 12.272 24.16 12.9385 23.7482C13.4732 23.419 13.8115 22.7946 13.7973 22.1695C13.697 21.7435 13.2217 21.5968 12.8592 21.4609C11.4116 21.0216 9.88541 20.99 8.39266 20.8208C7.43537 20.7399 6.47641 20.6624 5.52413 20.5357C4.86839 20.4232 4.1876 20.3431 3.59368 20.023C3.40322 19.9222 3.20692 19.7405 3.23532 19.5037C3.26957 19.1561 3.6037 18.9194 3.93199 18.8811C4.82663 18.7302 5.73046 18.9403 6.60672 19.1145C7.838 19.4012 9.06427 19.708 10.2956 19.9955C11.0816 20.1623 11.8802 20.3215 12.6879 20.2915C12.977 20.2656 13.286 20.2498 13.5333 20.0806C13.8875 19.8488 13.976 19.3462 13.824 18.9703C13.6377 18.4951 13.2242 18.1651 12.8274 17.8683C12.3045 17.499 11.7632 17.1556 11.242 16.7839C10.9446 16.5588 10.6472 16.3062 10.4768 15.9678C10.1535 15.301 10.8627 14.3932 11.597 14.6291C12.6403 14.9517 13.3804 15.8853 14.4447 16.1595C15.0269 16.3262 15.6367 15.8878 15.7996 15.336C15.9148 14.9175 15.6918 14.5041 15.4462 14.1782C15.0678 13.6964 14.6201 13.2746 14.235 12.7978C14.012 12.5102 13.809 12.1301 13.9468 11.7617C14.1598 11.2765 14.7997 10.9473 15.2917 11.2382C15.9257 11.5916 16.3191 12.2276 16.7619 12.7786C17.2305 13.3596 17.6431 14.0348 18.3173 14.3999C18.6848 14.5949 19.1409 14.5016 19.4475 14.2365C19.9662 13.8622 20.2786 13.2271 20.2318 12.5869C20.1926 11.9351 19.9144 11.3316 19.6254 10.7564C18.9045 9.43856 17.9581 8.26491 17.0902 7.04292C16.5372 6.25937 15.9508 5.45499 15.7219 4.50807C15.5957 4.06379 15.767 3.55032 16.1638 3.30275ZM32.4544 20.2348C31.8588 20.3298 31.2825 20.6832 31.0344 21.2484C30.6058 22.2345 31.0101 23.5098 31.9298 24.07C32.5438 24.4451 33.3416 24.3167 33.9221 23.9391C34.3957 23.629 34.6631 23.0614 34.6564 22.502C34.6931 21.8219 34.4133 21.1333 33.9154 20.6691C33.5295 20.3098 32.9774 20.1231 32.4544 20.2348ZM28.7447 21.4476C28.7681 22.4995 28.9536 23.5415 28.9719 24.5943C28.4741 23.7065 27.9512 22.8321 27.4266 21.9611C27.0298 21.9152 26.6338 22.1369 26.2596 22.2603C26.6305 23.4873 27.0348 24.7043 27.4165 25.928C27.6738 25.8896 27.9236 25.8129 28.1692 25.7262C27.9353 24.7701 27.5619 23.8541 27.3171 22.9013C27.835 23.7682 28.3404 24.6418 28.8658 25.5045C29.1189 25.4278 29.3712 25.3478 29.6243 25.2711C29.5466 24.2633 29.4648 23.2556 29.3721 22.2503C29.7179 23.1722 29.9743 24.1258 30.2918 25.0577C30.5465 24.9744 30.8013 24.891 31.0569 24.8102C30.6518 23.5748 30.2809 22.3278 29.8607 21.0967C29.4907 21.22 29.1198 21.3409 28.7447 21.4476ZM35.5944 24.6609C35.0724 24.7952 24.6892 27.3117 24.4712 27.8193C24.0017 28.9029 19.0933 38.7947 14.6059 26.9949C14.2525 22.435 18.344 20.3386 18.7951 19.6676C19.3965 18.7024 34.5765 18.0022 34.1593 18.5574C34.7351 18.7953 36.0739 24.5267 35.5944 24.6609ZM20.287 24.1416C19.7482 24.3217 19.2027 24.4809 18.6639 24.6609C19.034 25.8929 19.4475 27.1108 19.8192 28.3428C20.0898 28.3111 20.348 28.2219 20.6019 28.1269C20.449 27.6376 20.2803 27.1533 20.1458 26.6581C20.5869 26.5473 21.0171 26.2847 21.4857 26.3864C21.7137 26.799 21.748 27.2942 22.0428 27.6734C22.3252 27.5909 22.6117 27.5175 22.8824 27.4008C22.8047 27.2466 22.6393 27.1574 22.5758 26.9949C22.443 26.6807 22.3703 26.3364 22.1723 26.053C22.0504 25.8896 21.8382 25.8671 21.6544 25.8279C21.8399 25.6204 22.042 25.3828 22.0253 25.0852C22.0086 24.6093 21.7204 24.0691 21.215 23.9758C20.8968 23.9474 20.5852 24.0458 20.287 24.1416ZM15.2249 25.7312C15.6124 26.9641 16.0067 28.1944 16.3985 29.4256C16.6441 29.3739 16.8855 29.3022 17.1236 29.2213C17.0684 28.7604 16.8847 28.3303 16.7435 27.8918C17.2013 27.7009 17.7242 27.6459 18.1293 27.3467C18.694 26.8815 18.5787 25.9888 18.1577 25.4662C17.8729 25.1169 17.3692 25.0661 16.959 25.1878C16.3759 25.3536 15.8046 25.5579 15.2249 25.7312Z" fill="#F17720"/>
<path d="M32.4635 20.9314C32.8703 20.8172 33.3013 21.0531 33.5227 21.3915C33.7407 21.7525 33.9237 22.1626 33.8836 22.5943C33.8794 23.0528 33.5319 23.4896 33.0741 23.5679C32.6389 23.6805 32.1812 23.4237 31.9623 23.0503C31.7059 22.6218 31.5455 22.0859 31.7084 21.5949C31.8094 21.254 32.1185 21.0023 32.4635 20.9314Z" fill="#F17720"/>
<path d="M24.0976 23.5673C24.3866 23.4881 24.7258 23.489 24.9755 23.6765C25.3013 23.8974 25.4651 24.275 25.5845 24.6359C25.7098 25.0202 25.6856 25.4745 25.4383 25.8062C25.1401 26.2055 24.5203 26.3289 24.1051 26.0413C23.644 25.7204 23.4193 25.1344 23.4151 24.5876C23.3943 24.1458 23.6774 23.7132 24.0976 23.5673Z" fill="#F17720"/>
<path d="M19.6338 25.0513C20.0899 24.9371 20.5226 24.6954 21.0037 24.7096C21.2234 24.9288 21.4047 25.3481 21.1391 25.599C20.7607 25.799 20.3363 25.8907 19.9287 26.0116C19.8259 25.6923 19.7215 25.3747 19.6338 25.0513Z" fill="#F17720"/>
<path d="M42.2764 25.8572C43.6572 25.6447 45.0505 25.5071 46.448 25.4788C47.3811 25.5088 48.3467 25.4838 49.233 25.8222C49.6357 25.9731 50.0475 26.2532 50.1201 26.7091V26.9525C50.0642 27.3626 49.7225 27.656 49.3266 27.7269C48.2958 27.9278 47.2675 27.6052 46.2759 27.356C44.906 26.9617 43.5778 26.4349 42.2764 25.8572Z" fill="#F17720"/>
<path d="M16.207 26.1101C16.5821 26.0193 16.9547 25.8092 17.3506 25.8793C17.7365 26.0385 17.881 26.7128 17.4617 26.922C17.1735 27.0679 16.8561 27.1388 16.5512 27.2371C16.4192 26.867 16.2964 26.4928 16.207 26.1101Z" fill="#F17720"/>
<path d="M2.30719 33.6215C3.96533 33.1197 5.68611 32.8488 7.40857 32.6812C5.94757 33.8332 4.42643 34.931 2.7449 35.7412C2.10086 36.0188 1.39166 36.3122 0.679126 36.1588C0.309909 36.083 0.0818626 35.7387 0 35.3936V35.2086C0.0668266 34.8526 0.324945 34.5726 0.61564 34.3733C1.12686 34.0207 1.71243 33.7915 2.30719 33.6215Z" fill="#F17720"/>
</g>
</svg>
