<svg width="105" height="99" viewBox="0 0 105 99" fill="none" xmlns="http://www.w3.org/2000/svg">
<g opacity="0.2">
<path d="M67.0593 0H67.417C68.2695 0.145542 69.0665 0.810879 69.0405 1.73438C69.136 3.95563 67.8702 5.91006 66.844 7.78478C65.2865 10.4201 63.4547 12.8857 61.5273 15.2612C61.9944 11.1686 62.656 7.04668 64.1509 3.18807C64.7448 1.88685 65.507 0.299748 67.0593 0Z" fill="#F17720"/>
<path d="M33.5977 6.86619C34.6083 6.22684 35.9921 5.81274 37.093 6.47461C38.2199 7.18153 38.6557 8.52606 39.0464 9.72332C40.0899 13.4641 40.3 17.3989 41.5206 21.0964C42.0311 22.4825 42.6406 23.9276 43.8473 24.8545C45.0159 25.7538 46.688 25.9946 48.0562 25.435C48.7977 25.0728 48.9435 24.1459 48.881 23.4043C48.7195 21.5105 47.966 19.7276 47.7298 17.846C47.6673 17.1425 47.6517 16.2467 48.3132 15.8066C48.9557 15.4237 49.8377 15.4133 50.475 15.817C50.9837 16.2121 51.1035 16.8982 51.14 17.5029C51.1903 19.6427 50.4663 21.7895 50.9038 23.9189C51.1764 25.3379 53.0465 25.9166 54.1873 25.1491C54.8957 24.6518 55.2516 23.8201 55.5208 23.0283C55.9514 21.6162 56.1858 20.1504 56.639 18.7435C56.9151 17.9621 57.3596 17.0542 58.2572 16.874C59.1567 16.7353 60.221 17.1962 60.511 18.1093C60.7801 18.9895 60.6256 19.9286 60.4416 20.8105C60.0891 22.2226 59.6724 23.6174 59.3199 25.0295C59.1341 25.9218 58.9674 26.8644 59.1862 27.7671C59.4397 28.8552 60.7593 29.5309 61.7924 29.0926C62.7683 28.6854 63.4211 27.7966 64.0115 26.958C65.0272 25.4072 65.8746 23.7526 66.8782 22.1932C67.413 21.4256 67.9929 20.6113 68.8698 20.211C69.731 19.7987 70.8127 20.2751 71.2607 21.0739C71.6479 21.8657 71.3718 22.7875 71.0419 23.5516C70.403 24.9897 69.4566 26.2632 68.6649 27.6198C67.9426 28.7807 67.2029 29.9884 66.9789 31.3589C66.8209 32.2027 67.2237 33.1106 67.9547 33.5611C68.328 33.8002 68.802 33.7066 69.1771 33.523C70.297 32.9581 71.1339 31.9948 71.9309 31.0539C73.86 28.928 75.4887 26.5456 77.5324 24.5219C78.5985 23.4875 79.7861 22.4583 81.2672 22.0996C82.4966 21.8241 83.6964 22.5796 84.3736 23.5602C84.9952 24.3191 85.2296 25.4471 84.7278 26.329C83.4307 28.4169 81.0172 29.3317 78.9475 30.4527C77.0636 31.4455 75.039 32.2062 73.3287 33.4987C72.813 33.9371 72.2209 34.4499 72.1705 35.1742C72.2365 36.1254 73.0908 36.7821 73.8913 37.1598C75.2126 37.7298 76.6503 37.1719 77.8883 36.6487C78.8763 36.2605 79.8261 35.6749 80.9078 35.6021C82.0416 35.5623 82.665 36.789 82.7067 37.7697C82.7136 38.7105 81.8975 39.3464 81.1353 39.7362C79.425 40.5922 77.522 40.9941 75.8151 41.857C74.9331 42.3179 73.9954 43.0872 74.0319 44.1787C74.1135 45.454 74.6553 46.8592 75.829 47.5054C76.876 48.0703 78.1088 47.8121 79.1975 47.521C82.1233 46.5958 84.6878 44.851 87.4972 43.6555C88.4835 43.2587 89.5461 42.9035 90.6227 43.056C91.5012 43.1963 92.0187 44.0609 92.1715 44.8701C92.4371 46.2493 92.7688 47.7359 92.2531 49.0943C91.819 50.2153 90.515 50.5739 89.4228 50.6086C86.6239 50.6467 83.8648 49.7995 81.0589 50.1148C79.3416 50.2725 77.6105 51.1804 76.8517 52.7865C76.343 53.6286 76.5513 54.7877 77.3396 55.3855C79.0534 56.7404 81.2586 57.1944 83.3404 57.6761C85.207 58.1439 87.1048 58.4662 88.9888 58.8595C90.6522 59.232 92.3607 59.5473 93.8991 60.3132C94.3957 60.5852 95 60.9161 95.0955 61.5329C95.191 62.6644 94.269 63.8391 93.0744 63.7732C91.6801 63.6953 90.3987 63.0767 89.1745 62.4564C86.1238 60.8936 83.2901 58.8647 80.0223 57.7488C78.6836 57.3313 77.0965 57.0142 75.8377 57.8268C74.8098 58.4436 74.3931 59.6218 73.9868 60.6787C73.3599 61.3787 72.6168 62.2 72.8304 63.2275C73.1655 64.5339 74.2576 65.4557 75.2855 66.2475C77.5185 67.8242 79.9389 69.1098 82.2465 70.5687C83.4273 71.3709 84.7156 72.1939 85.3754 73.509C85.6758 74.0582 85.4761 74.6768 85.2504 75.2105C84.4291 75.5362 83.4932 75.5397 82.6789 75.1949C81.2308 74.6092 80.0605 73.5367 78.9406 72.4815C77.5133 71.0729 76.0877 69.6625 74.6084 68.3093C73.5405 67.391 72.3824 66.497 71.0037 66.1106C70.0296 65.8264 68.9097 65.9339 68.0797 66.5455C67.4564 67.0549 66.9928 67.8086 66.9754 68.6281C66.991 69.5447 67.5224 70.3348 68.0346 71.0556C69.0104 72.2788 70.1963 73.3167 71.4222 74.2818C72.6376 75.2676 73.8548 76.2535 75.0685 77.2429C76.3083 78.2374 77.5341 79.2891 78.4474 80.6025C78.9128 81.2868 79.227 82.1757 78.9232 82.99C78.6332 83.716 77.989 84.2306 77.3292 84.6101C76.7146 84.9635 75.9679 85.1662 75.2717 84.9531C74.4174 84.7036 73.7992 84.0123 73.2592 83.3452C71.8667 81.4826 71.0714 79.277 70.0071 77.229C69.0312 75.3092 68.1665 73.1625 66.3469 71.8716C65.4978 71.2306 64.3032 71.2669 63.3899 71.7486C62.6432 72.1021 61.8862 72.7276 61.848 73.6164C61.7751 75.0216 62.6085 76.2379 63.2128 77.4421C63.7823 78.6064 64.6105 79.7431 64.5914 81.0945C64.4282 82.5447 62.2578 83.2101 61.2733 82.148C60.386 81.2591 60.0162 80.0203 59.5213 78.8993C58.9587 77.6154 58.5194 76.1894 57.4394 75.2261C56.2604 74.1501 54.1421 74.5867 53.399 75.9694C53.0829 76.5255 52.9631 77.1666 52.9614 77.8008C52.8781 79.5126 53.293 81.1933 53.7028 82.8428C54.1786 84.5442 54.6856 86.2388 55.1422 87.9471C55.6909 89.9691 56.3247 91.9911 56.4462 94.0963C56.5244 95.2208 56.4619 96.4562 55.7621 97.3953C55.1509 98.2061 54.1039 98.5423 53.1229 98.5735C52.3884 98.6081 51.5984 98.4037 51.0896 97.8458C50.4923 97.1978 50.251 96.3089 50.1537 95.4564C49.8586 92.4901 50.4975 89.555 50.8656 86.6269C51.2268 84.1059 51.7269 81.5831 51.6644 79.024C51.6036 78.0433 51.555 76.9882 50.9577 76.1582C50.4055 75.3439 49.2543 75.1342 48.3705 75.4721C47.4971 75.8654 47.0717 76.7958 46.7818 77.6518C46.2695 79.2718 46.0942 80.9767 45.5698 82.5933C45.3423 83.2136 45.0524 83.8633 44.4985 84.2601C43.7814 84.7625 42.7847 84.5962 42.0798 84.1613C41.3609 83.6883 41.3366 82.7301 41.4547 81.9678C41.8106 79.9025 42.8646 77.9966 43.0139 75.8879C43.1059 74.9454 42.7639 73.9006 41.9165 73.3929C40.4077 72.4885 38.5723 71.8907 36.8117 72.3117C35.341 72.7103 34.2124 73.8642 33.4276 75.1204C31.1599 78.875 30.4237 83.2725 28.7967 87.2974C28.2255 88.5501 27.6716 89.9224 26.5048 90.7454C25.7217 91.3067 24.6677 91.3258 23.8013 90.9516C22.8463 90.5444 21.9069 89.9778 21.2836 89.1305C20.6932 88.3249 20.7835 87.1917 21.2697 86.36C22.3306 84.5893 23.968 83.2829 25.5324 81.9782C28.1595 79.6911 31.0436 77.6431 33.2175 74.8882C34.3617 73.5055 35.282 71.8162 35.3184 69.9831C35.3618 68.5761 34.8114 67.1987 33.9363 66.1106C33.5942 65.6705 32.9622 65.3985 32.4274 65.648C31.5367 66.0136 30.9272 66.8071 30.3594 67.5487C29.4149 68.8603 28.4772 70.1754 27.491 71.4558C26.7409 72.3637 25.8345 73.2664 24.6417 73.5298C23.744 73.6753 22.8966 73.1555 22.2907 72.5387C21.8236 72.0466 21.3218 71.4333 21.4208 70.709C21.5527 69.9917 22.1795 69.5083 22.7543 69.1289C24.8031 67.8606 27.2045 67.2541 29.1857 65.8628C29.9167 65.3205 30.6702 64.5668 30.6511 63.5913C30.6129 62.6765 30.0573 61.8933 29.46 61.2419C28.9704 60.6857 28.4078 60.0481 27.6056 60.0273C26.6732 60.0238 25.8675 60.5834 25.1643 61.1344C24.0999 62.0389 23.1328 63.049 22.091 63.976C21.6291 64.3606 21.1204 64.773 20.497 64.8302C19.7122 64.7886 19.45 63.8911 19.3354 63.2483C19.167 62.2329 19.9761 61.4116 20.7974 60.9612C22.7352 59.9112 24.9664 59.4953 26.8503 58.3345C27.7549 57.7887 28.5693 56.9033 28.6248 55.8013C28.769 54.3165 28.3053 52.5717 26.8885 51.8336C25.2893 51.0123 23.4054 51.2393 21.6899 51.4732C17.2778 52.1628 13.1019 53.8833 8.6899 54.5694C7.47446 54.6561 6.05066 54.8934 5.0349 54.0496C4.21708 53.2492 4.24139 51.9081 4.65464 50.9118C5.054 49.9658 6.08017 49.498 7.0369 49.323C9.13266 48.9626 11.2649 49.2433 13.3554 49.4928C16.3107 49.8272 19.2555 50.3452 22.2368 50.3608C23.8239 50.3296 25.5081 50.2205 26.8937 49.3646C28.005 48.6802 28.7082 47.3824 28.6787 46.0829C28.4703 45.1975 27.4823 44.8926 26.7288 44.6102C23.7197 43.6971 20.5474 43.6312 17.4445 43.2795C15.4547 43.1114 13.4614 42.9503 11.4819 42.6869C10.1189 42.453 8.70379 42.2867 7.46925 41.6214C7.07336 41.4117 6.66532 41.034 6.72436 40.5419C6.79555 39.8194 7.49008 39.3273 8.17247 39.2476C10.0321 38.934 11.9108 39.3707 13.7322 39.7328C16.2916 40.3288 18.8406 40.9664 21.3999 41.5642C23.0338 41.9107 24.6938 42.2416 26.3728 42.1793C26.9736 42.1256 27.616 42.0926 28.13 41.7409C28.8662 41.2592 29.0502 40.2145 28.7342 39.433C28.347 38.4454 27.4875 37.7593 26.6628 37.1425C25.5758 36.3749 24.4507 35.6611 23.3672 34.8883C22.7491 34.4205 22.1309 33.8955 21.7767 33.192C21.1047 31.8059 22.5789 29.9191 24.1051 30.4094C26.2738 31.0799 27.8122 33.0205 30.0243 33.5905C31.2346 33.9371 32.5021 33.0257 32.8407 31.8787C33.0803 31.0089 32.6167 30.1495 32.1062 29.472C31.3196 28.4706 30.389 27.5938 29.5885 26.6028C29.1249 26.005 28.703 25.2149 28.9895 24.4491C29.4322 23.4407 30.7623 22.7563 31.785 23.361C33.1029 24.0956 33.9207 25.4176 34.8409 26.5629C35.815 27.7706 36.6728 29.174 38.074 29.9329C38.838 30.3384 39.786 30.1443 40.4233 29.5933C41.5015 28.8154 42.1509 27.4951 42.0537 26.1644C41.9721 24.8095 41.3939 23.555 40.7931 22.3595C39.2947 19.6202 37.3274 17.1806 35.5233 14.6406C34.3739 13.0119 33.155 11.3399 32.6792 9.37159C32.417 8.44809 32.773 7.38078 33.5977 6.86619ZM67.4599 42.0615C66.2218 42.259 65.0238 42.9936 64.5081 44.1684C63.6173 46.2181 64.4577 48.869 66.3694 50.0334C67.6456 50.8131 69.3038 50.5462 70.5106 49.7613C71.4951 49.1168 72.0507 47.9369 72.0368 46.7743C72.1133 45.3604 71.5316 43.9292 70.4967 42.9642C69.6945 42.2174 68.5468 41.8293 67.4599 42.0615ZM59.7488 44.5825C59.7974 46.7691 60.1828 48.9349 60.221 51.1232C59.1862 49.2779 58.0992 47.4604 57.0088 45.6498C56.184 45.5545 55.361 46.0154 54.5831 46.2718C55.3541 48.8222 56.1945 51.3519 56.988 53.8954C57.5228 53.8157 58.0419 53.6563 58.5524 53.4761C58.0662 51.4888 57.2901 49.5846 56.7813 47.6042C57.8579 49.4061 58.9084 51.222 60.0005 53.0152C60.5266 52.8558 61.051 52.6895 61.5771 52.5301C61.4156 50.4353 61.2455 48.3406 61.0527 46.251C61.7716 48.1673 62.3047 50.1494 62.9645 52.0865C63.494 51.9133 64.0236 51.74 64.555 51.572C63.7128 49.0042 62.9419 46.4121 62.0685 43.853C61.2993 44.1094 60.5284 44.3607 59.7488 44.5825ZM73.9868 51.2618C72.9016 51.5408 51.3188 56.7716 50.8656 57.8268C49.8898 60.0792 39.6871 80.6406 30.3594 56.1132C29.625 46.6349 38.1296 42.2773 39.0672 40.8825C40.3173 38.8761 71.8708 37.4208 71.0037 38.5747C72.2005 39.0693 74.9834 50.9828 73.9868 51.2618ZM42.1683 50.1824C41.0484 50.5566 39.9145 50.8876 38.7946 51.2618C39.5638 53.8227 40.4233 56.3541 41.1959 58.9149C41.7585 58.8491 42.2951 58.6637 42.8229 58.4662C42.5052 57.4491 42.1544 56.4424 41.8749 55.4132C42.7916 55.1828 43.6859 54.637 44.66 54.8484C45.134 55.706 45.2052 56.7352 45.8181 57.5236C46.405 57.3521 47.0005 57.1996 47.5631 56.957C47.4016 56.6365 47.0578 56.4511 46.9259 56.1132C46.6498 55.46 46.4987 54.7444 46.0872 54.1553C45.8337 53.8157 45.3927 53.7689 45.0107 53.6875C45.3962 53.2561 45.8164 52.7623 45.7816 52.1437C45.7469 51.1544 45.1479 50.0316 44.0974 49.8376C43.4358 49.7787 42.7882 49.9831 42.1683 50.1824ZM31.6461 53.4865C32.4517 56.0491 33.2713 58.6065 34.0856 61.1656C34.5961 61.0582 35.0979 60.9092 35.5928 60.7411C35.4782 59.783 35.0962 58.8889 34.8027 57.9775C35.7543 57.5808 36.8412 57.4664 37.6833 56.8444C38.8571 55.8776 38.6175 54.0219 37.7424 52.9355C37.1503 52.2096 36.1033 52.1039 35.2507 52.3568C34.0388 52.7016 32.8511 53.1261 31.6461 53.4865Z" fill="#F17720"/>
<path d="M67.4793 43.5086C68.3249 43.2712 69.2209 43.7615 69.681 44.465C70.1342 45.2152 70.5145 46.0677 70.4311 46.9652C70.4224 47.9182 69.7001 48.8261 68.7486 48.9889C67.844 49.2228 66.8925 48.6892 66.4375 47.913C65.9045 47.0224 65.5711 45.9083 65.9097 44.8878C66.1198 44.1791 66.7622 43.6559 67.4793 43.5086Z" fill="#F17720"/>
<path d="M50.0898 48.9877C50.6906 48.8231 51.3955 48.8248 51.9147 49.2147C52.5919 49.6738 52.9322 50.4587 53.1805 51.2089C53.4409 52.0077 53.3906 52.952 52.8766 53.6416C52.2567 54.4715 50.9684 54.7279 50.1054 54.1302C49.147 53.4631 48.6799 52.2451 48.6712 51.1084C48.6278 50.1901 49.2164 49.2909 50.0898 48.9877Z" fill="#F17720"/>
<path d="M40.8113 52.0723C41.7593 51.8349 42.6587 51.3324 43.6589 51.3619C44.1155 51.8176 44.4923 52.6891 43.9402 53.2106C43.1536 53.6264 42.2715 53.817 41.4242 54.0683C41.2106 53.4047 40.9936 52.7445 40.8113 52.0723Z" fill="#F17720"/>
<path d="M87.8765 53.7468C90.7466 53.305 93.6429 53.0191 96.5478 52.9602C98.4872 53.0226 100.494 52.9706 102.337 53.6741C103.174 53.9877 104.03 54.5698 104.181 55.5176V56.0235C104.064 56.876 103.354 57.4859 102.531 57.6332C100.389 58.0507 98.2511 57.3802 96.1901 56.8621C93.3425 56.0426 90.5817 54.9476 87.8765 53.7468Z" fill="#F17720"/>
<path d="M33.6882 54.2732C34.4679 54.0843 35.2423 53.6477 36.0653 53.7932C36.8675 54.1241 37.1679 55.5259 36.2962 55.9608C35.6972 56.264 35.0374 56.4112 34.4036 56.6157C34.1293 55.8464 33.874 55.0684 33.6882 54.2732Z" fill="#F17720"/>
<path d="M4.79578 69.8872C8.24241 68.8441 11.8193 68.281 15.3996 67.9328C12.3628 70.3273 9.20087 72.6092 5.70562 74.2933C4.3669 74.8703 2.89275 75.4802 1.41165 75.1614C0.644183 75.0037 0.170161 74.2881 0 73.5708V73.1862C0.138907 72.4463 0.675437 71.8641 1.27968 71.45C2.34232 70.7171 3.5595 70.2407 4.79578 69.8872Z" fill="#F17720"/>
</g>
</svg>
