<svg width="96" height="91" viewBox="0 0 96 91" fill="none" xmlns="http://www.w3.org/2000/svg">
<g opacity="0.2">
<path d="M61.7167 0H62.0459C62.8305 0.133947 63.564 0.746274 63.54 1.5962C63.6279 3.64048 62.463 5.43919 61.5186 7.16455C60.0852 9.58993 58.3993 11.8591 56.6255 14.0453C57.0554 10.2788 57.6642 6.48525 59.0401 2.93407C59.5866 1.73652 60.2881 0.275866 61.7167 0Z" fill="#F17720"/>
<path d="M30.9214 6.31806C31.8515 5.72965 33.1251 5.34854 34.1382 5.95768C35.1753 6.60828 35.5764 7.84569 35.936 8.94756C36.8964 12.3903 37.0897 16.0116 38.2131 19.4145C38.6829 20.6902 39.2438 22.0201 40.3544 22.8732C41.4299 23.7008 42.9688 23.9225 44.228 23.4074C44.9103 23.0741 45.0446 22.221 44.987 21.5385C44.8384 19.7956 44.1449 18.1548 43.9276 16.4231C43.87 15.7756 43.8556 14.9512 44.4645 14.5462C45.0557 14.1938 45.8675 14.1842 46.454 14.5558C46.9222 14.9193 47.0325 15.5508 47.066 16.1073C47.1124 18.0767 46.446 20.0524 46.8487 22.0121C47.0996 23.3181 48.8206 23.8507 49.8705 23.1443C50.5225 22.6866 50.8501 21.9212 51.0978 21.1925C51.4941 19.8929 51.7098 18.5439 52.1269 17.2491C52.381 16.5299 52.7901 15.6943 53.6162 15.5285C54.444 15.4009 55.4236 15.8251 55.6904 16.6654C55.9381 17.4755 55.7959 18.3398 55.6265 19.1514C55.3021 20.451 54.9186 21.7347 54.5942 23.0343C54.4232 23.8555 54.2698 24.723 54.4712 25.5537C54.7045 26.5552 55.919 27.177 56.8698 26.7736C57.7679 26.3989 58.3687 25.5809 58.912 24.8091C59.8469 23.3819 60.6267 21.8591 61.5503 20.4239C62.0425 19.7175 62.5762 18.968 63.3832 18.5997C64.1758 18.2202 65.1714 18.6587 65.5837 19.3938C65.94 20.1225 65.686 20.9709 65.3823 21.6741C64.7943 22.9976 63.9234 24.1696 63.1947 25.4182C62.5299 26.4866 61.8492 27.598 61.643 28.8594C61.4976 29.6359 61.8683 30.4715 62.5411 30.8861C62.8847 31.1061 63.3209 31.02 63.6661 30.851C64.6968 30.3312 65.467 29.4446 66.2005 28.5787C67.9759 26.6221 69.4748 24.4296 71.3557 22.5671C72.3368 21.6151 73.4299 20.6679 74.793 20.3378C75.9244 20.0843 77.0286 20.7795 77.6518 21.6821C78.2239 22.3805 78.4396 23.4186 77.9778 24.2302C76.7841 26.1517 74.5629 26.9937 72.658 28.0254C70.9242 28.9391 69.0609 29.6391 67.4869 30.8287C67.0123 31.2321 66.4674 31.7041 66.421 32.3707C66.4818 33.2461 67.268 33.8505 68.0047 34.1981C69.2207 34.7227 70.5439 34.2092 71.6833 33.7277C72.5925 33.3705 73.4666 32.8315 74.4622 32.7645C75.5057 32.7279 76.0794 33.8568 76.1177 34.7594C76.1241 35.6253 75.373 36.2105 74.6715 36.5693C73.0975 37.357 71.3461 37.7269 69.7752 38.521C68.9635 38.9452 68.1005 39.6532 68.1341 40.6578C68.2092 41.8314 68.7078 43.1247 69.788 43.7195C70.7516 44.2393 71.8862 44.0017 72.8881 43.7338C75.5808 42.8823 77.941 41.2765 80.5266 40.1762C81.4343 39.8111 82.4122 39.4842 83.403 39.6245C84.2116 39.7537 84.6878 40.5494 84.8284 41.2941C85.0729 42.5634 85.3781 43.9315 84.9035 45.1817C84.504 46.2134 83.3039 46.5435 82.2988 46.5754C79.7228 46.6105 77.1836 45.8307 74.6012 46.1209C73.0208 46.266 71.4276 47.1016 70.7292 48.5798C70.261 49.3548 70.4528 50.4216 71.1783 50.9717C72.7555 52.2187 74.785 52.6365 76.701 53.0798C78.4188 53.5103 80.1655 53.8069 81.8993 54.1689C83.4302 54.5117 85.0026 54.8019 86.4184 55.5067C86.8755 55.7571 87.4316 56.0617 87.5195 56.6293C87.6074 57.6706 86.7588 58.7518 85.6594 58.6912C84.3762 58.6194 83.1969 58.0501 82.0703 57.4793C79.2626 56.0409 76.6546 54.1737 73.6472 53.1467C72.4151 52.7624 70.9546 52.4706 69.796 53.2185C68.85 53.7862 68.4665 54.8705 68.0925 55.8432C67.5157 56.4874 66.8317 57.2433 67.0283 58.1889C67.3367 59.3912 68.3418 60.2395 69.2878 60.9683C71.3429 62.4193 73.5705 63.6025 75.6942 64.9452C76.7809 65.6835 77.9666 66.4409 78.5738 67.6512C78.8503 68.1567 78.6665 68.726 78.4588 69.2171C77.7029 69.5169 76.8416 69.5201 76.0921 69.2028C74.7594 68.6638 73.6824 67.6767 72.6516 66.7056C71.3381 65.4092 70.0261 64.1112 68.6646 62.8658C67.6819 62.0207 66.616 61.1979 65.3472 60.8423C64.4507 60.5808 63.42 60.6796 62.6561 61.2425C62.0825 61.7113 61.6558 62.405 61.6398 63.1592C61.6542 64.0028 62.1432 64.7299 62.6146 65.3933C63.5127 66.5191 64.6041 67.4742 65.7323 68.3624C66.8509 69.2698 67.9711 70.1771 69.0881 71.0876C70.2291 72.0029 71.3573 72.9708 72.1978 74.1795C72.6261 74.8094 72.9153 75.6274 72.6357 76.3769C72.3688 77.045 71.7759 77.5186 71.1687 77.8679C70.603 78.1931 69.9159 78.3797 69.2751 78.1836C68.4888 77.954 67.92 77.3177 67.423 76.7038C66.1414 74.9896 65.4095 72.9597 64.4299 71.0748C63.5318 69.308 62.736 67.3323 61.0613 66.1443C60.2799 65.5543 59.1805 65.5878 58.3399 66.0311C57.6528 66.3564 56.9561 66.9321 56.9209 67.7501C56.8538 69.0433 57.6208 70.1627 58.1769 71.271C58.7011 72.3426 59.4633 73.3886 59.4458 74.6324C59.2955 75.9671 57.298 76.5794 56.392 75.6019C55.5754 74.7839 55.235 73.6437 54.7796 72.612C54.2618 71.4304 53.8575 70.1181 52.8636 69.2315C51.7785 68.2412 49.829 68.6431 49.145 69.9156C48.8542 70.4274 48.7439 71.0174 48.7423 71.6011C48.6656 73.1765 49.0476 74.7233 49.4247 76.2414C49.8625 77.8073 50.3292 79.3668 50.7494 80.939C51.2544 82.7999 51.8377 84.6609 51.9495 86.5983C52.0214 87.6332 51.9639 88.7701 51.3199 89.6344C50.7574 90.3807 49.7938 90.69 48.891 90.7187C48.215 90.7506 47.4879 90.5625 47.0197 90.049C46.47 89.4526 46.2479 88.6346 46.1584 87.8501C45.8867 85.1201 46.4748 82.4188 46.8136 79.724C47.1459 77.4038 47.6062 75.0821 47.5486 72.7269C47.4927 71.8243 47.448 70.8532 46.8982 70.0894C46.3901 69.3399 45.3306 69.147 44.5172 69.4579C43.7134 69.8199 43.3219 70.6762 43.055 71.4639C42.5836 72.9549 42.4222 74.524 41.9396 76.0117C41.7303 76.5826 41.4634 77.1806 40.9537 77.5457C40.2937 78.0082 39.3764 77.8551 38.7277 77.4548C38.0661 77.0195 38.0437 76.1377 38.1524 75.4361C38.48 73.5353 39.45 71.7813 39.5874 69.8406C39.6721 68.9732 39.3573 68.0116 38.5774 67.5444C37.1888 66.712 35.4997 66.1619 33.8793 66.5494C32.5258 66.9161 31.4871 67.9781 30.7648 69.1342C28.6778 72.5897 28.0003 76.6368 26.5029 80.3411C25.9772 81.494 25.4674 82.7569 24.3936 83.5143C23.6729 84.031 22.7029 84.0485 21.9055 83.7041C21.0266 83.3294 20.1621 82.8079 19.5884 82.0282C19.0451 81.2867 19.1282 80.2438 19.5756 79.4784C20.552 77.8487 22.0589 76.6464 23.4987 75.4456C25.9165 73.3408 28.5708 71.456 30.5715 68.9205C31.6245 67.648 32.4715 66.0933 32.505 64.4062C32.545 63.1114 32.0384 61.8437 31.233 60.8423C30.9182 60.4373 30.3365 60.1869 29.8444 60.4165C29.0246 60.753 28.4637 61.4833 27.9411 62.1658C27.0718 63.3729 26.2089 64.5832 25.3012 65.7616C24.6109 66.5972 23.7768 67.428 22.6789 67.6704C21.8528 67.8043 21.0729 67.3259 20.5152 66.7583C20.0854 66.3054 19.6235 65.7409 19.7146 65.0744C19.8361 64.4142 20.413 63.9693 20.9419 63.6201C22.8275 62.4528 25.0376 61.8947 26.8609 60.6143C27.5337 60.1151 28.2272 59.4215 28.2096 58.5237C28.1745 57.6818 27.6631 56.961 27.1134 56.3615C26.6627 55.8496 26.145 55.2628 25.4067 55.2436C24.5486 55.2404 23.8071 55.7555 23.1599 56.2626C22.1803 57.095 21.2903 58.0246 20.3315 58.8777C19.9064 59.2317 19.4382 59.6113 18.8645 59.6639C18.1422 59.6256 17.9009 58.7996 17.7954 58.208C17.6404 57.2736 18.3851 56.5177 19.1409 56.1031C20.9243 55.1368 22.9778 54.7541 24.7116 53.6857C25.5441 53.1834 26.2936 52.3686 26.3447 51.3544C26.4774 49.9878 26.0507 48.3821 24.7467 47.7028C23.275 46.9469 21.5411 47.1558 19.9623 47.3711C15.9018 48.0057 12.0586 49.5892 7.99808 50.2206C6.87948 50.3004 5.56912 50.5188 4.63428 49.7423C3.88163 49.0056 3.904 47.7713 4.28432 46.8544C4.65186 45.9838 5.59628 45.5532 6.47678 45.3922C8.40557 45.0605 10.3679 45.3188 12.2919 45.5485C15.0117 45.8562 17.7219 46.333 20.4657 46.3474C21.9263 46.3187 23.4763 46.2182 24.7515 45.4305C25.7743 44.8006 26.4214 43.6062 26.3943 42.4103C26.2025 41.5954 25.2933 41.3148 24.5997 41.0549C21.8304 40.2145 18.9108 40.1539 16.0552 39.8302C14.2239 39.6755 12.3894 39.5272 10.5677 39.2849C9.31323 39.0696 8.01086 38.9165 6.87468 38.3042C6.51034 38.1112 6.13481 37.7636 6.18914 37.3107C6.25466 36.6458 6.89386 36.1929 7.52187 36.1196C9.23334 35.831 10.9624 36.2328 12.6387 36.5661C14.9941 37.1146 17.34 37.7014 19.6955 38.2516C21.1992 38.5705 22.7269 38.875 24.2721 38.8176C24.825 38.7682 25.4163 38.7379 25.8893 38.4142C26.5669 37.9709 26.7363 37.0094 26.4454 36.2902C26.0891 35.3813 25.298 34.7498 24.539 34.1821C23.5386 33.4757 22.5031 32.8188 21.506 32.1076C20.9371 31.677 20.3682 31.1939 20.0422 30.5464C19.4238 29.2708 20.7805 27.5342 22.1851 27.9855C24.181 28.6026 25.5969 30.3886 27.6327 30.9132C28.7465 31.2321 29.9131 30.3934 30.2247 29.3377C30.4452 28.5372 30.0185 27.7463 29.5487 27.1228C28.8248 26.2012 27.9683 25.3943 27.2316 24.4822C26.805 23.932 26.4167 23.2049 26.6803 22.5001C27.0878 21.572 28.3119 20.9422 29.2531 21.4987C30.466 22.1748 31.2186 23.3915 32.0656 24.4455C32.9621 25.5569 33.7515 26.8486 35.0411 27.547C35.7442 27.9201 36.6167 27.7415 37.2032 27.2345C38.1955 26.5185 38.7932 25.3034 38.7037 24.0787C38.6286 22.8318 38.0965 21.6773 37.5435 20.577C36.1645 18.0559 34.3539 15.8107 32.6936 13.473C31.6357 11.9741 30.5139 10.4353 30.0761 8.62386C29.8348 7.77393 30.1624 6.79166 30.9214 6.31806ZM62.0857 38.7092C60.9463 38.891 59.8437 39.5671 59.369 40.6482C58.5493 42.5347 59.3227 44.9744 61.0821 46.046C62.2566 46.7635 63.7827 46.518 64.8933 45.7956C65.7994 45.2024 66.3108 44.1165 66.298 43.0465C66.3683 41.7453 65.833 40.4282 64.8806 39.54C64.1423 38.8527 63.086 38.4955 62.0857 38.7092ZM54.9889 41.0294C55.0337 43.0417 55.3884 45.035 55.4236 47.049C54.4712 45.3507 53.4708 43.678 52.4673 42.0116C51.7082 41.9239 50.9508 42.3481 50.2349 42.5841C50.9444 44.9313 51.7178 47.2595 52.4481 49.6003C52.9403 49.527 53.4181 49.3803 53.8879 49.2144C53.4405 47.3854 52.7262 45.633 52.2579 43.8103C53.2487 45.4687 54.2155 47.1399 55.2206 48.7903C55.7048 48.6436 56.1874 48.4905 56.6716 48.3438C56.523 46.4159 56.3664 44.488 56.189 42.565C56.8506 44.3286 57.3412 46.1528 57.9484 47.9356C58.4358 47.7761 58.9232 47.6167 59.4122 47.462C58.6372 45.0988 57.9277 42.7133 57.1239 40.358C56.4159 40.594 55.7064 40.8252 54.9889 41.0294ZM68.0925 47.1765C67.0938 47.4333 47.2306 52.2474 46.8136 53.2185C45.9155 55.2915 36.5256 74.2146 27.9411 51.6414C27.2652 42.9183 35.0922 38.9079 35.9551 37.6242C37.1057 35.7777 66.1452 34.4383 65.3472 35.5003C66.4486 35.9554 69.0098 46.9198 68.0925 47.1765ZM38.8092 46.1831C37.7784 46.5275 36.735 46.8321 35.7042 47.1765C36.4122 49.5334 37.2032 51.8631 37.9143 54.2199C38.432 54.1593 38.9258 53.9887 39.4116 53.8069C39.1192 52.8709 38.7964 51.9444 38.5391 50.9972C39.3828 50.7851 40.2058 50.2828 41.1023 50.4774C41.5385 51.2667 41.6041 52.2139 42.1682 52.9394C42.7083 52.7816 43.2564 52.6412 43.7741 52.418C43.6255 52.123 43.3091 51.9524 43.1877 51.6414C42.9336 51.0403 42.7946 50.3817 42.4158 49.8395C42.1825 49.527 41.7766 49.4839 41.4251 49.409C41.7798 49.0119 42.1666 48.5575 42.1346 47.9882C42.1026 47.0777 41.5513 46.0444 40.5845 45.8658C39.9757 45.8116 39.3796 45.9997 38.8092 46.1831ZM29.1253 49.224C29.8667 51.5824 30.621 53.9361 31.3705 56.2913C31.8403 56.1924 32.3021 56.0553 32.7575 55.9006C32.6521 55.0188 32.3005 54.196 32.0304 53.3572C32.9061 52.9921 33.9065 52.8868 34.6815 52.3144C35.7618 51.4246 35.5412 49.7167 34.7358 48.7169C34.1909 48.0488 33.2273 47.9515 32.4427 48.1843C31.3273 48.5017 30.2343 48.8923 29.1253 49.224Z" fill="#F17720"/>
<path d="M62.1032 40.042C62.8814 39.8236 63.706 40.2748 64.1294 40.9222C64.5465 41.6127 64.8965 42.3973 64.8198 43.2233C64.8118 44.1003 64.147 44.9359 63.2713 45.0857C62.4387 45.301 61.563 44.8099 61.1444 44.0955C60.6538 43.2759 60.3469 42.2506 60.6586 41.3113C60.8519 40.6591 61.4432 40.1776 62.1032 40.042Z" fill="#F17720"/>
<path d="M46.0989 45.0843C46.6518 44.9329 47.3006 44.9345 47.7784 45.2932C48.4016 45.7158 48.7148 46.4382 48.9433 47.1286C49.183 47.8637 49.1367 48.7328 48.6637 49.3674C48.0932 50.1313 46.9075 50.3673 46.1133 49.8171C45.2312 49.2032 44.8013 48.0822 44.7933 47.0361C44.7534 46.191 45.2951 45.3634 46.0989 45.0843Z" fill="#F17720"/>
<path d="M37.5593 47.9237C38.4318 47.7052 39.2596 47.2428 40.1801 47.2699C40.6003 47.6893 40.9471 48.4914 40.4389 48.9713C39.715 49.3541 38.9032 49.5295 38.1234 49.7607C37.9269 49.1499 37.7271 48.5424 37.5593 47.9237Z" fill="#F17720"/>
<path d="M80.8748 49.4652C83.5163 49.0586 86.1817 48.7955 88.8552 48.7413C90.6401 48.7987 92.4874 48.7508 94.1829 49.3982C94.9532 49.6869 95.741 50.2226 95.88 51.0949V51.5605C95.7729 52.3451 95.1193 52.9064 94.3619 53.0419C92.39 53.4262 90.4228 52.8091 88.526 52.3323C85.9053 51.5781 83.3644 50.5703 80.8748 49.4652Z" fill="#F17720"/>
<path d="M31.0044 49.9494C31.7219 49.7756 32.4346 49.3738 33.1921 49.5077C33.9303 49.8123 34.2068 51.1023 33.4046 51.5026C32.8533 51.7816 32.246 51.9172 31.6628 52.1053C31.4103 51.3973 31.1754 50.6813 31.0044 49.9494Z" fill="#F17720"/>
<path d="M4.41368 64.3185C7.58572 63.3585 10.8776 62.8403 14.1727 62.5197C11.3778 64.7235 8.46781 66.8236 5.25103 68.3735C4.01898 68.9045 2.66227 69.4658 1.29918 69.1724C0.592859 69.0273 0.156604 68.3687 0 67.7086V67.3546C0.12784 66.6737 0.621623 66.1379 1.17773 65.7568C2.1557 65.0823 3.2759 64.6438 4.41368 64.3185Z" fill="#F17720"/>
</g>
</svg>
