<svg width="72" height="68" viewBox="0 0 72 68" fill="none" xmlns="http://www.w3.org/2000/svg">
<g opacity="0.2">
<path d="M45.768 0H46.0121C46.594 0.0993322 47.1379 0.553422 47.1201 1.18371C47.1853 2.69971 46.3214 4.0336 45.621 5.31309C44.5581 7.11171 43.3078 8.79445 41.9924 10.4157C42.3112 7.62256 42.7627 4.80933 43.783 2.17585C44.1883 1.28777 44.7086 0.204577 45.768 0Z" fill="#F17720"/>
<path d="M22.9309 4.68518C23.6206 4.24883 24.5651 3.96621 25.3164 4.41793C26.0855 4.9004 26.383 5.81805 26.6496 6.63517C27.3618 9.18824 27.5052 11.8738 28.3383 14.3973C28.6867 15.3433 29.1027 16.3295 29.9263 16.9622C30.7238 17.5759 31.865 17.7403 32.7988 17.3583C33.3048 17.1112 33.4044 16.4785 33.3617 15.9724C33.2515 14.6799 32.7372 13.4631 32.576 12.1789C32.5334 11.6987 32.5227 11.0874 32.9742 10.787C33.4127 10.5257 34.0147 10.5186 34.4496 10.7941C34.7968 11.0637 34.8786 11.532 34.9035 11.9447C34.9378 13.4051 34.4437 14.8703 34.7423 16.3236C34.9284 17.2921 36.2046 17.6871 36.9832 17.1632C37.4667 16.8238 37.7097 16.2562 37.8933 15.7158C38.1872 14.752 38.3472 13.7516 38.6565 12.7914C38.8449 12.2581 39.1483 11.6384 39.761 11.5155C40.3748 11.4209 41.1013 11.7354 41.2992 12.3586C41.4828 12.9593 41.3774 13.6002 41.2518 14.2022C41.0112 15.1659 40.7268 16.1178 40.4862 17.0816C40.3594 17.6906 40.2457 18.3339 40.395 18.95C40.568 19.6926 41.4686 20.1538 42.1737 19.8546C42.8397 19.5767 43.2853 18.9701 43.6882 18.3978C44.3815 17.3394 44.9598 16.2101 45.6447 15.1458C46.0097 14.622 46.4055 14.0662 47.004 13.793C47.5918 13.5116 48.3301 13.8368 48.6358 14.3819C48.9001 14.9223 48.7116 15.5514 48.4865 16.0729C48.0504 17.0544 47.4045 17.9236 46.8641 18.8495C46.3712 19.6418 45.8663 20.466 45.7135 21.4014C45.6056 21.9773 45.8806 22.5969 46.3795 22.9044C46.6342 23.0676 46.9578 23.0037 47.2137 22.8784C47.9781 22.4928 48.5493 21.8354 49.0932 21.1933C50.4098 19.7423 51.5214 18.1163 52.9162 16.7351C53.6438 16.0292 54.4544 15.3267 55.4652 15.082C56.3042 14.8939 57.1231 15.4095 57.5853 16.0788C58.0095 16.5968 58.1695 17.3666 57.827 17.9685C56.9418 19.3934 55.2946 20.0178 53.882 20.7829C52.5962 21.4605 51.2145 21.9796 50.0472 22.8618C49.6952 23.161 49.2911 23.511 49.2568 24.0053C49.3018 24.6545 49.8848 25.1027 50.4311 25.3605C51.333 25.7495 52.3142 25.3688 53.1591 25.0116C53.8334 24.7467 54.4816 24.347 55.2199 24.2974C55.9938 24.2702 56.4192 25.1074 56.4476 25.7767C56.4524 26.4188 55.8954 26.8528 55.3752 27.1189C54.2079 27.7031 52.9091 27.9774 51.7442 28.5663C51.1422 28.8809 50.5022 29.4059 50.5271 30.1509C50.5828 31.0212 50.9526 31.9803 51.7537 32.4213C52.4682 32.8068 53.3096 32.6306 54.0526 32.432C56.0494 31.8005 57.7998 30.6097 59.7172 29.7938C60.3903 29.523 61.1155 29.2806 61.8503 29.3846C62.4499 29.4804 62.803 30.0705 62.9073 30.6227C63.0886 31.564 63.315 32.5786 62.963 33.5057C62.6668 34.2708 61.7768 34.5156 61.0314 34.5392C59.1211 34.5653 57.2381 33.987 55.323 34.2022C54.151 34.3098 52.9695 34.9295 52.4516 36.0257C52.1044 36.6004 52.2466 37.3915 52.7846 37.7995C53.9543 38.7242 55.4593 39.034 56.8802 39.3628C58.1541 39.682 59.4494 39.902 60.7351 40.1704C61.8704 40.4247 63.0365 40.6399 64.0864 41.1626C64.4254 41.3482 64.8378 41.5741 64.903 41.9951C64.9681 42.7673 64.3389 43.569 63.5235 43.5241C62.572 43.4709 61.6974 43.0487 60.8619 42.6254C58.7798 41.5587 56.8458 40.174 54.6155 39.4124C53.7019 39.1274 52.6187 38.911 51.7596 39.4656C51.058 39.8866 50.7736 40.6907 50.4963 41.4121C50.0685 41.8898 49.5613 42.4503 49.7071 43.1516C49.9358 44.0432 50.6812 44.6723 51.3827 45.2127C52.9067 46.2888 54.5587 47.1663 56.1336 48.1619C56.9394 48.7094 57.8187 49.2712 58.269 50.1687C58.4741 50.5435 58.3378 50.9657 58.1837 51.3299C57.6232 51.5522 56.9845 51.5546 56.4287 51.3193C55.4403 50.9196 54.6416 50.1876 53.8773 49.4675C52.9032 48.5061 51.9302 47.5435 50.9206 46.6199C50.1918 45.9932 49.4013 45.383 48.4604 45.1193C47.7956 44.9254 47.0312 44.9987 46.4648 45.4161C46.0394 45.7638 45.7229 46.2782 45.7111 46.8375C45.7218 47.4631 46.0844 48.0023 46.434 48.4942C47.1 49.3291 47.9094 50.0374 48.746 50.6961C49.5755 51.369 50.4063 52.0418 51.2346 52.717C52.0807 53.3958 52.9174 54.1136 53.5407 55.01C53.8583 55.4771 54.0728 56.0837 53.8654 56.6395C53.6675 57.135 53.2279 57.4862 52.7775 57.7451C52.358 57.9864 51.8485 58.1247 51.3733 57.9793C50.7902 57.809 50.3683 57.3372 49.9998 56.8819C49.0494 55.6107 48.5066 54.1053 47.7802 52.7076C47.1142 51.3973 46.524 49.9322 45.2821 49.0512C44.7026 48.6137 43.8873 48.6385 43.264 48.9672C42.7544 49.2085 42.2377 49.6354 42.2117 50.242C42.1619 51.201 42.7307 52.0312 43.1431 52.853C43.5318 53.6477 44.0971 54.4234 44.084 55.3458C43.9726 56.3356 42.4913 56.7896 41.8194 56.0648C41.2138 55.4581 40.9614 54.6126 40.6237 53.8475C40.2397 52.9713 39.9399 51.9981 39.2028 51.3406C38.3982 50.6062 36.9524 50.9042 36.4452 51.8479C36.2295 52.2275 36.1478 52.665 36.1466 53.0978C36.0897 54.2661 36.3729 55.4132 36.6526 56.539C36.9773 57.7002 37.3233 58.8567 37.635 60.0227C38.0095 61.4027 38.442 62.7827 38.525 64.2195C38.5783 64.9869 38.5356 65.8301 38.0581 66.471C37.6409 67.0244 36.9263 67.2538 36.2568 67.2751C35.7555 67.2988 35.2163 67.1592 34.8691 66.7785C34.4614 66.3362 34.2967 65.7295 34.2304 65.1477C34.0289 63.1233 34.465 61.1201 34.7162 59.1216C34.9627 57.401 35.304 55.6793 35.2613 53.9327C35.2199 53.2634 35.1867 52.5432 34.779 51.9768C34.4022 51.421 33.6165 51.2779 33.0133 51.5085C32.4172 51.7769 32.1269 52.4119 31.929 52.9961C31.5794 54.1018 31.4597 55.2654 31.1018 56.3687C30.9466 56.792 30.7487 57.2355 30.3707 57.5063C29.8812 57.8492 29.201 57.7357 28.7199 57.4389C28.2293 57.116 28.2127 56.4621 28.2933 55.9418C28.5362 54.5322 29.2555 53.2314 29.3574 51.7923C29.4202 51.149 29.1868 50.4359 28.6085 50.0895C27.5787 49.4722 26.3261 49.0642 25.1245 49.3516C24.1207 49.6235 23.3504 50.4111 22.8148 51.2684C21.2671 53.831 20.7647 56.8322 19.6543 59.5792C19.2644 60.4342 18.8864 61.3708 18.09 61.9325C17.5556 62.3156 16.8362 62.3286 16.2449 62.0732C15.5931 61.7953 14.952 61.4086 14.5266 60.8303C14.1237 60.2805 14.1853 59.5071 14.5171 58.9395C15.2412 57.7309 16.3587 56.8393 17.4264 55.9489C19.2194 54.3879 21.1877 52.9902 22.6714 51.11C23.4523 50.1663 24.0804 49.0134 24.1053 47.7622C24.1349 46.802 23.7593 45.8619 23.162 45.1193C22.9286 44.8189 22.4972 44.6333 22.1322 44.8036C21.5243 45.0531 21.1083 45.5947 20.7208 46.1008C20.0762 46.996 19.4362 47.8935 18.7631 48.7674C18.2512 49.387 17.6326 50.0031 16.8185 50.1829C16.2058 50.2822 15.6275 49.9275 15.2139 49.5065C14.8951 49.1706 14.5526 48.752 14.6202 48.2577C14.7103 47.7682 15.1381 47.4382 15.5303 47.1793C16.9287 46.3137 18.5676 45.8998 19.9197 44.9502C20.4186 44.5801 20.9329 44.0657 20.9199 43.3999C20.8938 42.7755 20.5146 42.241 20.107 41.7964C19.7728 41.4168 19.3888 40.9816 18.8413 40.9675C18.205 40.9651 17.6551 41.347 17.1752 41.7231C16.4487 42.3404 15.7886 43.0298 15.0776 43.6624C14.7624 43.925 14.4152 44.2064 13.9897 44.2454C13.4541 44.217 13.2752 43.6045 13.1969 43.1658C13.082 42.4728 13.6342 41.9123 14.1948 41.6048C15.5173 40.8882 17.0401 40.6044 18.3258 39.8121C18.9432 39.4396 19.499 38.8354 19.537 38.0833C19.6353 37.0698 19.3189 35.879 18.3519 35.3753C17.2605 34.8148 15.9747 34.9697 14.8039 35.1293C11.7927 35.6 8.94263 36.7742 5.93142 37.2425C5.10189 37.3016 4.13015 37.4636 3.4369 36.8877C2.87874 36.3414 2.89533 35.4261 3.17737 34.7462C3.44993 34.1005 4.15029 33.7812 4.80326 33.6618C6.23361 33.4158 7.68885 33.6074 9.11564 33.7777C11.1326 34.0059 13.1424 34.3595 15.1772 34.3701C16.2603 34.3489 17.4098 34.2744 18.3555 33.6902C19.1139 33.2231 19.5938 32.3374 19.5737 31.4505C19.4315 30.8462 18.7572 30.6381 18.2429 30.4453C16.1892 29.8221 14.0241 29.7772 11.9064 29.5372C10.5484 29.4225 9.18793 29.3125 7.83698 29.1327C6.90671 28.9731 5.9409 28.8596 5.09833 28.4055C4.82814 28.2624 4.54966 28.0046 4.58995 27.6688C4.63853 27.1757 5.11255 26.8398 5.57828 26.7854C6.84746 26.5714 8.12968 26.8694 9.3728 27.1165C11.1196 27.5233 12.8592 27.9585 14.606 28.3665C15.7211 28.603 16.854 28.8288 17.9999 28.7863C18.41 28.7496 18.8484 28.7271 19.1992 28.4871C19.7017 28.1583 19.8273 27.4453 19.6116 26.9119C19.3473 26.2379 18.7607 25.7696 18.1978 25.3486C17.456 24.8248 16.6881 24.3376 15.9486 23.8102C15.5268 23.4909 15.1049 23.1326 14.8631 22.6525C14.4045 21.7065 15.4106 20.4187 16.4523 20.7534C17.9324 21.211 18.9824 22.5354 20.4921 22.9245C21.3181 23.161 22.1832 22.539 22.4142 21.7561C22.5778 21.1625 22.2614 20.576 21.913 20.1136C21.3761 19.4301 20.741 18.8317 20.1947 18.1553C19.8782 17.7474 19.5903 17.2081 19.7858 16.6855C20.088 15.9972 20.9957 15.5301 21.6937 15.9428C22.5932 16.4442 23.1513 17.3465 23.7794 18.1281C24.4442 18.9524 25.0296 19.9102 25.986 20.4282C26.5074 20.7049 27.1544 20.5724 27.5894 20.1964C28.3253 19.6654 28.7685 18.7643 28.7021 17.8562C28.6464 16.9314 28.2518 16.0753 27.8418 15.2593C26.8191 13.3898 25.4764 11.7248 24.2451 9.99118C23.4606 8.8796 22.6287 7.73847 22.304 6.39512C22.1251 5.76483 22.368 5.03639 22.9309 4.68518ZM46.0417 28.7058C45.1968 28.8406 44.3791 29.342 44.0271 30.1438C43.4192 31.5427 43.9928 33.352 45.2975 34.1466C46.1685 34.6788 47.3002 34.4967 48.1239 33.961C48.7958 33.5211 49.175 32.7158 49.1655 31.9223C49.2177 30.9574 48.8207 29.9806 48.1144 29.3219C47.5669 28.8123 46.7836 28.5474 46.0417 28.7058ZM40.7789 30.4264C40.8121 31.9188 41.0752 33.3969 41.1013 34.8905C40.395 33.6311 39.6531 32.3906 38.9089 31.1549C38.346 31.0898 37.7843 31.4044 37.2534 31.5794C37.7796 33.3201 38.3531 35.0465 38.8947 36.7825C39.2597 36.7281 39.614 36.6193 39.9624 36.4963C39.6306 35.14 39.1009 33.8404 38.7537 32.4887C39.4884 33.7186 40.2054 34.9579 40.9508 36.1818C41.3098 36.073 41.6677 35.9595 42.0268 35.8507C41.9166 34.421 41.8004 32.9913 41.6689 31.5652C42.1595 32.8731 42.5233 34.2259 42.9736 35.5479C43.3351 35.4297 43.6965 35.3114 44.0591 35.1967C43.4844 33.4442 42.9582 31.6752 42.3622 29.9286C41.8372 30.1036 41.311 30.2751 40.7789 30.4264ZM50.4963 34.9851C49.7557 35.1754 35.0255 38.7455 34.7162 39.4656C34.0502 41.0029 27.0869 55.036 20.7208 38.2961C20.2195 31.8272 26.0239 28.8532 26.6638 27.9012C27.517 26.5319 49.0522 25.5386 48.4604 26.3262C49.2772 26.6637 51.1765 34.7947 50.4963 34.9851ZM28.7803 34.2483C28.016 34.5038 27.2421 34.7296 26.4778 34.9851C27.0028 36.7328 27.5894 38.4605 28.1167 40.2083C28.5007 40.1633 28.8668 40.0368 29.2271 39.902C29.0102 39.2079 28.7708 38.5208 28.5801 37.8184C29.2058 37.6611 29.8161 37.2886 30.4809 37.4329C30.8044 38.0182 30.853 38.7206 31.2713 39.2587C31.6718 39.1416 32.0783 39.0376 32.4623 38.872C32.3521 38.6533 32.1174 38.5267 32.0274 38.2961C31.8389 37.8503 31.7358 37.3619 31.455 36.9599C31.282 36.7281 30.981 36.6962 30.7202 36.6406C30.9833 36.3461 31.2701 36.0091 31.2464 35.587C31.2227 34.9117 30.8139 34.1455 30.0969 34.013C29.6454 33.9728 29.2034 34.1123 28.7803 34.2483ZM21.5989 36.5034C22.1488 38.2524 22.7081 39.9978 23.2639 41.7444C23.6123 41.6711 23.9548 41.5694 24.2926 41.4547C24.2143 40.8007 23.9536 40.1905 23.7534 39.5685C24.4028 39.2977 25.1446 39.2197 25.7193 38.7952C26.5204 38.1353 26.3569 36.8688 25.7596 36.1274C25.3555 35.6319 24.641 35.5598 24.0591 35.7324C23.2319 35.9677 22.4214 36.2575 21.5989 36.5034Z" fill="#F17720"/>
<path d="M46.0547 29.6938C46.6319 29.5318 47.2433 29.8665 47.5574 30.3466C47.8667 30.8586 48.1262 31.4404 48.0693 32.053C48.0634 32.7034 47.5704 33.323 46.921 33.4342C46.3036 33.5938 45.6542 33.2296 45.3437 32.6998C44.9799 32.092 44.7524 31.3316 44.9835 30.6351C45.1268 30.1515 45.5653 29.7943 46.0547 29.6938Z" fill="#F17720"/>
<path d="M34.186 33.4338C34.5961 33.3214 35.0772 33.3226 35.4315 33.5887C35.8937 33.902 36.126 34.4377 36.2954 34.9498C36.4732 35.4949 36.4388 36.1394 36.088 36.61C35.665 37.1765 34.7857 37.3515 34.1967 36.9435C33.5425 36.4882 33.2238 35.6569 33.2178 34.8812C33.1882 34.2544 33.59 33.6407 34.186 33.4338Z" fill="#F17720"/>
<path d="M27.8535 35.5388C28.5006 35.3768 29.1144 35.0338 29.797 35.0539C30.1087 35.365 30.3658 35.9598 29.989 36.3157C29.4521 36.5995 28.8501 36.7296 28.2718 36.9011C28.1261 36.4481 27.9779 35.9976 27.8535 35.5388Z" fill="#F17720"/>
<path d="M59.9751 36.6829C61.934 36.3814 63.9106 36.1862 65.8932 36.146C67.2169 36.1886 68.5868 36.1531 69.8442 36.6332C70.4154 36.8473 70.9996 37.2446 71.1027 37.8914V38.2367C71.0233 38.8185 70.5386 39.2348 69.9769 39.3353C68.5146 39.6203 67.0558 39.1626 65.6491 38.8091C63.7056 38.2497 61.8214 37.5024 59.9751 36.6829Z" fill="#F17720"/>
<path d="M22.9924 37.0406C23.5245 36.9117 24.0531 36.6137 24.6148 36.7131C25.1623 36.9389 25.3673 37.8956 24.7724 38.1924C24.3635 38.3993 23.9132 38.4999 23.4807 38.6394C23.2934 38.1144 23.1192 37.5834 22.9924 37.0406Z" fill="#F17720"/>
<path d="M3.2731 47.6968C5.62542 46.9849 8.06662 46.6006 10.5102 46.3629C8.43754 47.9972 6.27957 49.5546 3.89407 50.704C2.98039 51.0977 1.97429 51.514 0.963444 51.2964C0.439653 51.1888 0.116135 50.7004 0 50.2109V49.9483C0.0948038 49.4434 0.460983 49.0461 0.87338 48.7634C1.59863 48.2632 2.42935 47.938 3.2731 47.6968Z" fill="#F17720"/>
</g>
</svg>
