<svg width="55" height="52" viewBox="0 0 55 52" fill="none" xmlns="http://www.w3.org/2000/svg">
<g opacity="0.2">
<path d="M34.8835 0H35.0696C35.5131 0.0757091 35.9276 0.421808 35.9141 0.9022C35.9638 2.05766 35.3053 3.07433 34.7715 4.04953C33.9613 5.42041 33.0084 6.70296 32.0059 7.93864C32.2488 5.80977 32.593 3.66558 33.3706 1.65839C33.6795 0.981514 34.076 0.155925 34.8835 0Z" fill="#F17720"/>
<path d="M17.4773 3.57117C18.003 3.23859 18.7228 3.02318 19.2955 3.36748C19.8817 3.73521 20.1084 4.43462 20.3116 5.05742C20.8544 7.00332 20.9637 9.05017 21.5987 10.9735C21.8642 11.6946 22.1812 12.4463 22.809 12.9285C23.4169 13.3962 24.2867 13.5215 24.9984 13.2304C25.3841 13.042 25.4599 12.5598 25.4274 12.1741C25.3434 11.1889 24.9514 10.2615 24.8286 9.2827C24.7961 8.91677 24.7879 8.4508 25.1321 8.22187C25.4663 8.02269 25.9251 8.01728 26.2566 8.22728C26.5212 8.43278 26.5835 8.78969 26.6025 9.10425C26.6287 10.2173 26.2521 11.3341 26.4797 12.4418C26.6215 13.1799 27.5942 13.481 28.1877 13.0817C28.5562 12.823 28.7413 12.3904 28.8813 11.9785C29.1053 11.2439 29.2273 10.4814 29.463 9.74957C29.6066 9.34309 29.8378 8.87081 30.3048 8.77707C30.7727 8.70497 31.3264 8.94472 31.4772 9.4197C31.6172 9.87756 31.5368 10.3661 31.4411 10.8248C31.2577 11.5594 31.0409 12.2849 30.8576 13.0195C30.7609 13.4837 30.6742 13.974 30.788 14.4435C30.9199 15.0096 31.6064 15.3611 32.1438 15.133C32.6514 14.9212 32.991 14.4589 33.2981 14.0226C33.8265 13.216 34.2672 12.3552 34.7893 11.5441C35.0675 11.1448 35.3692 10.7212 35.8253 10.513C36.2733 10.2985 36.836 10.5463 37.069 10.9618C37.2704 11.3737 37.1268 11.8532 36.9552 12.2507C36.6228 12.9988 36.1306 13.6612 35.7187 14.3669C35.343 14.9708 34.9582 15.599 34.8417 16.3119C34.7595 16.7509 34.969 17.2231 35.3493 17.4575C35.5435 17.5819 35.7901 17.5332 35.9852 17.4377C36.5677 17.1438 37.0031 16.6427 37.4177 16.1533C38.4211 15.0474 39.2684 13.8081 40.3315 12.7554C40.886 12.2173 41.5038 11.682 42.2743 11.4954C42.9138 11.3521 43.5379 11.7451 43.8901 12.2552C44.2135 12.65 44.3354 13.2367 44.0744 13.6955C43.3997 14.7815 42.1442 15.2574 41.0676 15.8406C40.0876 16.357 39.0344 16.7527 38.1448 17.425C37.8765 17.6531 37.5685 17.9198 37.5423 18.2966C37.5766 18.7914 38.021 19.133 38.4374 19.3295C39.1248 19.626 39.8726 19.3358 40.5166 19.0636C41.0306 18.8617 41.5246 18.5571 42.0873 18.5192C42.6771 18.4985 43.0014 19.1366 43.0231 19.6467C43.0267 20.1361 42.6022 20.4669 42.2056 20.6697C41.316 21.115 40.326 21.3241 39.4382 21.7729C38.9793 22.0126 38.4916 22.4128 38.5106 22.9806C38.553 23.644 38.8348 24.3749 39.4454 24.7111C39.99 25.005 40.6313 24.8707 41.1976 24.7192C42.7196 24.238 44.0536 23.3303 45.515 22.7084C46.0281 22.502 46.5808 22.3173 47.1408 22.3966C47.5979 22.4696 47.867 22.9193 47.9465 23.3403C48.0847 24.0577 48.2572 24.831 47.989 25.5376C47.7632 26.1208 47.0848 26.3073 46.5167 26.3254C45.0607 26.3452 43.6255 25.9045 42.1659 26.0685C41.2726 26.1505 40.3721 26.6228 39.9774 27.4583C39.7128 27.8963 39.8211 28.4993 40.2312 28.8102C41.1227 29.5151 42.2698 29.7512 43.3527 30.0018C44.3237 30.2451 45.3109 30.4127 46.2909 30.6173C47.1562 30.8111 48.045 30.9752 48.8452 31.3735C49.1035 31.515 49.4179 31.6872 49.4675 32.008C49.5172 32.5966 49.0376 33.2077 48.4162 33.1734C47.6909 33.1329 47.0243 32.8111 46.3876 32.4884C44.8006 31.6755 43.3265 30.62 41.6267 30.0396C40.9303 29.8224 40.1048 29.6575 39.4499 30.0802C38.9152 30.401 38.6984 31.0139 38.4871 31.5637C38.161 31.9278 37.7744 32.355 37.8855 32.8895C38.0599 33.5691 38.628 34.0486 39.1627 34.4605C40.3242 35.2807 41.5833 35.9494 42.7837 36.7083C43.3979 37.1256 44.0681 37.5537 44.4113 38.2378C44.5676 38.5235 44.4637 38.8453 44.3463 39.1229C43.9191 39.2923 43.4322 39.2941 43.0086 39.1148C42.2553 38.8101 41.6465 38.2522 41.064 37.7033C40.3215 36.9706 39.58 36.2369 38.8104 35.533C38.255 35.0553 37.6525 34.5903 36.9354 34.3893C36.4286 34.2415 35.8461 34.2973 35.4143 34.6155C35.0901 34.8805 34.8489 35.2725 34.8399 35.6989C34.848 36.1756 35.1244 36.5866 35.3908 36.9616C35.8985 37.5979 36.5154 38.1378 37.153 38.6398C37.7853 39.1526 38.4184 39.6655 39.0498 40.1801C39.6947 40.6975 40.3324 41.2446 40.8075 41.9277C41.0495 42.2837 41.213 42.7461 41.0549 43.1697C40.9041 43.5474 40.569 43.8151 40.2258 44.0124C39.906 44.1963 39.5177 44.3018 39.1555 44.1909C38.7111 44.0611 38.3895 43.7015 38.1086 43.3545C37.3843 42.3856 36.9706 41.2382 36.4169 40.1729C35.9093 39.1743 35.4595 38.0576 34.5129 37.3861C34.0712 37.0526 33.4498 37.0715 32.9747 37.3221C32.5863 37.506 32.1925 37.8313 32.1727 38.2937C32.1347 39.0247 32.5683 39.6574 32.8826 40.2838C33.1789 40.8894 33.6097 41.4807 33.5998 42.1837C33.5149 42.9381 32.3858 43.2842 31.8737 42.7317C31.4122 42.2693 31.2198 41.6249 30.9624 41.0418C30.6697 40.3739 30.4412 39.6321 29.8794 39.131C29.2661 38.5713 28.1642 38.7984 27.7776 39.5177C27.6132 39.807 27.5509 40.1405 27.55 40.4703C27.5066 41.3608 27.7225 42.2351 27.9357 43.0931C28.1831 43.9782 28.4469 44.8597 28.6844 45.7483C28.9699 46.8002 29.2995 47.852 29.3628 48.947C29.4034 49.532 29.3709 50.1746 29.0069 50.6631C28.6889 51.0849 28.1443 51.2598 27.634 51.276C27.2519 51.294 26.841 51.1877 26.5763 50.8975C26.2656 50.5604 26.1401 50.098 26.0895 49.6546C25.9359 48.1115 26.2683 46.5847 26.4598 45.0615C26.6477 43.7502 26.9078 42.4379 26.8753 41.1067C26.8437 40.5965 26.8184 40.0476 26.5077 39.6159C26.2204 39.1923 25.6216 39.0832 25.1619 39.259C24.7076 39.4636 24.4863 39.9476 24.3354 40.3928C24.069 41.2355 23.9778 42.1224 23.705 42.9633C23.5867 43.286 23.4358 43.624 23.1477 43.8304C22.7747 44.0918 22.2562 44.0052 21.8895 43.779C21.5156 43.5329 21.5029 43.0345 21.5644 42.638C21.7495 41.5636 22.2978 40.5722 22.3754 39.4753C22.4233 38.985 22.2454 38.4415 21.8046 38.1774C21.0197 37.707 20.065 37.396 19.1491 37.615C18.3841 37.8223 17.797 38.4226 17.3888 39.076C16.2092 41.0291 15.8262 43.3166 14.9799 45.4104C14.6827 46.062 14.3946 46.7758 13.7876 47.2039C13.3803 47.496 12.832 47.5059 12.3813 47.3112C11.8845 47.0994 11.3959 46.8047 11.0716 46.3639C10.7645 45.9448 10.8115 45.3554 11.0644 44.9227C11.6163 44.0016 12.468 43.322 13.2818 42.6434C14.6484 41.4537 16.1486 40.3883 17.2795 38.9552C17.8747 38.236 18.3534 37.3572 18.3724 36.4037C18.395 35.6718 18.1086 34.9553 17.6534 34.3893C17.4755 34.1603 17.1467 34.0188 16.8685 34.1486C16.4052 34.3388 16.0881 34.7516 15.7928 35.1374C15.3014 35.8196 14.8137 36.5037 14.3007 37.1698C13.9105 37.6421 13.439 38.1116 12.8185 38.2486C12.3515 38.3243 11.9107 38.054 11.5955 37.7331C11.3525 37.4771 11.0915 37.1581 11.143 36.7813C11.2116 36.4082 11.5377 36.1567 11.8367 35.9593C12.9025 35.2996 14.1516 34.9841 15.1822 34.2604C15.5625 33.9783 15.9544 33.5862 15.9445 33.0788C15.9246 32.6029 15.6356 32.1955 15.3249 31.8566C15.0702 31.5673 14.7776 31.2356 14.3603 31.2248C13.8752 31.223 13.4561 31.5141 13.0903 31.8007C12.5367 32.2712 12.0336 32.7967 11.4916 33.2789C11.2514 33.479 10.9867 33.6935 10.6625 33.7232C10.2542 33.7016 10.1178 33.2347 10.0582 32.9003C9.97061 32.3722 10.3915 31.945 10.8187 31.7106C11.8267 31.1644 12.9874 30.9481 13.9674 30.3442C14.4379 30.0603 14.8616 29.5998 14.8905 29.0265C14.9654 28.2541 14.7243 27.3465 13.9872 26.9626C13.1554 26.5354 12.1754 26.6534 11.283 26.7751C8.98791 27.1338 6.81567 28.0288 4.52058 28.3857C3.88833 28.4308 3.14769 28.5543 2.6193 28.1153C2.19389 27.6989 2.20653 27.0013 2.4215 26.4831C2.62924 25.991 3.16304 25.7476 3.66072 25.6566C4.7509 25.4691 5.86006 25.6151 6.94754 25.7449C8.48482 25.9189 10.0167 26.1884 11.5675 26.1965C12.3931 26.1802 13.2692 26.1235 13.9899 25.6782C14.568 25.3222 14.9338 24.6471 14.9185 23.9712C14.8101 23.5106 14.2961 23.352 13.9041 23.2051C12.3389 22.7301 10.6887 22.6958 9.07462 22.5129C8.03953 22.4254 7.00263 22.3416 5.97296 22.2046C5.26393 22.0829 4.52781 21.9964 3.88562 21.6503C3.67969 21.5413 3.46743 21.3448 3.49814 21.0888C3.53517 20.713 3.89646 20.457 4.25142 20.4155C5.21877 20.2524 6.19606 20.4795 7.14353 20.6679C8.47488 20.978 9.80081 21.3096 11.1322 21.6206C11.9821 21.8008 12.8456 21.973 13.719 21.9405C14.0315 21.9126 14.3657 21.8955 14.633 21.7125C15.016 21.462 15.1117 20.9185 14.9474 20.512C14.7459 19.9982 14.2988 19.6413 13.8698 19.3205C13.3044 18.9212 12.7191 18.5499 12.1555 18.1479C11.834 17.9045 11.5124 17.6314 11.3282 17.2655C10.9786 16.5445 11.7454 15.563 12.5394 15.818C13.6675 16.1668 14.4677 17.1763 15.6185 17.4728C16.248 17.6531 16.9073 17.179 17.0835 16.5823C17.2081 16.1299 16.967 15.6828 16.7014 15.3304C16.2923 14.8095 15.8081 14.3534 15.3917 13.8379C15.1506 13.5269 14.9311 13.1159 15.0801 12.7176C15.3105 12.193 16.0023 11.837 16.5343 12.1515C17.2199 12.5337 17.6453 13.2214 18.124 13.8171C18.6307 14.4453 19.0769 15.1754 19.8058 15.5702C20.2032 15.7811 20.6964 15.6801 21.0278 15.3935C21.5887 14.9888 21.9265 14.302 21.876 13.6098C21.8335 12.905 21.5327 12.2525 21.2202 11.6306C20.4407 10.2056 19.4174 8.9366 18.4789 7.6153C17.881 6.76808 17.247 5.89833 16.9995 4.87445C16.8631 4.39406 17.0482 3.83886 17.4773 3.57117ZM35.0919 21.8793C34.4479 21.982 33.8247 22.3641 33.5564 22.9752C33.0931 24.0415 33.5302 25.4205 34.5247 26.0261C35.1885 26.4317 36.0511 26.2929 36.6788 25.8846C37.191 25.5493 37.48 24.9356 37.4728 24.3308C37.5125 23.5953 37.2099 22.8509 36.6716 22.3488C36.2543 21.9604 35.6573 21.7585 35.0919 21.8793ZM31.0807 23.1906C31.106 24.3281 31.3065 25.4547 31.3264 26.593C30.788 25.6332 30.2226 24.6877 29.6554 23.7458C29.2264 23.6963 28.7982 23.936 28.3936 24.0694C28.7946 25.3961 29.2318 26.712 29.6446 28.0351C29.9227 27.9937 30.1928 27.9107 30.4584 27.817C30.2055 26.7832 29.8017 25.7927 29.5371 24.7625C30.0971 25.6999 30.6435 26.6444 31.2116 27.5773C31.4853 27.4943 31.7581 27.4078 32.0318 27.3249C31.9478 26.2352 31.8593 25.1456 31.759 24.0586C32.1329 25.0554 32.4102 26.0865 32.7534 27.0942C33.0289 27.004 33.3044 26.9139 33.5808 26.8265C33.1427 25.4908 32.7417 24.1424 32.2874 22.8112C31.8873 22.9446 31.4862 23.0753 31.0807 23.1906ZM38.4871 26.6651C37.9226 26.8103 26.6955 29.5313 26.4598 30.0802C25.9522 31.2519 20.6449 41.9476 15.7928 29.1888C15.4107 24.2583 19.8347 21.9915 20.3224 21.266C20.9727 20.2223 37.3864 19.4653 36.9354 20.0655C37.5579 20.3228 39.0055 26.52 38.4871 26.6651ZM21.9356 26.1036C21.353 26.2983 20.7632 26.4705 20.1806 26.6651C20.5807 27.9973 21.0278 29.3141 21.4298 30.6462C21.7224 30.6119 22.0015 30.5155 22.2761 30.4127C22.1108 29.8837 21.9283 29.36 21.7829 28.8247C22.2598 28.7048 22.725 28.4209 23.2317 28.5308C23.4783 28.977 23.5153 29.5123 23.8341 29.9224C24.1394 29.8332 24.4492 29.7539 24.7419 29.6277C24.6579 29.461 24.479 29.3645 24.4104 29.1888C24.2668 28.849 24.1882 28.4768 23.9741 28.1703C23.8423 27.9937 23.6129 27.9693 23.4141 27.927C23.6147 27.7025 23.8332 27.4457 23.8152 27.1239C23.7971 26.6093 23.4855 26.0252 22.9391 25.9243C22.5949 25.8936 22.258 26 21.9356 26.1036ZM16.4621 27.8224C16.8812 29.1554 17.3075 30.4858 17.7311 31.817C17.9966 31.7611 18.2577 31.6836 18.5151 31.5961C18.4555 31.0977 18.2568 30.6327 18.1041 30.1586C18.5991 29.9522 19.1645 29.8927 19.6026 29.5691C20.2131 29.0662 20.0885 28.1009 19.6333 27.5358C19.3253 27.1582 18.7806 27.1032 18.3371 27.2348C17.7067 27.4141 17.0889 27.6349 16.4621 27.8224Z" fill="#F17720"/>
<path d="M35.1018 22.6325C35.5416 22.509 36.0077 22.7641 36.247 23.13C36.4828 23.5203 36.6806 23.9637 36.6372 24.4306C36.6327 24.9263 36.257 25.3986 35.762 25.4833C35.2914 25.605 34.7965 25.3274 34.5598 24.9236C34.2825 24.4603 34.1091 23.8808 34.2852 23.3499C34.3945 22.9813 34.7287 22.7091 35.1018 22.6325Z" fill="#F17720"/>
<path d="M26.056 25.4826C26.3685 25.397 26.7352 25.3979 27.0053 25.6007C27.3575 25.8395 27.5346 26.2478 27.6637 26.6381C27.7992 27.0536 27.773 27.5448 27.5057 27.9035C27.1832 28.3352 26.513 28.4686 26.0641 28.1577C25.5655 27.8107 25.3226 27.1771 25.3181 26.5858C25.2955 26.1081 25.6017 25.6403 26.056 25.4826Z" fill="#F17720"/>
<path d="M21.2292 27.0872C21.7224 26.9638 22.1903 26.7024 22.7105 26.7177C22.9481 26.9547 23.1441 27.4081 22.8569 27.6794C22.4477 27.8957 21.9889 27.9948 21.5481 28.1255C21.437 27.7803 21.3241 27.4369 21.2292 27.0872Z" fill="#F17720"/>
<path d="M45.7122 27.9586C47.2052 27.7288 48.7118 27.5801 50.2228 27.5494C51.2317 27.5819 52.2759 27.5548 53.2342 27.9208C53.6695 28.0839 54.1148 28.3867 54.1934 28.8797V29.1429C54.1329 29.5864 53.7635 29.9036 53.3353 29.9802C52.2208 30.1974 51.1089 29.8486 50.0368 29.5792C48.5555 29.1528 47.1194 28.5832 45.7122 27.9586Z" fill="#F17720"/>
<path d="M17.5242 28.2321C17.9297 28.1339 18.3326 27.9067 18.7607 27.9824C19.178 28.1546 19.3342 28.8837 18.8808 29.11C18.5692 29.2677 18.226 29.3443 17.8963 29.4507C17.7536 29.0505 17.6208 28.6458 17.5242 28.2321Z" fill="#F17720"/>
<path d="M2.49469 36.3539C4.28759 35.8113 6.14822 35.5183 8.01066 35.3372C6.43093 36.5828 4.78616 37.7698 2.96798 38.6459C2.2716 38.946 1.50476 39.2632 0.734318 39.0974C0.335095 39.0154 0.0885156 38.6431 0 38.27V38.0699C0.0722576 37.6851 0.351353 37.3822 0.665673 37.1668C1.21844 36.7856 1.8516 36.5377 2.49469 36.3539Z" fill="#F17720"/>
</g>
</svg>
