<svg width="67" height="63" viewBox="0 0 67 63" fill="none" xmlns="http://www.w3.org/2000/svg">
<g opacity="0.2">
<path d="M42.5605 0H42.7875C43.3286 0.092371 43.8344 0.514639 43.8179 1.10075C43.8785 2.51051 43.0752 3.75092 42.4239 4.94075C41.4354 6.61333 40.2728 8.17813 39.0496 9.68576C39.346 7.08838 39.7659 4.4723 40.7147 2.02337C41.0916 1.19752 41.5753 0.19024 42.5605 0Z" fill="#F17720"/>
<path d="M21.3237 4.35712C21.965 3.95135 22.8433 3.68853 23.542 4.1086C24.2572 4.55726 24.5338 5.41059 24.7818 6.17045C25.4441 8.54461 25.5774 11.0419 26.3521 13.3886C26.6761 14.2683 27.0629 15.1854 27.8288 15.7737C28.5704 16.3445 29.6317 16.4973 30.5 16.1421C30.9706 15.9123 31.0632 15.324 31.0235 14.8533C30.921 13.6514 30.4427 12.5199 30.2929 11.3256C30.2532 10.8792 30.2433 10.3107 30.6631 10.0313C31.0709 9.78832 31.6307 9.78172 32.0351 10.0379C32.358 10.2887 32.434 10.7241 32.4572 11.1079C32.4891 12.466 32.0296 13.8284 32.3073 15.1799C32.4803 16.0805 33.6672 16.4478 34.3912 15.9607C34.8408 15.6451 35.0667 15.1172 35.2375 14.6147C35.5108 13.7185 35.6596 12.7882 35.9472 11.8953C36.1224 11.3993 36.4045 10.8231 36.9743 10.7087C37.5451 10.6208 38.2206 10.9133 38.4047 11.4928C38.5755 12.0514 38.4774 12.6474 38.3606 13.2071C38.1369 14.1034 37.8724 14.9886 37.6487 15.8848C37.5308 16.4511 37.425 17.0493 37.5639 17.6223C37.7247 18.3128 38.5623 18.7417 39.218 18.4635C39.8373 18.2051 40.2516 17.641 40.6263 17.1087C41.271 16.1245 41.8088 15.0744 42.4457 14.0847C42.7851 13.5975 43.1532 13.0807 43.7097 12.8267C44.2563 12.5649 44.9428 12.8674 45.2272 13.3743C45.4729 13.8768 45.2977 14.4619 45.0883 14.9468C44.6828 15.8595 44.0822 16.6678 43.5797 17.5288C43.1212 18.2656 42.6518 19.032 42.5096 19.9018C42.4093 20.4374 42.665 21.0136 43.129 21.2995C43.3659 21.4513 43.6667 21.3919 43.9048 21.2753C44.6156 20.9168 45.1467 20.3054 45.6525 19.7083C46.8769 18.359 47.9105 16.847 49.2076 15.5626C49.8842 14.9061 50.638 14.2529 51.578 14.0253C52.3582 13.8504 53.1197 14.3299 53.5495 14.9523C53.944 15.4339 54.0928 16.1498 53.7743 16.7095C52.9511 18.0346 51.4193 18.6152 50.1057 19.3267C48.91 19.9568 47.6251 20.4396 46.5396 21.2599C46.2123 21.5381 45.8366 21.8636 45.8046 22.3233C45.8465 22.927 46.3887 23.3438 46.8967 23.5835C47.7353 23.9453 48.6478 23.5912 49.4335 23.2591C50.0605 23.0128 50.6633 22.6411 51.3499 22.5949C52.0695 22.5696 52.4651 23.3482 52.4915 23.9706C52.496 24.5677 51.978 24.9713 51.4942 25.2187C50.4088 25.7619 49.201 26.017 48.1177 26.5647C47.5579 26.8572 46.9628 27.3454 46.986 28.0382C47.0377 28.8475 47.3816 29.7394 48.1265 30.1495C48.791 30.508 49.5734 30.3442 50.2644 30.1594C52.1213 29.5722 53.7489 28.4649 55.532 27.7061C56.1579 27.4543 56.8323 27.2288 57.5156 27.3256C58.0732 27.4147 58.4016 27.9634 58.4986 28.477C58.6672 29.3523 58.8776 30.2958 58.5503 31.1579C58.2748 31.8694 57.4472 32.097 56.7541 32.119C54.9777 32.1432 53.2266 31.6055 51.4457 31.8056C50.3559 31.9057 49.2572 32.4819 48.7756 33.5013C48.4527 34.0357 48.585 34.7714 49.0853 35.1508C50.1729 36.0107 51.5725 36.2988 52.8938 36.6045C54.0784 36.9014 55.2829 37.1059 56.4786 37.3556C57.5343 37.592 58.6187 37.7921 59.595 38.2782C59.9102 38.4508 60.2937 38.6609 60.3543 39.0523C60.4149 39.7704 59.8298 40.516 59.0716 40.4742C58.1867 40.4247 57.3734 40.0321 56.5965 39.6385C54.6603 38.6466 52.8618 37.3589 50.7879 36.6507C49.9382 36.3857 48.931 36.1844 48.132 36.7002C47.4796 37.0917 47.2152 37.8394 46.9573 38.5102C46.5595 38.9545 46.0878 39.4757 46.2234 40.1278C46.4361 40.9569 47.1292 41.542 47.7816 42.0445C49.1988 43.0452 50.735 43.8611 52.1995 44.787C52.9489 45.2962 53.7666 45.8185 54.1853 46.6532C54.376 47.0017 54.2492 47.3943 54.106 47.733C53.5847 47.9398 52.9907 47.942 52.4739 47.7231C51.5548 47.3514 50.8121 46.6707 50.1013 46.0011C49.1955 45.107 48.2907 44.2119 47.3518 43.3531C46.6741 42.7703 45.9391 42.2029 45.0641 41.9576C44.4458 41.7773 43.7351 41.8455 43.2083 42.2336C42.8127 42.5569 42.5184 43.0353 42.5074 43.5554C42.5173 44.1371 42.8546 44.6386 43.1796 45.096C43.799 45.8724 44.5516 46.5311 45.3296 47.1436C46.101 47.7693 46.8736 48.395 47.6438 49.0229C48.4307 49.6541 49.2087 50.3216 49.7883 51.1551C50.0837 51.5895 50.2831 52.1536 50.0903 52.6705C49.9063 53.1312 49.4974 53.4578 49.0786 53.6987C48.6885 53.923 48.2147 54.0516 47.7728 53.9164C47.2306 53.758 46.8383 53.3193 46.4956 52.8959C45.6118 51.7138 45.107 50.3139 44.4315 49.0141C43.8122 47.7957 43.2634 46.4332 42.1085 45.614C41.5696 45.2071 40.8114 45.2302 40.2318 45.5359C39.7579 45.7602 39.2775 46.1572 39.2532 46.7213C39.2069 47.6132 39.7359 48.3851 40.1194 49.1494C40.4808 49.8883 41.0065 50.6097 40.9944 51.4674C40.8908 52.3879 39.5133 52.8101 38.8885 52.136C38.3253 51.5719 38.0906 50.7857 37.7765 50.0742C37.4195 49.2593 37.1407 48.3543 36.4552 47.7429C35.707 47.06 34.3625 47.3371 33.8909 48.2147C33.6903 48.5677 33.6143 48.9745 33.6132 49.377C33.5603 50.4635 33.8237 51.5301 34.0837 52.577C34.3857 53.6569 34.7075 54.7323 34.9973 55.8166C35.3455 57.0999 35.7478 58.3832 35.8249 59.7193C35.8745 60.4329 35.8348 61.217 35.3907 61.813C35.0028 62.3276 34.3383 62.541 33.7157 62.5608C33.2495 62.5828 32.7481 62.453 32.4252 62.0989C32.0461 61.6876 31.893 61.1235 31.8312 60.5825C31.6439 58.6999 32.0494 56.8371 32.2831 54.9786C32.5123 53.3786 32.8297 51.7775 32.79 50.1534C32.7514 49.531 32.7206 48.8613 32.3415 48.3345C31.991 47.8177 31.2604 47.6846 30.6995 47.8991C30.1452 48.1487 29.8752 48.7392 29.6912 49.2824C29.3661 50.3106 29.2548 51.3927 28.922 52.4186C28.7776 52.8123 28.5936 53.2247 28.242 53.4765C27.7869 53.7954 27.1544 53.6899 26.7069 53.4138C26.2507 53.1136 26.2353 52.5055 26.3102 52.0217C26.5361 50.7109 27.2051 49.5013 27.2998 48.163C27.3582 47.5648 27.1411 46.9017 26.6034 46.5795C25.6457 46.0055 24.4809 45.6261 23.3635 45.8933C22.4301 46.1462 21.7138 46.8786 21.2157 47.6758C19.7765 50.0588 19.3092 52.8497 18.2766 55.4042C17.9141 56.1993 17.5626 57.0702 16.822 57.5925C16.325 57.9488 15.6561 57.9609 15.1062 57.7234C14.5001 57.465 13.9039 57.1054 13.5083 56.5676C13.1336 56.0563 13.1909 55.3371 13.4995 54.8093C14.1728 53.6855 15.212 52.8563 16.2049 52.0283C17.8722 50.5767 19.7026 49.2769 21.0823 47.5285C21.8086 46.651 22.3926 45.5788 22.4158 44.4154C22.4433 43.5224 22.094 42.6482 21.5386 41.9576C21.3215 41.6783 20.9203 41.5057 20.5809 41.664C20.0156 41.896 19.6288 42.3997 19.2685 42.8703C18.669 43.7028 18.0739 44.5374 17.4479 45.3501C16.9719 45.9263 16.3966 46.4992 15.6396 46.6664C15.0698 46.7587 14.5321 46.4288 14.1475 46.0373C13.851 45.725 13.5325 45.3358 13.5954 44.8761C13.6791 44.4209 14.0769 44.1141 14.4417 43.8732C15.742 43.0683 17.2661 42.6834 18.5235 41.8004C18.9874 41.4562 19.4657 40.9778 19.4536 40.3587C19.4293 39.7781 19.0767 39.2811 18.6976 38.8676C18.3868 38.5146 18.0298 38.1099 17.5207 38.0967C16.9289 38.0945 16.4176 38.4497 15.9713 38.7994C15.2957 39.3734 14.6819 40.0145 14.0207 40.6029C13.7276 40.847 13.4047 41.1087 13.0091 41.145C12.511 41.1186 12.3446 40.549 12.2719 40.141C12.165 39.4966 12.6785 38.9754 13.1997 38.6895C14.4296 38.0231 15.8456 37.7591 17.0413 37.0224C17.6154 36.676 18.1323 36.1141 18.1676 35.4147C18.259 34.4723 17.9648 33.3649 17.0656 32.8965C16.0506 32.3752 14.8549 32.5193 13.7662 32.6677C10.966 33.1054 8.31567 34.1974 5.51549 34.6328C4.74409 34.6878 3.84045 34.8385 3.19578 34.3029C2.67674 33.7949 2.69217 32.9438 2.95444 32.3115C3.2079 31.711 3.85918 31.4141 4.46639 31.3031C5.7965 31.0743 7.14976 31.2525 8.47656 31.4108C10.3522 31.6231 12.2212 31.9519 14.1133 31.9618C15.1205 31.942 16.1895 31.8727 17.0689 31.3295C17.7741 30.8951 18.2204 30.0715 18.2017 29.2467C18.0695 28.6848 17.4424 28.4913 16.9642 28.312C15.0544 27.7325 13.041 27.6907 11.0718 27.4675C9.80888 27.3608 8.54379 27.2585 7.28751 27.0914C6.42244 26.9429 5.52431 26.8374 4.74078 26.4151C4.48953 26.282 4.23056 26.0423 4.26803 25.73C4.31321 25.2715 4.75401 24.9592 5.18709 24.9086C6.36734 24.7095 7.5597 24.9867 8.7157 25.2165C10.34 25.5948 11.9578 25.9994 13.5821 26.3788C14.6191 26.5987 15.6726 26.8088 16.7383 26.7692C17.1195 26.7351 17.5273 26.7142 17.8535 26.491C18.3207 26.1853 18.4375 25.5222 18.237 25.0262C17.9912 24.3994 17.4457 23.964 16.9223 23.5725C16.2324 23.0853 15.5183 22.6323 14.8307 22.1418C14.4384 21.8449 14.0461 21.5117 13.8213 21.0653C13.3948 20.1856 14.3304 18.988 15.299 19.2992C16.6754 19.7248 17.6518 20.9564 19.0558 21.3182C19.8239 21.5381 20.6283 20.9597 20.8432 20.2317C20.9953 19.6797 20.701 19.1343 20.3771 18.7043C19.8779 18.0687 19.2872 17.5123 18.7792 16.8833C18.4849 16.5039 18.2171 16.0025 18.399 15.5164C18.68 14.8764 19.5241 14.4421 20.1732 14.8258C21.0096 15.2921 21.5287 16.1311 22.1127 16.858C22.7309 17.6245 23.2753 18.5152 24.1646 18.9968C24.6495 19.2541 25.2512 19.131 25.6556 18.7813C26.34 18.2875 26.7521 17.4496 26.6904 16.6051C26.6386 15.7451 26.2717 14.949 25.8904 14.1902C24.9393 12.4517 23.6908 10.9034 22.5458 9.29127C21.8163 8.2576 21.0427 7.19643 20.7407 5.94722C20.5743 5.3611 20.8002 4.68372 21.3237 4.35712ZM42.8149 26.6944C42.0292 26.8198 41.2688 27.286 40.9415 28.0316C40.3762 29.3325 40.9095 31.015 42.1228 31.7539C42.9328 32.2488 43.9852 32.0794 44.7511 31.5813C45.3759 31.1722 45.7286 30.4233 45.7198 29.6855C45.7682 28.7882 45.3991 27.8798 44.7423 27.2673C44.2332 26.7934 43.5047 26.5471 42.8149 26.6944ZM37.9209 28.2944C37.9518 29.6822 38.1964 31.0567 38.2206 32.4456C37.5639 31.2745 36.874 30.1209 36.1819 28.9718C35.6585 28.9113 35.1361 29.2038 34.6424 29.3666C35.1317 30.9853 35.6651 32.5908 36.1687 34.2051C36.5081 34.1545 36.8376 34.0533 37.1616 33.9389C36.8531 32.6776 36.3605 31.4691 36.0376 30.2122C36.7208 31.3559 37.3875 32.5083 38.0807 33.6464C38.4146 33.5453 38.7474 33.4397 39.0813 33.3385C38.9788 32.009 38.8708 30.6796 38.7485 29.3534C39.2047 30.5696 39.543 31.8276 39.9618 33.057C40.2979 32.9471 40.634 32.8371 40.9712 32.7304C40.4368 31.1007 39.9475 29.4557 39.3932 27.8315C38.905 27.9942 38.4157 28.1537 37.9209 28.2944ZM46.9573 32.5336C46.2685 32.7106 32.5707 36.0305 32.2831 36.7002C31.6637 38.1297 25.1884 51.1793 19.2685 35.6126C18.8023 29.597 24.1999 26.8314 24.795 25.9462C25.5884 24.6728 45.6144 23.7492 45.0641 24.4815C45.8236 24.7954 47.5898 32.3565 46.9573 32.5336ZM26.7632 31.8485C26.0524 32.086 25.3328 32.2961 24.622 32.5336C25.1102 34.1589 25.6556 35.7655 26.146 37.3908C26.5031 37.349 26.8436 37.2313 27.1786 37.1059C26.9769 36.4605 26.7543 35.8216 26.5769 35.1684C27.1588 35.0221 27.7263 34.6757 28.3445 34.8099C28.6454 35.3542 28.6905 36.0074 29.0796 36.5077C29.452 36.3989 29.83 36.3021 30.1871 36.1482C30.0846 35.9447 29.8664 35.8271 29.7826 35.6126C29.6074 35.198 29.5115 34.7439 29.2504 34.37C29.0895 34.1545 28.8096 34.1248 28.5671 34.0731C28.8118 33.7993 29.0785 33.4859 29.0564 33.0933C29.0344 32.4654 28.6542 31.7528 27.9875 31.6297C27.5676 31.5923 27.1566 31.722 26.7632 31.8485ZM20.085 33.9455C20.5964 35.5719 21.1165 37.195 21.6333 38.8192C21.9573 38.751 22.2758 38.6565 22.5899 38.5498C22.5171 37.9417 22.2747 37.3743 22.0885 36.7958C22.6924 36.544 23.3822 36.4715 23.9167 36.0767C24.6616 35.4631 24.5096 34.2853 23.9542 33.5959C23.5784 33.1351 22.9139 33.068 22.3728 33.2286C21.6036 33.4474 20.8498 33.7168 20.085 33.9455Z" fill="#F17720"/>
<path d="M42.8271 27.6134C43.3638 27.4628 43.9324 27.774 44.2245 28.2204C44.5121 28.6966 44.7534 29.2376 44.7005 29.8072C44.695 30.412 44.2366 30.9883 43.6327 31.0916C43.0586 31.2401 42.4547 30.9014 42.1659 30.4087C41.8276 29.8435 41.616 29.1364 41.8309 28.4887C41.9643 28.039 42.372 27.7069 42.8271 27.6134Z" fill="#F17720"/>
<path d="M31.7904 31.0908C32.1717 30.9863 32.6191 30.9874 32.9486 31.2348C33.3784 31.5263 33.5944 32.0244 33.752 32.5005C33.9173 33.0075 33.8853 33.6068 33.5591 34.0445C33.1657 34.5712 32.348 34.7339 31.8004 34.3546C31.192 33.9312 30.8956 33.1581 30.8901 32.4368C30.8626 31.854 31.2361 31.2832 31.7904 31.0908Z" fill="#F17720"/>
<path d="M25.9016 33.0486C26.5033 32.8979 27.0741 32.579 27.7089 32.5977C27.9987 32.8869 28.2379 33.44 27.8874 33.771C27.3882 34.035 26.8284 34.1559 26.2906 34.3154C26.1551 33.8942 26.0173 33.4752 25.9016 33.0486Z" fill="#F17720"/>
<path d="M55.7722 34.1117C57.5938 33.8313 59.432 33.6499 61.2756 33.6125C62.5065 33.6521 63.7805 33.6191 64.9497 34.0655C65.4808 34.2646 66.0241 34.6341 66.12 35.2356V35.5567C66.0462 36.0977 65.5954 36.4848 65.0731 36.5783C63.7132 36.8433 62.3567 36.4177 61.0486 36.0889C59.2413 35.5688 57.4891 34.8738 55.7722 34.1117Z" fill="#F17720"/>
<path d="M21.3809 34.4454C21.8757 34.3255 22.3672 34.0484 22.8895 34.1408C23.3986 34.3508 23.5893 35.2405 23.0361 35.5165C22.6559 35.7089 22.2371 35.8024 21.8349 35.9321C21.6608 35.4439 21.4988 34.9501 21.3809 34.4454Z" fill="#F17720"/>
<path d="M3.04372 44.3546C5.23119 43.6926 7.50131 43.3352 9.77364 43.1142C7.84624 44.6339 5.8395 46.0821 3.62117 47.151C2.77153 47.5172 1.83593 47.9043 0.895926 47.7019C0.408842 47.6019 0.107996 47.1477 0 46.6924V46.4483C0.08816 45.9788 0.428678 45.6093 0.812174 45.3465C1.4866 44.8813 2.2591 44.5789 3.04372 44.3546Z" fill="#F17720"/>
</g>
</svg>
